<svg xmlns="http://www.w3.org/2000/svg" width="1200" height="600" viewBox="-150 0 1200 600"><rect width="1200" height="600" x="-150" y="0" fill="#fff"/><g transform="matrix(.98182 0 0 1.29744 -96.23 -20.67)"><desc id="descId">Total Stars Earned: 95, Total Commits in 2025 : 95, Total PRs: 17, Total Issues: 5, Contributed to (last year): 3</desc><style>.header {
            font: 600 18px &apos;Segoe UI&apos;, Ubuntu, Sans-Serif;
            fill: #bddfff;
            animation: fadeInAnimation 0.8s ease-in-out forwards;
          }
          @supports(-moz-appearance: auto) {
            /* Selector detects Firefox */
            .header { font-size: 15.5px; }
          }
          
    .stat {
      font: 600 14px &apos;Segoe UI&apos;, Ubuntu, &quot;Helvetica Neue&quot;, Sans-Serif; fill: #6e93b5;
    }
    @supports(-moz-appearance: auto) {
      /* Selector detects Firefox */
      .stat { font-size:12px; }
    }
    .stagger {
      opacity: 0;
      animation: fadeInAnimation 0.3s ease-in-out forwards;
    }
    .rank-text {
      font: 800 24px &apos;Segoe UI&apos;, Ubuntu, Sans-Serif; fill: #6e93b5;
      animation: scaleInAnimation 0.3s ease-in-out forwards;
    }
    
    .not_bold { font-weight: 400 }
    .bold { font-weight: 700 }
    .icon {
      fill: #38a0ff;
      display: block;
    }

    .rank-circle-rim {
      stroke: #bddfff;
      fill: none;
      stroke-width: 6;
      opacity: 0.2;
    }
    .rank-circle {
      stroke: #bddfff;
      stroke-dasharray: 250;
      fill: none;
      stroke-width: 6;
      stroke-linecap: round;
      opacity: 0.8;
      transform-origin: -10px 8px;
      transform: rotate(-90deg);
      animation: rankAnimation 1s forwards ease-in-out;
    }
    
    @keyframes rankAnimation {
      from {
        stroke-dashoffset: 251.32741228718345;
      }
      to {
        stroke-dashoffset: 123.4573893763081;
      }
    }
  
  

          
    /* Animations */
    @keyframes scaleInAnimation {
      from {
        transform: translate(-5px, 5px) scale(0);
      }
      to {
        transform: translate(-5px, 5px) scale(1);
      }
    }
    @keyframes fadeInAnimation {
      from {
        opacity: 0;
      }
      to {
        opacity: 1;
      }
    }.header {
            font: 600 18px &apos;Segoe UI&apos;, Ubuntu, Sans-Serif;
            fill: #c792ea;
            animation: fadeInAnimation 0.8s ease-in-out forwards;
          }
          @supports(-moz-appearance: auto) {
            /* Selector detects Firefox */
            .header { font-size: 15.5px; }
          }
          .lang-name { font: 400 11px &apos;Segoe UI&apos;, Ubuntu, Sans-Serif; fill: #7fdbca }

          
    /* Animations */
    @keyframes scaleInAnimation {
      from {
        transform: translate(-5px, 5px) scale(0);
      }
      to {
        transform: translate(-5px, 5px) scale(1);
      }
    }
    @keyframes fadeInAnimation {
      from {
        opacity: 0;
      }
      to {
        opacity: 1;
      }
    }
  
          * { animation-duration: 0s !important; animation-delay: 0s !important; }@keyframes currstreak {
                0% { font-size: 3px; opacity: 0.2; }
                80% { font-size: 34px; opacity: 1; }
                100% { font-size: 28px; opacity: 1; }
            }
            @keyframes fadein {
                0% { opacity: 0; }
                100% { opacity: 1; }
            }</style><rect width="494" height="99%" x=".5" y=".5" fill="#172f45" stroke="#e4e2e2" stroke-opacity="1" data-testid="card-bg" rx="20"/><g data-testid="card-title" transform="translate(25 35)"><g><text x="0" y="0" class="header" data-testid="header">whiteSHADOW1234&apos;s GitHub Stats</text></g></g><g data-testid="main-card-body" transform="translate(0 55)"><g data-testid="rank-circle" transform="translate(400 47.5)"><circle cx="-10" cy="8" r="40" class="rank-circle-rim"/><circle cx="-10" cy="8" r="40" class="rank-circle"/><g class="rank-text"><text x="-5" y="3" alignment-baseline="central" dominant-baseline="central" text-anchor="middle">
            A+
          </text></g></g><svg x="0" y="0"><g><g class="stagger" style="animation-delay:450ms" transform="translate(25)"><svg width="16" height="16" class="icon" data-testid="icon" version="1.1" viewBox="0 0 16 16"><path fill-rule="evenodd" d="M8 .25a.75.75 0 01.673.418l1.882 3.815 4.21.612a.75.75 0 01.416 1.279l-3.046 2.97.719 4.192a.75.75 0 01-1.088.791L8 12.347l-3.766 1.98a.75.75 0 01-1.088-.79l.72-4.194L.818 6.374a.75.75 0 01.416-1.28l4.21-.611L7.327.668A.75.75 0 018 .25zm0 2.445L6.615 5.5a.75.75 0 01-.564.41l-3.097.45 2.24 2.184a.75.75 0 01.216.664l-.528 3.084 2.769-1.456a.75.75 0 01.698 0l2.77 1.456-.53-3.084a.75.75 0 01.216-.664l2.24-2.183-3.096-.45a.75.75 0 01-.564-.41L8 2.694v.001z"/></svg><text x="25" y="12.5" class="stat bold">Total Stars Earned:</text><text x="219.01" y="12.5" class="stat bold" data-testid="stars">95</text></g></g><g transform="translate(0 25)"><g class="stagger" style="animation-delay:600ms" transform="translate(25)"><svg width="16" height="16" class="icon" data-testid="icon" version="1.1" viewBox="0 0 16 16"><path fill-rule="evenodd" d="M1.643 3.143L.427 1.927A.25.25 0 000 2.104V5.75c0 .138.112.25.25.25h3.646a.25.25 0 00.177-.427L2.715 4.215a6.5 6.5 0 11-1.18 4.458.75.75 0 10-1.493.154 8.001 8.001 0 101.6-5.684zM7.75 4a.75.75 0 01.75.75v2.992l2.028.812a.75.75 0 01-.557 1.392l-2.5-1A.75.75 0 017 8.25v-3.5A.75.75 0 017.75 4z"/></svg><text x="25" y="12.5" class="stat bold">Total Commits (2025):</text><text x="219.01" y="12.5" class="stat bold" data-testid="commits">537</text></g></g><g transform="translate(0 50)"><g class="stagger" style="animation-delay:750ms" transform="translate(25)"><svg width="16" height="16" class="icon" data-testid="icon" version="1.1" viewBox="0 0 16 16"><path fill-rule="evenodd" d="M7.177 3.073L9.573.677A.25.25 0 0110 .854v4.792a.25.25 0 01-.427.177L7.177 3.427a.25.25 0 010-.354zM3.75 2.5a.75.75 0 100 1.5.75.75 0 000-1.5zm-2.25.75a2.25 2.25 0 113 2.122v5.256a2.251 2.251 0 11-1.5 0V5.372A2.25 2.25 0 011.5 3.25zM11 2.5h-1V4h1a1 1 0 011 1v5.628a2.251 2.251 0 101.5 0V5A2.5 2.5 0 0011 2.5zm1 10.25a.75.75 0 111.5 0 .75.75 0 01-1.5 0zM3.75 12a.75.75 0 100 1.5.75.75 0 000-1.5z"/></svg><text x="25" y="12.5" class="stat bold">Total PRs:</text><text x="219.01" y="12.5" class="stat bold" data-testid="prs">17</text></g></g><g transform="translate(0 75)"><g class="stagger" style="animation-delay:900ms" transform="translate(25)"><svg width="16" height="16" class="icon" data-testid="icon" version="1.1" viewBox="0 0 16 16"><path fill-rule="evenodd" d="M8 1.5a6.5 6.5 0 100 13 6.5 6.5 0 000-13zM0 8a8 8 0 1116 0A8 8 0 010 8zm9 3a1 1 0 11-2 0 1 1 0 012 0zm-.25-6.25a.75.75 0 00-1.5 0v3.5a.75.75 0 001.5 0v-3.5z"/></svg><text x="25" y="12.5" class="stat bold">Total Issues:</text><text x="219.01" y="12.5" class="stat bold" data-testid="issues">5</text></g></g><g transform="translate(0 100)"><g class="stagger" style="animation-delay:1050ms" transform="translate(25)"><svg width="16" height="16" class="icon" data-testid="icon" version="1.1" viewBox="0 0 16 16"><path fill-rule="evenodd" d="M2 2.5A2.5 2.5 0 014.5 0h8.75a.75.75 0 01.75.75v12.5a.75.75 0 01-.75.75h-2.5a.75.75 0 110-1.5h1.75v-2h-8a1 1 0 00-.714 1.7.75.75 0 01-1.072 1.05A2.495 2.495 0 012 11.5v-9zm10.5-1V9h-8c-.356 0-.694.074-1 .208V2.5a1 1 0 011-1h8zM5 12.25v3.25a.25.25 0 00.4.2l1.45-1.087a.25.25 0 01.3 0L8.6 15.7a.25.25 0 00.4-.2v-3.25a.25.25 0 00-.25-.25h-3.5a.25.25 0 00-.25.25z"/></svg><text x="25" y="12.5" class="stat bold">Contributed to (last year):</text><text x="219.01" y="12.5" class="stat bold" data-testid="contribs">3</text></g></g></svg></g></g><g transform="matrix(1.36 0 0 1.69286 423 -11)"><rect width="349" height="99%" x=".5" y=".5" fill="#011627" stroke="#e4e2e2" stroke-opacity="1" data-testid="card-bg" rx="20"/><g data-testid="card-title" transform="translate(25 35)"><g><text x="0" y="0" class="header" data-testid="header">Most Used Languages</text></g></g><g data-testid="main-card-body" transform="translate(0 55)"><svg x="25" data-testid="lang-items"><mask id="rect-mask"><rect width="300" height="8" x="0" y="0" fill="#fff" rx="5"/></mask><rect width="217.29" height="8" x="0" y="0" fill="#e4cc98" data-testid="lang-progress" mask="url(#rect-mask)"/><rect width="34.11" height="8" x="217.29" y="0" fill="#3572A5" data-testid="lang-progress" mask="url(#rect-mask)"/><rect width="24.71" height="8" x="251.4" y="0" fill="#f34b7d" data-testid="lang-progress" mask="url(#rect-mask)"/><rect width="23.9" height="8" x="276.11" y="0" fill="#00B4AB" data-testid="lang-progress" mask="url(#rect-mask)"/><g transform="translate(0 25)"><g><g><g><circle cx="5" cy="6" r="5" fill="#e4cc98"/><text x="15" y="10" class="lang-name" data-testid="lang-name">
        Tcl 72.43%
      </text></g></g><g transform="translate(0 25)"><g><circle cx="5" cy="6" r="5" fill="#3572A5"/><text x="15" y="10" class="lang-name" data-testid="lang-name">
        Python 11.37%
      </text></g></g></g><g transform="translate(150)"><g><g><circle cx="5" cy="6" r="5" fill="#f34b7d"/><text x="15" y="10" class="lang-name" data-testid="lang-name">
        C++ 8.24%
      </text></g></g><g transform="translate(0 25)"><g><circle cx="5" cy="6" r="5" fill="#00B4AB"/><text x="15" y="10" class="lang-name" data-testid="lang-name">
        Dart 7.97%
      </text></g></g></g></g></svg></g></g><defs><clipPath id="item-8e898692-ced9-4874-a2d2-10df2f969405-outer_rectangle"><rect width="495" height="195" rx="10"/></clipPath><mask id="item-8e898692-ced9-4874-a2d2-10df2f969405-mask_out_ring_behind_fire"><rect width="495" height="195" fill="#fff"/><ellipse id="mask-ellipse" cx="247.5" cy="32" fill="#000" rx="13" ry="18"/></mask></defs><g style="isolation:isolate" transform="matrix(1.2909 0 0 1.14359 80 325)"><g clip-path="url(#item-8e898692-ced9-4874-a2d2-10df2f969405-outer_rectangle)"><g style="isolation:isolate"><rect width="494" height="194" x=".5" y=".5" fill="#1A1B27" stroke="#E4E2E2" rx="10"/></g><g style="isolation:isolate"><line x1="165" x2="165" y1="28" y2="170" stroke="#E4E2E2" stroke-linecap="square" stroke-linejoin="miter" stroke-miterlimit="3" stroke-width="1" vector-effect="non-scaling-stroke"/><line x1="330" x2="330" y1="28" y2="170" stroke="#E4E2E2" stroke-linecap="square" stroke-linejoin="miter" stroke-miterlimit="3" stroke-width="1" vector-effect="non-scaling-stroke"/></g><g style="isolation:isolate"><g transform="translate(82.5 48)"><text x="0" y="32" fill="#70A5FD" stroke="none" stroke-width="0" font-family="&quot;Segoe UI&quot;, Ubuntu, sans-serif" font-size="28" font-style="normal" font-weight="700" style="opacity:0;animation:fadein 0.5s linear forwards 0.6s" text-anchor="middle">
                        1,234
                    </text></g><g transform="translate(82.5 84)"><text x="0" y="32" fill="#70A5FD" stroke="none" stroke-width="0" font-family="&quot;Segoe UI&quot;, Ubuntu, sans-serif" font-size="14" font-style="normal" font-weight="400" style="opacity:0;animation:fadein 0.5s linear forwards 0.7s" text-anchor="middle">
                        Total Contributions
                    </text></g><g transform="translate(82.5 114)"><text x="0" y="32" fill="#38BDAE" stroke="none" stroke-width="0" font-family="&quot;Segoe UI&quot;, Ubuntu, sans-serif" font-size="12" font-style="normal" font-weight="400" style="opacity:0;animation:fadein 0.5s linear forwards 0.8s" text-anchor="middle">
                        Sep 22, 2021 - Present
                    </text></g></g><g style="isolation:isolate"><g transform="translate(247.5 108)"><text x="0" y="32" fill="#BF91F3" stroke="none" stroke-width="0" font-family="&quot;Segoe UI&quot;, Ubuntu, sans-serif" font-size="14" font-style="normal" font-weight="700" style="opacity:0;animation:fadein 0.5s linear forwards 0.9s" text-anchor="middle">
                        Current Streak
                    </text></g><g transform="translate(247.5 145)"><text x="0" y="21" fill="#38BDAE" stroke="none" stroke-width="0" font-family="&quot;Segoe UI&quot;, Ubuntu, sans-serif" font-size="12" font-style="normal" font-weight="400" style="opacity:0;animation:fadein 0.5s linear forwards 0.9s" text-anchor="middle">
                        Apr 15
                    </text></g><g mask="url(#item-8e898692-ced9-4874-a2d2-10df2f969405-mask_out_ring_behind_fire)"><circle cx="247.5" cy="71" r="40" fill="none" stroke="#70A5FD" stroke-width="5" style="opacity:0;animation:fadein 0.5s linear forwards 0.4s"/></g><g stroke-opacity="0" style="opacity:0;animation:fadein 0.5s linear forwards 0.6s" transform="translate(247.5 19.5)"><path fill="none" d="M -12 -0.5 L 15 -0.5 L 15 23.5 L -12 23.5 L -12 -0.5 Z"/><path fill="#70A5FD" stroke-opacity="0" d="M 1.5 0.67 C 1.5 0.67 2.24 3.32 2.24 5.47 C 2.24 7.53 0.89 9.2 -1.17 9.2 C -3.23 9.2 -4.79 7.53 -4.79 5.47 L -4.76 5.11 C -6.78 7.51 -8 10.62 -8 13.99 C -8 18.41 -4.42 22 0 22 C 4.42 22 8 18.41 8 13.99 C 8 8.6 5.41 3.79 1.5 0.67 Z M -0.29 19 C -2.07 19 -3.51 17.6 -3.51 15.86 C -3.51 14.24 -2.46 13.1 -0.7 12.74 C 1.07 12.38 2.9 11.53 3.92 10.16 C 4.31 11.45 4.51 12.81 4.51 14.2 C 4.51 16.85 2.36 19 -0.29 19 Z"/></g><g transform="translate(247.5 48)"><text x="0" y="32" fill="#BF91F3" stroke="none" stroke-width="0" font-family="&quot;Segoe UI&quot;, Ubuntu, sans-serif" font-size="28" font-style="normal" font-weight="700" style="animation:currstreak 0.6s linear forwards" text-anchor="middle">
                        1
                    </text></g></g><g style="isolation:isolate"><g transform="translate(412.5 48)"><text x="0" y="32" fill="#70A5FD" stroke="none" stroke-width="0" font-family="&quot;Segoe UI&quot;, Ubuntu, sans-serif" font-size="28" font-style="normal" font-weight="700" style="opacity:0;animation:fadein 0.5s linear forwards 1.2s" text-anchor="middle">
                        50
                    </text></g><g transform="translate(412.5 84)"><text x="0" y="32" fill="#70A5FD" stroke="none" stroke-width="0" font-family="&quot;Segoe UI&quot;, Ubuntu, sans-serif" font-size="14" font-style="normal" font-weight="400" style="opacity:0;animation:fadein 0.5s linear forwards 1.3s" text-anchor="middle">
                        Longest Streak
                    </text></g><g transform="translate(412.5 114)"><text x="0" y="32" fill="#38BDAE" stroke="none" stroke-width="0" font-family="&quot;Segoe UI&quot;, Ubuntu, sans-serif" font-size="12" font-style="normal" font-weight="400" style="opacity:0;animation:fadein 0.5s linear forwards 1.4s" text-anchor="middle">
                        Feb 21, 2023 - Apr 11, 2023
                    </text></g></g></g></g><g transform="matrix(.54054 0 0 .53957 -112.453 300)"><rect width="390" height="6" x="19" y="537" fill="#BD0909" transform="rotate(-90 19 537)"/><rect width="555" height="13" y="555" fill="#BD0909" transform="rotate(-90 0 555)"/><rect width="7" height="22" x="19" y="449" fill="#BD0909" transform="rotate(-90 19 449)"/><rect width="9" height="14" x="34" y="406" fill="#BD0909" transform="rotate(-90 34 406)"/><rect width="9" height="54" x="50" y="446" fill="#BD0909" transform="rotate(-90 50 446)"/><rect width="7" height="61" x="71" y="429" fill="#BD0909" transform="rotate(-90 71 429)"/><rect width="6" height="38" x="25" y="391" fill="#BD0909" transform="rotate(-90 25 391)"/><rect width="9" height="27" x="36" y="433" fill="#BD0909" transform="rotate(-90 36 433)"/><rect width="68" height="6" x="35" y="510" fill="#BD0909" transform="rotate(-90 35 510)"/><path fill="#BD0909" d="M34.9803 508.823L103.983 437.019L114.984 437.019L34.9965 518.5L34.9803 508.823Z"/><path fill="#BD0909" d="M50.0019 477.002L66 459.5L73.0019 459.502L49.9232 483.501L50.0019 477.002Z"/><rect width="47" height="6" x="57" y="432" fill="#BD0909" transform="rotate(-90 57 432)"/><rect width="33" height="8" x="34" y="433" fill="#BD0909" transform="rotate(-90 34 433)"/><path fill="#BD0909" fill-rule="evenodd" d="M52.0672 480L56 475.925L56 442H50L50 480H52.0672Z" clip-rule="evenodd"/><rect width="56" height="6" x="71" y="429" fill="#BD0909" transform="rotate(-90 71 429)"/><rect width="32" height="4" x="50" y="377" fill="#BD0909" transform="rotate(-90 50 377)"/><rect width="26" height="5" x="76" y="378" fill="#BD0909" transform="rotate(-180 76 378)"/><rect width="15" height="4" x="54" y="349" fill="#BD0909" transform="rotate(-180 54 349)"/><rect width="17" height="3" x="42" y="328" fill="#BD0909" transform="rotate(-180 42 328)"/><rect width="10" height="8" x="34" y="344" fill="#BD0909" transform="rotate(-180 34 344)"/><rect width="23" height="3" x="39" y="348" fill="#BD0909" transform="rotate(-90 39 348)"/><rect width="25" height="4" x="30" y="361" fill="#BD0909" transform="rotate(-90 30 361)"/><rect width="25" height="4" x="43" y="382" fill="#BD0909" transform="rotate(-90 43 382)"/><rect width="14" height="4" x="29" y="382" fill="#BD0909" transform="rotate(-90 29 382)"/><rect width="18" height="8" x="47" y="382" fill="#BD0909" transform="rotate(-180 47 382)"/><rect width="16" height="4" x="46" y="361" fill="#BD0909" transform="rotate(-180 46 361)"/><rect width="390" height="6" fill="#BD0909" transform="matrix(1 0 0 -1 19 537)"/><rect width="555" height="13" fill="#BD0909" transform="matrix(1 0 0 -1 0 556)"/><rect width="7" height="22" fill="#BD0909" transform="matrix(1 0 0 -1 106 537)"/><rect width="9" height="14" fill="#BD0909" transform="matrix(1 0 0 -1 149 522)"/><rect width="9" height="54" fill="#BD0909" transform="matrix(1 0 0 -1 109 506)"/><rect width="7" height="63" fill="#BD0909" transform="matrix(1 0 0 -1 126 485)"/><rect width="6" height="38" fill="#BD0909" transform="matrix(1 0 0 -1 164 531)"/><rect width="9" height="27" fill="#BD0909" transform="matrix(1 0 0 -1 122 520)"/><rect width="68" height="6" fill="#BD0909" transform="matrix(1 0 0 -1 45 521)"/><path fill="#BD0909" d="M46.1773 521.02L117.981 452.017L117.981 441.016L36.5 521.004L46.1773 521.02Z"/><path fill="#BD0909" d="M77.9981 505.998L95.5 490L95.4981 482.998L71.4987 506.077L77.9981 505.998Z"/><rect width="47" height="6" fill="#BD0909" transform="matrix(1 0 0 -1 123 499)"/><rect width="33" height="8" fill="#BD0909" transform="matrix(1 0 0 -1 122 522)"/><path fill="#BD0909" fill-rule="evenodd" d="M75 503.933L79.0749 500H113V506H75V503.933Z" clip-rule="evenodd"/><rect width="56" height="6" fill="#BD0909" transform="matrix(1 0 0 -1 126 485)"/><rect width="32" height="4" fill="#BD0909" transform="matrix(1 0 0 -1 178 506)"/><rect width="26" height="5" fill="#BD0909" transform="matrix(0 1 1 0 177 480)"/><rect width="15" height="4" fill="#BD0909" transform="matrix(0 1 1 0 206 502)"/><rect width="17" height="3" fill="#BD0909" transform="matrix(0 1 1 0 227 514)"/><rect width="10" height="8" fill="#BD0909" transform="matrix(0 1 1 0 211 522)"/><rect width="23" height="3" fill="#BD0909" transform="matrix(1 0 0 -1 207 517)"/><rect width="25" height="4" fill="#BD0909" transform="matrix(1 0 0 -1 194 526)"/><rect width="25" height="4" fill="#BD0909" transform="matrix(1 0 0 -1 173 513)"/><rect width="14" height="4" fill="#BD0909" transform="matrix(1 0 0 -1 173 527)"/><rect width="18" height="8" fill="#BD0909" transform="matrix(0 1 1 0 173 509)"/><rect width="16" height="4" fill="#BD0909" transform="matrix(0 1 1 0 194 510)"/></g><g transform="matrix(.54054 0 0 .53957 600.257 300)"><rect width="390" height="6" fill="#BD0909" transform="matrix(0 -1 -1 0 536 537)"/><rect width="555" height="13" fill="#BD0909" transform="matrix(0 -1 -1 0 555 555)"/><rect width="7" height="22" fill="#BD0909" transform="matrix(0 -1 -1 0 536 449)"/><rect width="9" height="14" fill="#BD0909" transform="matrix(0 -1 -1 0 521 406)"/><rect width="9" height="54" fill="#BD0909" transform="matrix(0 -1 -1 0 505 446)"/><rect width="7" height="61" fill="#BD0909" transform="matrix(0 -1 -1 0 484 429)"/><rect width="6" height="38" fill="#BD0909" transform="matrix(0 -1 -1 0 530 391)"/><rect width="9" height="27" fill="#BD0909" transform="matrix(0 -1 -1 0 519 433)"/><rect width="68" height="6" fill="#BD0909" transform="matrix(0 -1 -1 0 520 510)"/><path fill="#BD0909" d="M520.02 508.823L451.017 437.019L440.016 437.019L520.004 518.5L520.02 508.823Z"/><path fill="#BD0909" d="M504.998 477.002L489 459.5L481.998 459.502L505.077 483.501L504.998 477.002Z"/><rect width="47" height="6" fill="#BD0909" transform="matrix(0 -1 -1 0 498 432)"/><rect width="33" height="8" fill="#BD0909" transform="matrix(0 -1 -1 0 521 433)"/><path fill="#BD0909" fill-rule="evenodd" d="M502.933 480L499 475.925V442H505V480H502.933Z" clip-rule="evenodd"/><rect width="56" height="6" fill="#BD0909" transform="matrix(0 -1 -1 0 484 429)"/><rect width="32" height="4" fill="#BD0909" transform="matrix(0 -1 -1 0 505 377)"/><rect width="26" height="5" fill="#BD0909" transform="matrix(1 0 0 -1 479 378)"/><rect width="15" height="4" fill="#BD0909" transform="matrix(1 0 0 -1 501 349)"/><rect width="17" height="3" fill="#BD0909" transform="matrix(1 0 0 -1 513 328)"/><rect width="10" height="8" fill="#BD0909" transform="matrix(1 0 0 -1 521 344)"/><rect width="23" height="3" fill="#BD0909" transform="matrix(0 -1 -1 0 516 348)"/><rect width="25" height="4" fill="#BD0909" transform="matrix(0 -1 -1 0 525 361)"/><rect width="25" height="4" fill="#BD0909" transform="matrix(0 -1 -1 0 512 382)"/><rect width="14" height="4" fill="#BD0909" transform="matrix(0 -1 -1 0 526 382)"/><rect width="18" height="8" fill="#BD0909" transform="matrix(1 0 0 -1 508 382)"/><rect width="16" height="4" fill="#BD0909" transform="matrix(1 0 0 -1 509 361)"/><rect width="390" height="6" x="536" y="537" fill="#BD0909" transform="rotate(180 536 537)"/><rect width="555" height="13" x="555" y="556" fill="#BD0909" transform="rotate(180 555 556)"/><rect width="7" height="22" x="449" y="537" fill="#BD0909" transform="rotate(180 449 537)"/><rect width="9" height="14" x="406" y="522" fill="#BD0909" transform="rotate(180 406 522)"/><rect width="9" height="54" x="446" y="506" fill="#BD0909" transform="rotate(180 446 506)"/><rect width="7" height="63" x="429" y="485" fill="#BD0909" transform="rotate(180 429 485)"/><rect width="6" height="38" x="391" y="531" fill="#BD0909" transform="rotate(180 391 531)"/><rect width="9" height="27" x="433" y="520" fill="#BD0909" transform="rotate(180 433 520)"/><rect width="68" height="6" x="510" y="521" fill="#BD0909" transform="rotate(180 510 521)"/><path fill="#BD0909" d="M508.823 521.02L437.019 452.017L437.019 441.016L518.5 521.004L508.823 521.02Z"/><path fill="#BD0909" d="M477.002 505.998L459.5 490L459.502 482.998L483.501 506.077L477.002 505.998Z"/><rect width="47" height="6" x="432" y="499" fill="#BD0909" transform="rotate(180 432 499)"/><rect width="33" height="8" x="433" y="522" fill="#BD0909" transform="rotate(180 433 522)"/><path fill="#BD0909" fill-rule="evenodd" d="M480 503.933L475.925 500H442V506H480V503.933Z" clip-rule="evenodd"/><rect width="56" height="6" x="429" y="485" fill="#BD0909" transform="rotate(180 429 485)"/><rect width="32" height="4" x="377" y="506" fill="#BD0909" transform="rotate(180 377 506)"/><rect width="26" height="5" x="378" y="480" fill="#BD0909" transform="rotate(90 378 480)"/><rect width="15" height="4" x="349" y="502" fill="#BD0909" transform="rotate(90 349 502)"/><rect width="17" height="3" x="328" y="514" fill="#BD0909" transform="rotate(90 328 514)"/><rect width="10" height="8" x="344" y="522" fill="#BD0909" transform="rotate(90 344 522)"/><rect width="23" height="3" x="348" y="517" fill="#BD0909" transform="rotate(180 348 517)"/><rect width="25" height="4" x="361" y="526" fill="#BD0909" transform="rotate(180 361 526)"/><rect width="25" height="4" x="382" y="513" fill="#BD0909" transform="rotate(180 382 513)"/><rect width="14" height="4" x="382" y="527" fill="#BD0909" transform="rotate(180 382 527)"/><rect width="18" height="8" x="382" y="509" fill="#BD0909" transform="rotate(90 382 509)"/><rect width="16" height="4" x="361" y="510" fill="#BD0909" transform="rotate(90 361 510)"/></g></svg>