<svg xmlns="http://www.w3.org/2000/svg" width="1200" height="600" viewBox="-150 0 1200 600"><g fill="none" aria-labelledby="descId" role="img" transform="matrix(.98182 0 0 1.29744 -96.23 -20.67)"><desc id="descId">Total Stars Earned: 94, Total Commits in 2025 : 94, Total PRs: 17, Total Issues: 5, Contributed to (last year): 3</desc><style>.header {
            font: 600 18px &apos;Segoe UI&apos;, Ubuntu, Sans-Serif;
            fill: #bddfff;
            animation: fadeInAnimation 0.8s ease-in-out forwards;
          }
          @supports(-moz-appearance: auto) {
            /* Selector detects Firefox */
            .header { font-size: 15.5px; }
          }
          
    .stat {
      font: 600 14px &apos;Segoe UI&apos;, Ubuntu, &quot;Helvetica Neue&quot;, Sans-Serif; fill: #6e93b5;
    }
    @supports(-moz-appearance: auto) {
      /* Selector detects Firefox */
      .stat { font-size:12px; }
    }
    .stagger {
      opacity: 0;
      animation: fadeInAnimation 0.3s ease-in-out forwards;
    }
    .rank-text {
      font: 800 24px &apos;Segoe UI&apos;, Ubuntu, Sans-Serif; fill: #6e93b5;
      animation: scaleInAnimation 0.3s ease-in-out forwards;
    }
    
    .not_bold { font-weight: 400 }
    .bold { font-weight: 700 }
    .icon {
      fill: #38a0ff;
      display: block;
    }

    .rank-circle-rim {
      stroke: #bddfff;
      fill: none;
      stroke-width: 6;
      opacity: 0.2;
    }
    .rank-circle {
      stroke: #bddfff;
      stroke-dasharray: 250;
      fill: none;
      stroke-width: 6;
      stroke-linecap: round;
      opacity: 0.8;
      transform-origin: -10px 8px;
      transform: rotate(-90deg);
      animation: rankAnimation 1s forwards ease-in-out;
    }
    
    @keyframes rankAnimation {
      from {
        stroke-dashoffset: 251.32741228718345;
      }
      to {
        stroke-dashoffset: 123.80238780448322;
      }
    }
  
  

          
    /* Animations */
    @keyframes scaleInAnimation {
      from {
        transform: translate(-5px, 5px) scale(0);
      }
      to {
        transform: translate(-5px, 5px) scale(1);
      }
    }
    @keyframes fadeInAnimation {
      from {
        opacity: 0;
      }
      to {
        opacity: 1;
      }
    }.header {
            font: 600 18px &apos;Segoe UI&apos;, Ubuntu, Sans-Serif;
            fill: #c792ea;
            animation: fadeInAnimation 0.8s ease-in-out forwards;
          }
          @supports(-moz-appearance: auto) {
            /* Selector detects Firefox */
            .header { font-size: 15.5px; }
          }
          .lang-name { font: 400 11px &apos;Segoe UI&apos;, Ubuntu, Sans-Serif; fill: #7fdbca }

          
    /* Animations */
    @keyframes scaleInAnimation {
      from {
        transform: translate(-5px, 5px) scale(0);
      }
      to {
        transform: translate(-5px, 5px) scale(1);
      }
    }
    @keyframes fadeInAnimation {
      from {
        opacity: 0;
      }
      to {
        opacity: 1;
      }
    }
  
          * { animation-duration: 0s !important; animation-delay: 0s !important; }@keyframes MultiLanguageRankAnimation {
      from {
        width: 0px;
      }
      to {
        width: 80px;
      }
    }
    #MultiLanguage-rank-progress{
      animation: MultiLanguageRankAnimation 1s forwards ease-in-out;
    }@keyframes CommitsRankAnimation {
      from {
        width: 0px;
      }
      to {
        width: 1.6px;
      }
    }
    #Commits-rank-progress{
      animation: CommitsRankAnimation 1s forwards ease-in-out;
    }@keyframes StarsRankAnimation {
      from {
        width: 0px;
      }
      to {
        width: 70.4px;
      }
    }
    #Stars-rank-progress{
      animation: StarsRankAnimation 1s forwards ease-in-out;
    }@keyframes FollowersRankAnimation {
      from {
        width: 0px;
      }
      to {
        width: 30.4px;
      }
    }
    #Followers-rank-progress{
      animation: FollowersRankAnimation 1s forwards ease-in-out;
    }@keyframes RepositoriesRankAnimation {
      from {
        width: 0px;
      }
      to {
        width: 28px;
      }
    }
    #Repositories-rank-progress{
      animation: RepositoriesRankAnimation 1s forwards ease-in-out;
    }@keyframes ExperienceRankAnimation {
      from {
        width: 0px;
      }
      to {
        width: 11.428571428571427px;
      }
    }
    #Experience-rank-progress{
      animation: ExperienceRankAnimation 1s forwards ease-in-out;
    }@keyframes PullRequestRankAnimation {
      from {
        width: 0px;
      }
      to {
        width: 56px;
      }
    }
    #PullRequest-rank-progress{
      animation: PullRequestRankAnimation 1s forwards ease-in-out;
    }@keyframes ReviewsRankAnimation {
      from {
        width: 0px;
      }
      to {
        width: 16px;
      }
    }
    #Reviews-rank-progress{
      animation: ReviewsRankAnimation 1s forwards ease-in-out;
    }@keyframes IssuesRankAnimation {
      from {
        width: 0px;
      }
      to {
        width: 35.55555555555556px;
      }
    }
    #Issues-rank-progress{
      animation: IssuesRankAnimation 1s forwards ease-in-out;
    }@keyframes currstreak {
                0% { font-size: 3px; opacity: 0.2; }
                80% { font-size: 34px; opacity: 1; }
                100% { font-size: 28px; opacity: 1; }
            }
            @keyframes fadein {
                0% { opacity: 0; }
                100% { opacity: 1; }
            }</style><rect width="494" height="99%" x=".5" y=".5" fill="#172f45" stroke="#e4e2e2" stroke-opacity="1" data-testid="card-bg" rx="20"/><g data-testid="card-title" transform="translate(25 35)"><g><text x="0" y="0" class="header" data-testid="header">whiteSHADOW1234&apos;s GitHub Stats</text></g></g><g data-testid="main-card-body" transform="translate(0 55)"><g data-testid="rank-circle" transform="translate(400 47.5)"><circle cx="-10" cy="8" r="40" class="rank-circle-rim"/><circle cx="-10" cy="8" r="40" class="rank-circle"/><g class="rank-text"><text x="-5" y="3" alignment-baseline="central" dominant-baseline="central" text-anchor="middle">
            A+
          </text></g></g><svg x="0" y="0"><g><g class="stagger" style="animation-delay:450ms" transform="translate(25)"><svg width="16" height="16" class="icon" data-testid="icon" version="1.1" viewBox="0 0 16 16"><path fill-rule="evenodd" d="M8 .25a.75.75 0 01.673.418l1.882 3.815 4.21.612a.75.75 0 01.416 1.279l-3.046 2.97.719 4.192a.75.75 0 01-1.088.791L8 12.347l-3.766 1.98a.75.75 0 01-1.088-.79l.72-4.194L.818 6.374a.75.75 0 01.416-1.28l4.21-.611L7.327.668A.75.75 0 018 .25zm0 2.445L6.615 5.5a.75.75 0 01-.564.41l-3.097.45 2.24 2.184a.75.75 0 01.216.664l-.528 3.084 2.769-1.456a.75.75 0 01.698 0l2.77 1.456-.53-3.084a.75.75 0 01.216-.664l2.24-2.183-3.096-.45a.75.75 0 01-.564-.41L8 2.694v.001z"/></svg><text x="25" y="12.5" class="stat bold">Total Stars Earned:</text><text x="219.01" y="12.5" class="stat bold" data-testid="stars">94</text></g></g><g transform="translate(0 25)"><g class="stagger" style="animation-delay:600ms" transform="translate(25)"><svg width="16" height="16" class="icon" data-testid="icon" version="1.1" viewBox="0 0 16 16"><path fill-rule="evenodd" d="M1.643 3.143L.427 1.927A.25.25 0 000 2.104V5.75c0 .138.112.25.25.25h3.646a.25.25 0 00.177-.427L2.715 4.215a6.5 6.5 0 11-1.18 4.458.75.75 0 10-1.493.154 8.001 8.001 0 101.6-5.684zM7.75 4a.75.75 0 01.75.75v2.992l2.028.812a.75.75 0 01-.557 1.392l-2.5-1A.75.75 0 017 8.25v-3.5A.75.75 0 017.75 4z"/></svg><text x="25" y="12.5" class="stat bold">Total Commits (2025):</text><text x="219.01" y="12.5" class="stat bold" data-testid="commits">489</text></g></g><g transform="translate(0 50)"><g class="stagger" style="animation-delay:750ms" transform="translate(25)"><svg width="16" height="16" class="icon" data-testid="icon" version="1.1" viewBox="0 0 16 16"><path fill-rule="evenodd" d="M7.177 3.073L9.573.677A.25.25 0 0110 .854v4.792a.25.25 0 01-.427.177L7.177 3.427a.25.25 0 010-.354zM3.75 2.5a.75.75 0 100 1.5.75.75 0 000-1.5zm-2.25.75a2.25 2.25 0 113 2.122v5.256a2.251 2.251 0 11-1.5 0V5.372A2.25 2.25 0 011.5 3.25zM11 2.5h-1V4h1a1 1 0 011 1v5.628a2.251 2.251 0 101.5 0V5A2.5 2.5 0 0011 2.5zm1 10.25a.75.75 0 111.5 0 .75.75 0 01-1.5 0zM3.75 12a.75.75 0 100 1.5.75.75 0 000-1.5z"/></svg><text x="25" y="12.5" class="stat bold">Total PRs:</text><text x="219.01" y="12.5" class="stat bold" data-testid="prs">17</text></g></g><g transform="translate(0 75)"><g class="stagger" style="animation-delay:900ms" transform="translate(25)"><svg width="16" height="16" class="icon" data-testid="icon" version="1.1" viewBox="0 0 16 16"><path fill-rule="evenodd" d="M8 1.5a6.5 6.5 0 100 13 6.5 6.5 0 000-13zM0 8a8 8 0 1116 0A8 8 0 010 8zm9 3a1 1 0 11-2 0 1 1 0 012 0zm-.25-6.25a.75.75 0 00-1.5 0v3.5a.75.75 0 001.5 0v-3.5z"/></svg><text x="25" y="12.5" class="stat bold">Total Issues:</text><text x="219.01" y="12.5" class="stat bold" data-testid="issues">5</text></g></g><g transform="translate(0 100)"><g class="stagger" style="animation-delay:1050ms" transform="translate(25)"><svg width="16" height="16" class="icon" data-testid="icon" version="1.1" viewBox="0 0 16 16"><path fill-rule="evenodd" d="M2 2.5A2.5 2.5 0 014.5 0h8.75a.75.75 0 01.75.75v12.5a.75.75 0 01-.75.75h-2.5a.75.75 0 110-1.5h1.75v-2h-8a1 1 0 00-.714 1.7.75.75 0 01-1.072 1.05A2.495 2.495 0 012 11.5v-9zm10.5-1V9h-8c-.356 0-.694.074-1 .208V2.5a1 1 0 011-1h8zM5 12.25v3.25a.25.25 0 00.4.2l1.45-1.087a.25.25 0 01.3 0L8.6 15.7a.25.25 0 00.4-.2v-3.25a.25.25 0 00-.25-.25h-3.5a.25.25 0 00-.25.25z"/></svg><text x="25" y="12.5" class="stat bold">Contributed to (last year):</text><text x="219.01" y="12.5" class="stat bold" data-testid="contribs">3</text></g></g></svg></g></g><g fill="none" aria-labelledby="descId" role="img" transform="matrix(1.36 0 0 1.69286 423 -11)"><rect width="349" height="99%" x=".5" y=".5" fill="#011627" stroke="#e4e2e2" stroke-opacity="1" data-testid="card-bg" rx="20"/><g data-testid="card-title" transform="translate(25 35)"><g><text x="0" y="0" class="header" data-testid="header">Most Used Languages</text></g></g><g data-testid="main-card-body" transform="translate(0 55)"><svg x="25" data-testid="lang-items"><mask id="rect-mask"><rect width="300" height="8" x="0" y="0" fill="#fff" rx="5"/></mask><rect width="217.29" height="8" x="0" y="0" fill="#e4cc98" data-testid="lang-progress" mask="url(#rect-mask)"/><rect width="34.11" height="8" x="217.29" y="0" fill="#3572A5" data-testid="lang-progress" mask="url(#rect-mask)"/><rect width="24.71" height="8" x="251.4" y="0" fill="#f34b7d" data-testid="lang-progress" mask="url(#rect-mask)"/><rect width="23.9" height="8" x="276.11" y="0" fill="#00B4AB" data-testid="lang-progress" mask="url(#rect-mask)"/><g transform="translate(0 25)"><g><g><g><circle cx="5" cy="6" r="5" fill="#e4cc98"/><text x="15" y="10" class="lang-name" data-testid="lang-name">
        Tcl 72.43%
      </text></g></g><g transform="translate(0 25)"><g><circle cx="5" cy="6" r="5" fill="#3572A5"/><text x="15" y="10" class="lang-name" data-testid="lang-name">
        Python 11.37%
      </text></g></g></g><g transform="translate(150)"><g><g><circle cx="5" cy="6" r="5" fill="#f34b7d"/><text x="15" y="10" class="lang-name" data-testid="lang-name">
        C++ 8.24%
      </text></g></g><g transform="translate(0 25)"><g><circle cx="5" cy="6" r="5" fill="#00B4AB"/><text x="15" y="10" class="lang-name" data-testid="lang-name">
        Dart 7.97%
      </text></g></g></g></g></svg></g></g><defs><linearGradient id="item_bf3b060f1d4c4e7c8a287234f6567321_SECRET" gradientTransform="rotate(45)"><stop offset="0%" stop-color="#e06c75"/><stop offset="50%" stop-color="#c678dd"/><stop offset="100%" stop-color="#61afef"/></linearGradient><linearGradient id="item_bf3b060f1d4c4e7c8a287234f6567321_AAA" gradientTransform="rotate(45)"><stop offset="0%" stop-color="#56b6c2"/><stop offset="70%" stop-color="#56b6c2"/><stop offset="100%" stop-color="#56b6c2"/></linearGradient><linearGradient id="item_bf3b060f1d4c4e7c8a287234f6567321_AA" gradientTransform="rotate(45)"><stop offset="0%" stop-color="#56b6c2"/><stop offset="70%" stop-color="#56b6c2"/><stop offset="100%" stop-color="#56b6c2"/></linearGradient><linearGradient gradientTransform="rotate(45)"><stop offset="0%" stop-color="#56b6c2"/><stop offset="70%" stop-color="#56b6c2"/><stop offset="100%" stop-color="#56b6c2"/></linearGradient><linearGradient gradientTransform="rotate(45)"><stop offset="0%" stop-color="#56b6c2"/><stop offset="70%" stop-color="#56b6c2"/><stop offset="100%" stop-color="#56b6c2"/></linearGradient><linearGradient id="item_bf3b060f1d4c4e7c8a287234f6567321_A" gradientTransform="rotate(45)"><stop offset="0%" stop-color="#56b6c2"/><stop offset="70%" stop-color="#56b6c2"/><stop offset="100%" stop-color="#56b6c2"/></linearGradient><linearGradient id="item_bf3b060f1d4c4e7c8a287234f6567321_B" gradientTransform="rotate(45)"><stop offset="0%" stop-color="#c678dd"/><stop offset="70%" stop-color="#c678dd"/><stop offset="100%" stop-color="#c678dd"/></linearGradient><linearGradient gradientTransform="rotate(45)"><stop offset="0%" stop-color="#c678dd"/><stop offset="70%" stop-color="#c678dd"/><stop offset="100%" stop-color="#c678dd"/></linearGradient><linearGradient id="item_bf3b060f1d4c4e7c8a287234f6567321_C" gradientTransform="rotate(45)"><stop offset="0%" stop-color="#abb2bf"/><stop offset="50%" stop-color="#abb2bf"/><stop offset="100%" stop-color="#abb2bf"/></linearGradient><clipPath id="item_8e898692ced94874a2d210df2f969405_outer_rectangle"><rect width="495" height="195" rx="10"/></clipPath><mask id="item_8e898692ced94874a2d210df2f969405_mask_out_ring_behind_fire"><rect width="495" height="195" fill="#fff"/><ellipse id="mask-ellipse" cx="247.5" cy="32" fill="#000" rx="13" ry="18"/></mask></defs><g fill="none" transform="matrix(.93523 0 0 .8909 -2 214)"><svg xmlns="http://www.w3.org/2000/svg" width="110" height="110" x="0" y="0" fill="none" viewBox="0 0 110 110"><rect width="109" height="109" x=".5" y=".5" fill="#282c34" fill-opacity="1" stroke="#e1e4e8" stroke-opacity="1" rx="4.5"/><defs><linearGradient id="SECRET" gradientTransform="rotate(45)"><stop offset="0%" stop-color="#e06c75"/><stop offset="50%" stop-color="#c678dd"/><stop offset="100%" stop-color="#61afef"/></linearGradient></defs><svg xmlns="http://www.w3.org/2000/svg" width="100" height="100" x="28" y="20" fill="url(#item_bf3b060f1d4c4e7c8a287234f6567321_SECRET)" viewBox="0 0 30 30"><path d="M7 10h2v4H7v-4z"/><path d="M10 11c0 .552-.895 1-2 1s-2-.448-2-1 .895-1 2-1 2 .448 2 1z"/><path fill-rule="evenodd" d="M12.5 3a2 2 0 1 0 0 4 2 2 0 0 0 0-4zm-3 2a3 3 0 1 1 6 0 3 3 0 0 1-6 0zm-6-2a2 2 0 1 0 0 4 2 2 0 0 0 0-4zm-3 2a3 3 0 1 1 6 0 3 3 0 0 1-6 0z"/><path d="M3 1h10c-.495 3.467-.5 10-5 10S3.495 4.467 3 1zm0 15a1 1 0 0 1 1-1h8a1 1 0 0 1 1 1H3zm2-1a1 1 0 0 1 1-1h4a1 1 0 0 1 1 1H5z"/><circle cx="8" cy="6" r="4" fill="#FFF"/><text x="6" y="8" fill="#c678dd" font-family="Courier, Monospace" font-size="7">S</text></svg><text x="50%" y="18" fill="#e5c07b" font-family="Segoe UI,Helvetica,Arial,sans-serif,Apple Color Emoji,Segoe UI Emoji" font-size="13" font-weight="bold" text-anchor="middle">MultiLanguage</text><text x="50%" y="85" fill="#e06c75" font-family="Segoe UI,Helvetica,Arial,sans-serif,Apple Color Emoji,Segoe UI Emoji" font-size="10.5" font-weight="bold" text-anchor="middle">Rainbow Lang User</text><text x="50%" y="97" fill="#e06c75" font-family="Segoe UI,Helvetica,Arial,sans-serif,Apple Color Emoji,Segoe UI Emoji" font-size="10" font-weight="bold" text-anchor="middle">16pt</text><rect width="80" height="3.2" x="15" y="101" fill="#e5c07b" opacity=".3" rx="1"/><rect id="MultiLanguage-rank-progress" height="3.2" x="15" y="101" fill="#e5c07b" rx="1"/></svg><svg xmlns="http://www.w3.org/2000/svg" width="110" height="110" x="110" y="0" fill="none" viewBox="0 0 110 110"><rect width="109" height="109" x=".5" y=".5" fill="#282c34" fill-opacity="1" stroke="#e1e4e8" stroke-opacity="1" rx="4.5"/><svg xmlns="http://www.w3.org/2000/svg" width="120" height="120" preserveAspectRatio="xMidYMid meet" viewBox="0 0 100 100"><g fill="#98c379" stroke="none" transform="matrix(.004 0 0 -.004 20 60)"><path d="M200 5103 c0 -2 18 -40 41 -84 47 -95 62 -132 50 -125 -15 10 -18 -39 -6 -87 31 -121 265 -468 412 -608 124 -119 281 -222 383 -251 36 -10 49 -16 30 -13 -19 3 -78 12 -130 20 -117 17 -353 35 -477 35 l-93 0 53 -82 c72 -112 72 -112 59 -104 -18 11 -26 -41 -13 -84 25 -84 261 -376 404 -502 95 -83 222 -168 304 -205 98 -43 194 -73 242 -74 l46 -1 -45 -8 c-25 -5 -124 -21 -220 -36 -96 -15 -177 -29 -180 -31 -2 -2 0 -7 5 -11 27 -19 138 -144 123 -139 -18 6 -28 -10 -28 -47 0 -38 53 -108 141 -187 349 -313 631 -450 939 -453 63 0 131 2 150 7 19 4 -35 -17 -120 -46 -236 -82 -310 -110 -310 -117 0 -3 29 -28 65 -54 55 -40 102 -84 67 -62 -13 8 -32 -24 -32 -54 0 -99 486 -361 790 -426 125 -27 327 -25 444 4 113 28 261 98 309 145 39 40 56 92 38 124 -8 17 -4 24 29 49 22 16 40 32 40 36 0 4 -26 40 -58 80 -162 203 -368 328 -608 369 -89 15 -368 6 -474 -15 -131 -26 -147 -26 -59 -3 51 13 102 34 122 50 38 29 61 84 51 123 -5 18 1 26 25 39 17 8 31 19 31 23 0 4 -16 38 -35 75 -163 317 -424 501 -781 548 -113 15 -127 19 -91 30 51 14 84 58 89 118 1 20 9 33 20 37 23 7 23 6 -12 114 -108 329 -305 534 -640 662 -41 15 -59 25 -40 21 19 -5 82 -8 140 -8 81 0 113 4 142 18 39 20 73 76 65 107 -3 12 2 20 14 23 23 6 23 21 4 124 -61 320 -249 568 -544 718 -157 79 -394 147 -666 190 -88 13 -170 26 -182 29 -13 2 -23 2 -23 -1z"/><path d="M12550 5099 c-232 -36 -334 -55 -445 -84 -484 -122 -761 -346 -880 -712 -26 -79 -57 -242 -48 -255 2 -5 14 -8 26 -9 12 0 16 -3 10 -6 -17 -6 -16 -38 2 -72 25 -49 75 -66 200 -66 61 0 124 4 140 8 17 5 -13 -9 -66 -31 -136 -55 -250 -126 -341 -211 -128 -120 -217 -263 -272 -439 -32 -101 -32 -110 -3 -122 12 -5 17 -9 11 -9 -8 -1 -9 -12 -5 -34 15 -66 41 -95 94 -107 31 -7 31 -7 7 -12 -14 -3 -72 -13 -130 -22 -322 -51 -553 -206 -714 -479 -25 -42 -52 -92 -60 -111 -14 -33 -14 -33 23 -54 20 -12 31 -22 26 -22 -15 0 -17 -39 -4 -78 14 -42 76 -88 130 -97 22 -4 39 -9 36 -11 -2 -2 -55 3 -118 12 -154 22 -395 15 -494 -13 -216 -62 -391 -184 -545 -380 l-41 -52 40 -32 c34 -27 39 -35 30 -51 -17 -33 -1 -85 38 -125 48 -47 196 -117 309 -145 117 -29 319 -31 444 -4 300 64 790 328 790 425 0 29 -18 63 -31 56 -5 -4 -9 -4 -9 -2 0 3 34 29 75 59 41 29 75 56 75 59 0 3 -21 13 -47 22 -349 120 -422 146 -388 140 59 -12 241 -8 310 6 208 43 437 158 636 322 241 199 314 293 265 342 -13 12 -6 24 51 86 36 40 64 73 62 75 -4 2 -107 20 -359 60 -70 12 -77 14 -39 15 48 1 144 31 241 74 139 62 318 202 451 352 104 117 225 279 249 333 21 47 21 99 0 94 -16 -3 -10 9 58 116 l50 77 -72 3 c-91 4 -362 -14 -488 -33 -179 -26 -179 -26 -116 -9 93 26 244 120 365 230 193 174 467 605 443 696 -2 10 -8 15 -13 12 -12 -7 3 30 51 126 23 45 40 85 38 89 -2 4 -23 4 -48 0z m-933 -1185 c-3 -3 -12 -4 -19 -1 -8 3 -5 6 6 6 11 1 17 -2 13 -5z m-1290 -1860 c-3 -3 -12 -4 -19 -1 -8 3 -5 6 6 6 11 1 17 -2 13 -5z m40 -10 c-3 -3 -12 -4 -19 -1 -8 3 -5 6 6 6 11 1 17 -2 13 -5z"/><path d="M10242 4632 c-46 -140 -92 -319 -118 -457 -18 -94 -28 -519 -12 -509 4 3 5 -8 2 -25 -8 -40 21 -179 58 -274 75 -195 297 -437 400 -437 57 0 124 70 177 185 53 112 67 224 65 510 -1 120 -5 166 -23 233 -66 252 -206 515 -423 795 -39 51 -74 95 -77 99 -4 4 -26 -50 -49 -120z"/><path d="M2407 4612 c-305 -408 -443 -757 -422 -1067 3 -55 8 -140 10 -190 5 -113 30 -204 83 -293 44 -74 88 -118 128 -128 102 -26 339 218 422 433 34 87 67 235 58 258 -3 9 -1 39 5 68 5 28 10 117 10 197 1 155 -15 284 -57 455 -33 137 -117 405 -126 405 -5 0 -55 -62 -111 -138z"/><path d="M2970 3839 c-189 -385 -254 -632 -248 -941 2 -86 6 -151 10 -145 5 7 5 -2 2 -19 -19 -98 77 -354 181 -487 76 -96 141 -120 210 -77 70 43 195 240 239 375 20 63 46 197 40 207 -3 4 0 54 6 111 26 257 -51 553 -240 922 -42 83 -87 165 -98 184 l-21 35 -81 -165z"/><path d="M9711 3929 c-124 -219 -230 -466 -276 -642 -39 -151 -47 -234 -41 -426 7 -237 39 -357 136 -517 136 -225 233 -251 355 -97 94 121 171 313 181 453 2 36 8 111 13 167 26 288 -56 600 -266 1017 l-60 120 -42 -75z"/><path d="M3645 3278 c-2 -7 -14 -78 -27 -158 -19 -123 -22 -188 -23 -430 -2 -309 7 -401 50 -555 66 -232 204 -430 388 -552 120 -80 189 -70 245 34 36 69 74 205 78 283 1 30 5 109 9 175 9 135 -1 213 -41 339 -66 208 -198 406 -429 645 -147 152 -244 237 -250 219z"/><path d="M8994 3143 c-289 -284 -435 -492 -514 -732 -32 -100 -55 -261 -45 -330 3 -25 8 -91 10 -146 7 -168 66 -347 129 -387 77 -48 196 11 347 170 94 98 156 199 205 331 37 99 67 234 59 262 -4 11 -2 19 5 19 8 0 10 8 7 21 -3 11 1 77 10 147 10 89 13 172 9 277 -7 191 -48 515 -65 515 -3 0 -74 -66 -157 -147z"/><path d="M4501 2358 c52 -129 69 -179 59 -173 -6 4 -10 -12 -10 -42 0 -78 115 -313 252 -514 215 -317 529 -509 832 -509 124 0 166 27 180 112 1 11 8 23 15 27 10 7 11 27 2 98 -66 545 -401 836 -1164 1012 -97 23 -179 41 -182 41 -3 0 5 -24 16 -52z"/><path d="M8159 2375 c-609 -138 -940 -344 -1096 -683 -59 -127 -110 -377 -88 -429 5 -10 10 -29 12 -42 13 -75 59 -101 179 -101 316 0 625 196 854 543 110 165 222 395 228 465 3 40 2 53 -7 48 -11 -7 -3 15 53 153 28 68 31 81 19 80 -5 0 -74 -16 -154 -34z"/><path d="M4032 1479 c-193 -25 -435 -124 -667 -274 -108 -69 -314 -218 -315 -226 0 -4 28 -16 63 -29 66 -24 92 -40 65 -40 -10 0 -19 -12 -23 -30 -14 -65 45 -105 226 -154 572 -155 982 -93 1270 194 75 74 101 131 81 174 -9 21 -6 31 29 77 21 29 39 55 39 58 0 3 -25 24 -55 46 -229 167 -469 236 -713 204z"/><path d="M8513 1476 c-155 -30 -317 -101 -446 -196 l-67 -50 40 -54 c37 -49 40 -56 29 -80 -21 -46 4 -101 80 -176 288 -287 698 -349 1270 -194 180 49 240 89 226 153 -3 16 -14 31 -23 33 -9 2 18 18 61 35 l79 30 -126 92 c-304 223 -550 347 -780 395 -113 23 -257 28 -343 12z"/><path d="M6324 1249 c-48 -14 -120 -83 -139 -134 -13 -34 -16 -60 -11 -112 4 -37 6 -84 6 -103 -2 -95 62 -193 145 -220 138 -46 285 52 292 195 1 28 8 71 14 97 10 37 10 60 0 101 -31 139 -167 217 -307 176z"/><path d="M5255 1054 c-276 -46 -587 -227 -935 -541 l-54 -50 74 -23 c41 -13 67 -25 58 -27 -23 -6 -34 -48 -20 -78 16 -35 75 -61 188 -84 568 -115 968 -37 1250 243 69 69 110 130 114 171 5 42 0 66 -12 59 -12 -8 -12 -7 39 73 18 29 33 56 33 62 0 15 -49 46 -147 95 -207 104 -386 135 -588 100z"/><path d="M7249 1054 c-42 -7 -109 -25 -150 -40 -76 -27 -226 -101 -267 -133 l-24 -18 41 -66 c22 -37 36 -67 31 -67 -18 0 -11 -80 11 -121 11 -22 53 -73 92 -113 279 -282 682 -361 1251 -245 113 23 172 49 188 84 14 30 3 72 -20 77 -9 3 18 15 61 29 l78 24 -93 81 c-362 313 -622 460 -902 509 -106 18 -194 18 -297 -1z"/></g></svg><svg xmlns="http://www.w3.org/2000/svg" width="65" height="65" x="7" y="35" fill="#56b6c2" viewBox="0 0 30 30"><path d="M7 10h2v4H7v-4z"/><path d="M10 11c0 .552-.895 1-2 1s-2-.448-2-1 .895-1 2-1 2 .448 2 1z"/><path fill-rule="evenodd" d="M12.5 3a2 2 0 1 0 0 4 2 2 0 0 0 0-4zm-3 2a3 3 0 1 1 6 0 3 3 0 0 1-6 0zm-6-2a2 2 0 1 0 0 4 2 2 0 0 0 0-4zm-3 2a3 3 0 1 1 6 0 3 3 0 0 1-6 0z"/><path d="M3 1h10c-.495 3.467-.5 10-5 10S3.495 4.467 3 1zm0 15a1 1 0 0 1 1-1h8a1 1 0 0 1 1 1H3zm2-1a1 1 0 0 1 1-1h4a1 1 0 0 1 1 1H5z"/><circle cx="8" cy="6" r="4" fill="#FFF"/><text x="6" y="8" fill="#282c34" font-family="Courier, Monospace" font-size="7">A</text></svg><svg xmlns="http://www.w3.org/2000/svg" width="65" height="65" x="68" y="35" fill="#56b6c2" viewBox="0 0 30 30"><path d="M7 10h2v4H7v-4z"/><path d="M10 11c0 .552-.895 1-2 1s-2-.448-2-1 .895-1 2-1 2 .448 2 1z"/><path fill-rule="evenodd" d="M12.5 3a2 2 0 1 0 0 4 2 2 0 0 0 0-4zm-3 2a3 3 0 1 1 6 0 3 3 0 0 1-6 0zm-6-2a2 2 0 1 0 0 4 2 2 0 0 0 0-4zm-3 2a3 3 0 1 1 6 0 3 3 0 0 1-6 0z"/><path d="M3 1h10c-.495 3.467-.5 10-5 10S3.495 4.467 3 1zm0 15a1 1 0 0 1 1-1h8a1 1 0 0 1 1 1H3zm2-1a1 1 0 0 1 1-1h4a1 1 0 0 1 1 1H5z"/><circle cx="8" cy="6" r="4" fill="#FFF"/><text x="6" y="8" fill="#282c34" font-family="Courier, Monospace" font-size="7">A</text></svg><defs><linearGradient id="AAA" gradientTransform="rotate(45)"><stop offset="0%" stop-color="#56b6c2"/><stop offset="70%" stop-color="#56b6c2"/><stop offset="100%" stop-color="#56b6c2"/></linearGradient></defs><svg xmlns="http://www.w3.org/2000/svg" width="100" height="100" x="28" y="20" fill="url(#item_bf3b060f1d4c4e7c8a287234f6567321_AAA)" viewBox="0 0 30 30"><path d="M7 10h2v4H7v-4z"/><path d="M10 11c0 .552-.895 1-2 1s-2-.448-2-1 .895-1 2-1 2 .448 2 1z"/><path fill-rule="evenodd" d="M12.5 3a2 2 0 1 0 0 4 2 2 0 0 0 0-4zm-3 2a3 3 0 1 1 6 0 3 3 0 0 1-6 0zm-6-2a2 2 0 1 0 0 4 2 2 0 0 0 0-4zm-3 2a3 3 0 1 1 6 0 3 3 0 0 1-6 0z"/><path d="M3 1h10c-.495 3.467-.5 10-5 10S3.495 4.467 3 1zm0 15a1 1 0 0 1 1-1h8a1 1 0 0 1 1 1H3zm2-1a1 1 0 0 1 1-1h4a1 1 0 0 1 1 1H5z"/><circle cx="8" cy="6" r="4" fill="#FFF"/><text x="6" y="8" fill="#282c34" font-family="Courier, Monospace" font-size="7">A</text></svg><text x="50%" y="18" fill="#e5c07b" font-family="Segoe UI,Helvetica,Arial,sans-serif,Apple Color Emoji,Segoe UI Emoji" font-size="13" font-weight="bold" text-anchor="middle">Commits</text><text x="50%" y="85" fill="#e06c75" font-family="Segoe UI,Helvetica,Arial,sans-serif,Apple Color Emoji,Segoe UI Emoji" font-size="10.5" font-weight="bold" text-anchor="middle">Ultra Committer</text><text x="50%" y="97" fill="#e06c75" font-family="Segoe UI,Helvetica,Arial,sans-serif,Apple Color Emoji,Segoe UI Emoji" font-size="10" font-weight="bold" text-anchor="middle">510pt</text><rect width="80" height="3.2" x="15" y="101" fill="#e5c07b" opacity=".3" rx="1"/><rect id="Commits-rank-progress" height="3.2" x="15" y="101" fill="#e5c07b" rx="1"/></svg><svg xmlns="http://www.w3.org/2000/svg" width="110" height="110" x="220" y="0" fill="none" viewBox="0 0 110 110"><rect width="109" height="109" x=".5" y=".5" fill="#282c34" fill-opacity="1" stroke="#e1e4e8" stroke-opacity="1" rx="4.5"/><svg xmlns="http://www.w3.org/2000/svg" width="120" height="120" preserveAspectRatio="xMidYMid meet" viewBox="0 0 100 100"><g fill="#98c379" stroke="none" transform="matrix(.004 0 0 -.004 20 60)"><path d="M200 5103 c0 -2 18 -40 41 -84 47 -95 62 -132 50 -125 -15 10 -18 -39 -6 -87 31 -121 265 -468 412 -608 124 -119 281 -222 383 -251 36 -10 49 -16 30 -13 -19 3 -78 12 -130 20 -117 17 -353 35 -477 35 l-93 0 53 -82 c72 -112 72 -112 59 -104 -18 11 -26 -41 -13 -84 25 -84 261 -376 404 -502 95 -83 222 -168 304 -205 98 -43 194 -73 242 -74 l46 -1 -45 -8 c-25 -5 -124 -21 -220 -36 -96 -15 -177 -29 -180 -31 -2 -2 0 -7 5 -11 27 -19 138 -144 123 -139 -18 6 -28 -10 -28 -47 0 -38 53 -108 141 -187 349 -313 631 -450 939 -453 63 0 131 2 150 7 19 4 -35 -17 -120 -46 -236 -82 -310 -110 -310 -117 0 -3 29 -28 65 -54 55 -40 102 -84 67 -62 -13 8 -32 -24 -32 -54 0 -99 486 -361 790 -426 125 -27 327 -25 444 4 113 28 261 98 309 145 39 40 56 92 38 124 -8 17 -4 24 29 49 22 16 40 32 40 36 0 4 -26 40 -58 80 -162 203 -368 328 -608 369 -89 15 -368 6 -474 -15 -131 -26 -147 -26 -59 -3 51 13 102 34 122 50 38 29 61 84 51 123 -5 18 1 26 25 39 17 8 31 19 31 23 0 4 -16 38 -35 75 -163 317 -424 501 -781 548 -113 15 -127 19 -91 30 51 14 84 58 89 118 1 20 9 33 20 37 23 7 23 6 -12 114 -108 329 -305 534 -640 662 -41 15 -59 25 -40 21 19 -5 82 -8 140 -8 81 0 113 4 142 18 39 20 73 76 65 107 -3 12 2 20 14 23 23 6 23 21 4 124 -61 320 -249 568 -544 718 -157 79 -394 147 -666 190 -88 13 -170 26 -182 29 -13 2 -23 2 -23 -1z"/><path d="M12550 5099 c-232 -36 -334 -55 -445 -84 -484 -122 -761 -346 -880 -712 -26 -79 -57 -242 -48 -255 2 -5 14 -8 26 -9 12 0 16 -3 10 -6 -17 -6 -16 -38 2 -72 25 -49 75 -66 200 -66 61 0 124 4 140 8 17 5 -13 -9 -66 -31 -136 -55 -250 -126 -341 -211 -128 -120 -217 -263 -272 -439 -32 -101 -32 -110 -3 -122 12 -5 17 -9 11 -9 -8 -1 -9 -12 -5 -34 15 -66 41 -95 94 -107 31 -7 31 -7 7 -12 -14 -3 -72 -13 -130 -22 -322 -51 -553 -206 -714 -479 -25 -42 -52 -92 -60 -111 -14 -33 -14 -33 23 -54 20 -12 31 -22 26 -22 -15 0 -17 -39 -4 -78 14 -42 76 -88 130 -97 22 -4 39 -9 36 -11 -2 -2 -55 3 -118 12 -154 22 -395 15 -494 -13 -216 -62 -391 -184 -545 -380 l-41 -52 40 -32 c34 -27 39 -35 30 -51 -17 -33 -1 -85 38 -125 48 -47 196 -117 309 -145 117 -29 319 -31 444 -4 300 64 790 328 790 425 0 29 -18 63 -31 56 -5 -4 -9 -4 -9 -2 0 3 34 29 75 59 41 29 75 56 75 59 0 3 -21 13 -47 22 -349 120 -422 146 -388 140 59 -12 241 -8 310 6 208 43 437 158 636 322 241 199 314 293 265 342 -13 12 -6 24 51 86 36 40 64 73 62 75 -4 2 -107 20 -359 60 -70 12 -77 14 -39 15 48 1 144 31 241 74 139 62 318 202 451 352 104 117 225 279 249 333 21 47 21 99 0 94 -16 -3 -10 9 58 116 l50 77 -72 3 c-91 4 -362 -14 -488 -33 -179 -26 -179 -26 -116 -9 93 26 244 120 365 230 193 174 467 605 443 696 -2 10 -8 15 -13 12 -12 -7 3 30 51 126 23 45 40 85 38 89 -2 4 -23 4 -48 0z m-933 -1185 c-3 -3 -12 -4 -19 -1 -8 3 -5 6 6 6 11 1 17 -2 13 -5z m-1290 -1860 c-3 -3 -12 -4 -19 -1 -8 3 -5 6 6 6 11 1 17 -2 13 -5z m40 -10 c-3 -3 -12 -4 -19 -1 -8 3 -5 6 6 6 11 1 17 -2 13 -5z"/><path d="M10242 4632 c-46 -140 -92 -319 -118 -457 -18 -94 -28 -519 -12 -509 4 3 5 -8 2 -25 -8 -40 21 -179 58 -274 75 -195 297 -437 400 -437 57 0 124 70 177 185 53 112 67 224 65 510 -1 120 -5 166 -23 233 -66 252 -206 515 -423 795 -39 51 -74 95 -77 99 -4 4 -26 -50 -49 -120z"/><path d="M2407 4612 c-305 -408 -443 -757 -422 -1067 3 -55 8 -140 10 -190 5 -113 30 -204 83 -293 44 -74 88 -118 128 -128 102 -26 339 218 422 433 34 87 67 235 58 258 -3 9 -1 39 5 68 5 28 10 117 10 197 1 155 -15 284 -57 455 -33 137 -117 405 -126 405 -5 0 -55 -62 -111 -138z"/><path d="M2970 3839 c-189 -385 -254 -632 -248 -941 2 -86 6 -151 10 -145 5 7 5 -2 2 -19 -19 -98 77 -354 181 -487 76 -96 141 -120 210 -77 70 43 195 240 239 375 20 63 46 197 40 207 -3 4 0 54 6 111 26 257 -51 553 -240 922 -42 83 -87 165 -98 184 l-21 35 -81 -165z"/><path d="M9711 3929 c-124 -219 -230 -466 -276 -642 -39 -151 -47 -234 -41 -426 7 -237 39 -357 136 -517 136 -225 233 -251 355 -97 94 121 171 313 181 453 2 36 8 111 13 167 26 288 -56 600 -266 1017 l-60 120 -42 -75z"/><path d="M3645 3278 c-2 -7 -14 -78 -27 -158 -19 -123 -22 -188 -23 -430 -2 -309 7 -401 50 -555 66 -232 204 -430 388 -552 120 -80 189 -70 245 34 36 69 74 205 78 283 1 30 5 109 9 175 9 135 -1 213 -41 339 -66 208 -198 406 -429 645 -147 152 -244 237 -250 219z"/><path d="M8994 3143 c-289 -284 -435 -492 -514 -732 -32 -100 -55 -261 -45 -330 3 -25 8 -91 10 -146 7 -168 66 -347 129 -387 77 -48 196 11 347 170 94 98 156 199 205 331 37 99 67 234 59 262 -4 11 -2 19 5 19 8 0 10 8 7 21 -3 11 1 77 10 147 10 89 13 172 9 277 -7 191 -48 515 -65 515 -3 0 -74 -66 -157 -147z"/><path d="M4501 2358 c52 -129 69 -179 59 -173 -6 4 -10 -12 -10 -42 0 -78 115 -313 252 -514 215 -317 529 -509 832 -509 124 0 166 27 180 112 1 11 8 23 15 27 10 7 11 27 2 98 -66 545 -401 836 -1164 1012 -97 23 -179 41 -182 41 -3 0 5 -24 16 -52z"/><path d="M8159 2375 c-609 -138 -940 -344 -1096 -683 -59 -127 -110 -377 -88 -429 5 -10 10 -29 12 -42 13 -75 59 -101 179 -101 316 0 625 196 854 543 110 165 222 395 228 465 3 40 2 53 -7 48 -11 -7 -3 15 53 153 28 68 31 81 19 80 -5 0 -74 -16 -154 -34z"/><path d="M4032 1479 c-193 -25 -435 -124 -667 -274 -108 -69 -314 -218 -315 -226 0 -4 28 -16 63 -29 66 -24 92 -40 65 -40 -10 0 -19 -12 -23 -30 -14 -65 45 -105 226 -154 572 -155 982 -93 1270 194 75 74 101 131 81 174 -9 21 -6 31 29 77 21 29 39 55 39 58 0 3 -25 24 -55 46 -229 167 -469 236 -713 204z"/><path d="M8513 1476 c-155 -30 -317 -101 -446 -196 l-67 -50 40 -54 c37 -49 40 -56 29 -80 -21 -46 4 -101 80 -176 288 -287 698 -349 1270 -194 180 49 240 89 226 153 -3 16 -14 31 -23 33 -9 2 18 18 61 35 l79 30 -126 92 c-304 223 -550 347 -780 395 -113 23 -257 28 -343 12z"/><path d="M6324 1249 c-48 -14 -120 -83 -139 -134 -13 -34 -16 -60 -11 -112 4 -37 6 -84 6 -103 -2 -95 62 -193 145 -220 138 -46 285 52 292 195 1 28 8 71 14 97 10 37 10 60 0 101 -31 139 -167 217 -307 176z"/><path d="M5255 1054 c-276 -46 -587 -227 -935 -541 l-54 -50 74 -23 c41 -13 67 -25 58 -27 -23 -6 -34 -48 -20 -78 16 -35 75 -61 188 -84 568 -115 968 -37 1250 243 69 69 110 130 114 171 5 42 0 66 -12 59 -12 -8 -12 -7 39 73 18 29 33 56 33 62 0 15 -49 46 -147 95 -207 104 -386 135 -588 100z"/><path d="M7249 1054 c-42 -7 -109 -25 -150 -40 -76 -27 -226 -101 -267 -133 l-24 -18 41 -66 c22 -37 36 -67 31 -67 -18 0 -11 -80 11 -121 11 -22 53 -73 92 -113 279 -282 682 -361 1251 -245 113 23 172 49 188 84 14 30 3 72 -20 77 -9 3 18 15 61 29 l78 24 -93 81 c-362 313 -622 460 -902 509 -106 18 -194 18 -297 -1z"/></g></svg><svg xmlns="http://www.w3.org/2000/svg" width="65" height="65" x="68" y="35" fill="#56b6c2" viewBox="0 0 30 30"><path d="M7 10h2v4H7v-4z"/><path d="M10 11c0 .552-.895 1-2 1s-2-.448-2-1 .895-1 2-1 2 .448 2 1z"/><path fill-rule="evenodd" d="M12.5 3a2 2 0 1 0 0 4 2 2 0 0 0 0-4zm-3 2a3 3 0 1 1 6 0 3 3 0 0 1-6 0zm-6-2a2 2 0 1 0 0 4 2 2 0 0 0 0-4zm-3 2a3 3 0 1 1 6 0 3 3 0 0 1-6 0z"/><path d="M3 1h10c-.495 3.467-.5 10-5 10S3.495 4.467 3 1zm0 15a1 1 0 0 1 1-1h8a1 1 0 0 1 1 1H3zm2-1a1 1 0 0 1 1-1h4a1 1 0 0 1 1 1H5z"/><circle cx="8" cy="6" r="4" fill="#FFF"/><text x="6" y="8" fill="#282c34" font-family="Courier, Monospace" font-size="7">A</text></svg><defs><linearGradient id="AA" gradientTransform="rotate(45)"><stop offset="0%" stop-color="#56b6c2"/><stop offset="70%" stop-color="#56b6c2"/><stop offset="100%" stop-color="#56b6c2"/></linearGradient></defs><svg xmlns="http://www.w3.org/2000/svg" width="100" height="100" x="28" y="20" fill="url(#item_bf3b060f1d4c4e7c8a287234f6567321_AA)" viewBox="0 0 30 30"><path d="M7 10h2v4H7v-4z"/><path d="M10 11c0 .552-.895 1-2 1s-2-.448-2-1 .895-1 2-1 2 .448 2 1z"/><path fill-rule="evenodd" d="M12.5 3a2 2 0 1 0 0 4 2 2 0 0 0 0-4zm-3 2a3 3 0 1 1 6 0 3 3 0 0 1-6 0zm-6-2a2 2 0 1 0 0 4 2 2 0 0 0 0-4zm-3 2a3 3 0 1 1 6 0 3 3 0 0 1-6 0z"/><path d="M3 1h10c-.495 3.467-.5 10-5 10S3.495 4.467 3 1zm0 15a1 1 0 0 1 1-1h8a1 1 0 0 1 1 1H3zm2-1a1 1 0 0 1 1-1h4a1 1 0 0 1 1 1H5z"/><circle cx="8" cy="6" r="4" fill="#FFF"/><text x="6" y="8" fill="#282c34" font-family="Courier, Monospace" font-size="7">A</text></svg><text x="50%" y="18" fill="#e5c07b" font-family="Segoe UI,Helvetica,Arial,sans-serif,Apple Color Emoji,Segoe UI Emoji" font-size="13" font-weight="bold" text-anchor="middle">Stars</text><text x="50%" y="85" fill="#e06c75" font-family="Segoe UI,Helvetica,Arial,sans-serif,Apple Color Emoji,Segoe UI Emoji" font-size="10.5" font-weight="bold" text-anchor="middle">High Star</text><text x="50%" y="97" fill="#e06c75" font-family="Segoe UI,Helvetica,Arial,sans-serif,Apple Color Emoji,Segoe UI Emoji" font-size="10" font-weight="bold" text-anchor="middle">94pt</text><rect width="80" height="3.2" x="15" y="101" fill="#e5c07b" opacity=".3" rx="1"/><rect id="Stars-rank-progress" height="3.2" x="15" y="101" fill="#e5c07b" rx="1"/></svg><svg xmlns="http://www.w3.org/2000/svg" width="110" height="110" x="330" y="0" fill="none" viewBox="0 0 110 110"><rect width="109" height="109" x=".5" y=".5" fill="#282c34" fill-opacity="1" stroke="#e1e4e8" stroke-opacity="1" rx="4.5"/><svg xmlns="http://www.w3.org/2000/svg" width="120" height="120" preserveAspectRatio="xMidYMid meet" viewBox="0 0 100 100"><g fill="#98c379" stroke="none" transform="matrix(.004 0 0 -.004 20 60)"><path d="M200 5103 c0 -2 18 -40 41 -84 47 -95 62 -132 50 -125 -15 10 -18 -39 -6 -87 31 -121 265 -468 412 -608 124 -119 281 -222 383 -251 36 -10 49 -16 30 -13 -19 3 -78 12 -130 20 -117 17 -353 35 -477 35 l-93 0 53 -82 c72 -112 72 -112 59 -104 -18 11 -26 -41 -13 -84 25 -84 261 -376 404 -502 95 -83 222 -168 304 -205 98 -43 194 -73 242 -74 l46 -1 -45 -8 c-25 -5 -124 -21 -220 -36 -96 -15 -177 -29 -180 -31 -2 -2 0 -7 5 -11 27 -19 138 -144 123 -139 -18 6 -28 -10 -28 -47 0 -38 53 -108 141 -187 349 -313 631 -450 939 -453 63 0 131 2 150 7 19 4 -35 -17 -120 -46 -236 -82 -310 -110 -310 -117 0 -3 29 -28 65 -54 55 -40 102 -84 67 -62 -13 8 -32 -24 -32 -54 0 -99 486 -361 790 -426 125 -27 327 -25 444 4 113 28 261 98 309 145 39 40 56 92 38 124 -8 17 -4 24 29 49 22 16 40 32 40 36 0 4 -26 40 -58 80 -162 203 -368 328 -608 369 -89 15 -368 6 -474 -15 -131 -26 -147 -26 -59 -3 51 13 102 34 122 50 38 29 61 84 51 123 -5 18 1 26 25 39 17 8 31 19 31 23 0 4 -16 38 -35 75 -163 317 -424 501 -781 548 -113 15 -127 19 -91 30 51 14 84 58 89 118 1 20 9 33 20 37 23 7 23 6 -12 114 -108 329 -305 534 -640 662 -41 15 -59 25 -40 21 19 -5 82 -8 140 -8 81 0 113 4 142 18 39 20 73 76 65 107 -3 12 2 20 14 23 23 6 23 21 4 124 -61 320 -249 568 -544 718 -157 79 -394 147 -666 190 -88 13 -170 26 -182 29 -13 2 -23 2 -23 -1z"/><path d="M12550 5099 c-232 -36 -334 -55 -445 -84 -484 -122 -761 -346 -880 -712 -26 -79 -57 -242 -48 -255 2 -5 14 -8 26 -9 12 0 16 -3 10 -6 -17 -6 -16 -38 2 -72 25 -49 75 -66 200 -66 61 0 124 4 140 8 17 5 -13 -9 -66 -31 -136 -55 -250 -126 -341 -211 -128 -120 -217 -263 -272 -439 -32 -101 -32 -110 -3 -122 12 -5 17 -9 11 -9 -8 -1 -9 -12 -5 -34 15 -66 41 -95 94 -107 31 -7 31 -7 7 -12 -14 -3 -72 -13 -130 -22 -322 -51 -553 -206 -714 -479 -25 -42 -52 -92 -60 -111 -14 -33 -14 -33 23 -54 20 -12 31 -22 26 -22 -15 0 -17 -39 -4 -78 14 -42 76 -88 130 -97 22 -4 39 -9 36 -11 -2 -2 -55 3 -118 12 -154 22 -395 15 -494 -13 -216 -62 -391 -184 -545 -380 l-41 -52 40 -32 c34 -27 39 -35 30 -51 -17 -33 -1 -85 38 -125 48 -47 196 -117 309 -145 117 -29 319 -31 444 -4 300 64 790 328 790 425 0 29 -18 63 -31 56 -5 -4 -9 -4 -9 -2 0 3 34 29 75 59 41 29 75 56 75 59 0 3 -21 13 -47 22 -349 120 -422 146 -388 140 59 -12 241 -8 310 6 208 43 437 158 636 322 241 199 314 293 265 342 -13 12 -6 24 51 86 36 40 64 73 62 75 -4 2 -107 20 -359 60 -70 12 -77 14 -39 15 48 1 144 31 241 74 139 62 318 202 451 352 104 117 225 279 249 333 21 47 21 99 0 94 -16 -3 -10 9 58 116 l50 77 -72 3 c-91 4 -362 -14 -488 -33 -179 -26 -179 -26 -116 -9 93 26 244 120 365 230 193 174 467 605 443 696 -2 10 -8 15 -13 12 -12 -7 3 30 51 126 23 45 40 85 38 89 -2 4 -23 4 -48 0z m-933 -1185 c-3 -3 -12 -4 -19 -1 -8 3 -5 6 6 6 11 1 17 -2 13 -5z m-1290 -1860 c-3 -3 -12 -4 -19 -1 -8 3 -5 6 6 6 11 1 17 -2 13 -5z m40 -10 c-3 -3 -12 -4 -19 -1 -8 3 -5 6 6 6 11 1 17 -2 13 -5z"/><path d="M10242 4632 c-46 -140 -92 -319 -118 -457 -18 -94 -28 -519 -12 -509 4 3 5 -8 2 -25 -8 -40 21 -179 58 -274 75 -195 297 -437 400 -437 57 0 124 70 177 185 53 112 67 224 65 510 -1 120 -5 166 -23 233 -66 252 -206 515 -423 795 -39 51 -74 95 -77 99 -4 4 -26 -50 -49 -120z"/><path d="M2407 4612 c-305 -408 -443 -757 -422 -1067 3 -55 8 -140 10 -190 5 -113 30 -204 83 -293 44 -74 88 -118 128 -128 102 -26 339 218 422 433 34 87 67 235 58 258 -3 9 -1 39 5 68 5 28 10 117 10 197 1 155 -15 284 -57 455 -33 137 -117 405 -126 405 -5 0 -55 -62 -111 -138z"/><path d="M2970 3839 c-189 -385 -254 -632 -248 -941 2 -86 6 -151 10 -145 5 7 5 -2 2 -19 -19 -98 77 -354 181 -487 76 -96 141 -120 210 -77 70 43 195 240 239 375 20 63 46 197 40 207 -3 4 0 54 6 111 26 257 -51 553 -240 922 -42 83 -87 165 -98 184 l-21 35 -81 -165z"/><path d="M9711 3929 c-124 -219 -230 -466 -276 -642 -39 -151 -47 -234 -41 -426 7 -237 39 -357 136 -517 136 -225 233 -251 355 -97 94 121 171 313 181 453 2 36 8 111 13 167 26 288 -56 600 -266 1017 l-60 120 -42 -75z"/><path d="M3645 3278 c-2 -7 -14 -78 -27 -158 -19 -123 -22 -188 -23 -430 -2 -309 7 -401 50 -555 66 -232 204 -430 388 -552 120 -80 189 -70 245 34 36 69 74 205 78 283 1 30 5 109 9 175 9 135 -1 213 -41 339 -66 208 -198 406 -429 645 -147 152 -244 237 -250 219z"/><path d="M8994 3143 c-289 -284 -435 -492 -514 -732 -32 -100 -55 -261 -45 -330 3 -25 8 -91 10 -146 7 -168 66 -347 129 -387 77 -48 196 11 347 170 94 98 156 199 205 331 37 99 67 234 59 262 -4 11 -2 19 5 19 8 0 10 8 7 21 -3 11 1 77 10 147 10 89 13 172 9 277 -7 191 -48 515 -65 515 -3 0 -74 -66 -157 -147z"/><path d="M4501 2358 c52 -129 69 -179 59 -173 -6 4 -10 -12 -10 -42 0 -78 115 -313 252 -514 215 -317 529 -509 832 -509 124 0 166 27 180 112 1 11 8 23 15 27 10 7 11 27 2 98 -66 545 -401 836 -1164 1012 -97 23 -179 41 -182 41 -3 0 5 -24 16 -52z"/><path d="M8159 2375 c-609 -138 -940 -344 -1096 -683 -59 -127 -110 -377 -88 -429 5 -10 10 -29 12 -42 13 -75 59 -101 179 -101 316 0 625 196 854 543 110 165 222 395 228 465 3 40 2 53 -7 48 -11 -7 -3 15 53 153 28 68 31 81 19 80 -5 0 -74 -16 -154 -34z"/><path d="M4032 1479 c-193 -25 -435 -124 -667 -274 -108 -69 -314 -218 -315 -226 0 -4 28 -16 63 -29 66 -24 92 -40 65 -40 -10 0 -19 -12 -23 -30 -14 -65 45 -105 226 -154 572 -155 982 -93 1270 194 75 74 101 131 81 174 -9 21 -6 31 29 77 21 29 39 55 39 58 0 3 -25 24 -55 46 -229 167 -469 236 -713 204z"/><path d="M8513 1476 c-155 -30 -317 -101 -446 -196 l-67 -50 40 -54 c37 -49 40 -56 29 -80 -21 -46 4 -101 80 -176 288 -287 698 -349 1270 -194 180 49 240 89 226 153 -3 16 -14 31 -23 33 -9 2 18 18 61 35 l79 30 -126 92 c-304 223 -550 347 -780 395 -113 23 -257 28 -343 12z"/><path d="M6324 1249 c-48 -14 -120 -83 -139 -134 -13 -34 -16 -60 -11 -112 4 -37 6 -84 6 -103 -2 -95 62 -193 145 -220 138 -46 285 52 292 195 1 28 8 71 14 97 10 37 10 60 0 101 -31 139 -167 217 -307 176z"/><path d="M5255 1054 c-276 -46 -587 -227 -935 -541 l-54 -50 74 -23 c41 -13 67 -25 58 -27 -23 -6 -34 -48 -20 -78 16 -35 75 -61 188 -84 568 -115 968 -37 1250 243 69 69 110 130 114 171 5 42 0 66 -12 59 -12 -8 -12 -7 39 73 18 29 33 56 33 62 0 15 -49 46 -147 95 -207 104 -386 135 -588 100z"/><path d="M7249 1054 c-42 -7 -109 -25 -150 -40 -76 -27 -226 -101 -267 -133 l-24 -18 41 -66 c22 -37 36 -67 31 -67 -18 0 -11 -80 11 -121 11 -22 53 -73 92 -113 279 -282 682 -361 1251 -245 113 23 172 49 188 84 14 30 3 72 -20 77 -9 3 18 15 61 29 l78 24 -93 81 c-362 313 -622 460 -902 509 -106 18 -194 18 -297 -1z"/></g></svg><svg xmlns="http://www.w3.org/2000/svg" width="65" height="65" x="68" y="35" fill="#56b6c2" viewBox="0 0 30 30"><path d="M7 10h2v4H7v-4z"/><path d="M10 11c0 .552-.895 1-2 1s-2-.448-2-1 .895-1 2-1 2 .448 2 1z"/><path fill-rule="evenodd" d="M12.5 3a2 2 0 1 0 0 4 2 2 0 0 0 0-4zm-3 2a3 3 0 1 1 6 0 3 3 0 0 1-6 0zm-6-2a2 2 0 1 0 0 4 2 2 0 0 0 0-4zm-3 2a3 3 0 1 1 6 0 3 3 0 0 1-6 0z"/><path d="M3 1h10c-.495 3.467-.5 10-5 10S3.495 4.467 3 1zm0 15a1 1 0 0 1 1-1h8a1 1 0 0 1 1 1H3zm2-1a1 1 0 0 1 1-1h4a1 1 0 0 1 1 1H5z"/><circle cx="8" cy="6" r="4" fill="#FFF"/><text x="6" y="8" fill="#282c34" font-family="Courier, Monospace" font-size="7">A</text></svg><defs><linearGradient gradientTransform="rotate(45)"><stop offset="0%" stop-color="#56b6c2"/><stop offset="70%" stop-color="#56b6c2"/><stop offset="100%" stop-color="#56b6c2"/></linearGradient></defs><svg xmlns="http://www.w3.org/2000/svg" width="100" height="100" x="28" y="20" fill="url(#item_bf3b060f1d4c4e7c8a287234f6567321_AA)" viewBox="0 0 30 30"><path d="M7 10h2v4H7v-4z"/><path d="M10 11c0 .552-.895 1-2 1s-2-.448-2-1 .895-1 2-1 2 .448 2 1z"/><path fill-rule="evenodd" d="M12.5 3a2 2 0 1 0 0 4 2 2 0 0 0 0-4zm-3 2a3 3 0 1 1 6 0 3 3 0 0 1-6 0zm-6-2a2 2 0 1 0 0 4 2 2 0 0 0 0-4zm-3 2a3 3 0 1 1 6 0 3 3 0 0 1-6 0z"/><path d="M3 1h10c-.495 3.467-.5 10-5 10S3.495 4.467 3 1zm0 15a1 1 0 0 1 1-1h8a1 1 0 0 1 1 1H3zm2-1a1 1 0 0 1 1-1h4a1 1 0 0 1 1 1H5z"/><circle cx="8" cy="6" r="4" fill="#FFF"/><text x="6" y="8" fill="#282c34" font-family="Courier, Monospace" font-size="7">A</text></svg><text x="50%" y="18" fill="#e5c07b" font-family="Segoe UI,Helvetica,Arial,sans-serif,Apple Color Emoji,Segoe UI Emoji" font-size="13" font-weight="bold" text-anchor="middle">Followers</text><text x="50%" y="85" fill="#e06c75" font-family="Segoe UI,Helvetica,Arial,sans-serif,Apple Color Emoji,Segoe UI Emoji" font-size="10.5" font-weight="bold" text-anchor="middle">Active User</text><text x="50%" y="97" fill="#e06c75" font-family="Segoe UI,Helvetica,Arial,sans-serif,Apple Color Emoji,Segoe UI Emoji" font-size="10" font-weight="bold" text-anchor="middle">69pt</text><rect width="80" height="3.2" x="15" y="101" fill="#e5c07b" opacity=".3" rx="1"/><rect id="Followers-rank-progress" height="3.2" x="15" y="101" fill="#e5c07b" rx="1"/></svg><svg xmlns="http://www.w3.org/2000/svg" width="110" height="110" x="440" y="0" fill="none" viewBox="0 0 110 110"><rect width="109" height="109" x=".5" y=".5" fill="#282c34" fill-opacity="1" stroke="#e1e4e8" stroke-opacity="1" rx="4.5"/><svg xmlns="http://www.w3.org/2000/svg" width="120" height="120" preserveAspectRatio="xMidYMid meet" viewBox="0 0 100 100"><g fill="#98c379" stroke="none" transform="matrix(.004 0 0 -.004 20 60)"><path d="M200 5103 c0 -2 18 -40 41 -84 47 -95 62 -132 50 -125 -15 10 -18 -39 -6 -87 31 -121 265 -468 412 -608 124 -119 281 -222 383 -251 36 -10 49 -16 30 -13 -19 3 -78 12 -130 20 -117 17 -353 35 -477 35 l-93 0 53 -82 c72 -112 72 -112 59 -104 -18 11 -26 -41 -13 -84 25 -84 261 -376 404 -502 95 -83 222 -168 304 -205 98 -43 194 -73 242 -74 l46 -1 -45 -8 c-25 -5 -124 -21 -220 -36 -96 -15 -177 -29 -180 -31 -2 -2 0 -7 5 -11 27 -19 138 -144 123 -139 -18 6 -28 -10 -28 -47 0 -38 53 -108 141 -187 349 -313 631 -450 939 -453 63 0 131 2 150 7 19 4 -35 -17 -120 -46 -236 -82 -310 -110 -310 -117 0 -3 29 -28 65 -54 55 -40 102 -84 67 -62 -13 8 -32 -24 -32 -54 0 -99 486 -361 790 -426 125 -27 327 -25 444 4 113 28 261 98 309 145 39 40 56 92 38 124 -8 17 -4 24 29 49 22 16 40 32 40 36 0 4 -26 40 -58 80 -162 203 -368 328 -608 369 -89 15 -368 6 -474 -15 -131 -26 -147 -26 -59 -3 51 13 102 34 122 50 38 29 61 84 51 123 -5 18 1 26 25 39 17 8 31 19 31 23 0 4 -16 38 -35 75 -163 317 -424 501 -781 548 -113 15 -127 19 -91 30 51 14 84 58 89 118 1 20 9 33 20 37 23 7 23 6 -12 114 -108 329 -305 534 -640 662 -41 15 -59 25 -40 21 19 -5 82 -8 140 -8 81 0 113 4 142 18 39 20 73 76 65 107 -3 12 2 20 14 23 23 6 23 21 4 124 -61 320 -249 568 -544 718 -157 79 -394 147 -666 190 -88 13 -170 26 -182 29 -13 2 -23 2 -23 -1z"/><path d="M12550 5099 c-232 -36 -334 -55 -445 -84 -484 -122 -761 -346 -880 -712 -26 -79 -57 -242 -48 -255 2 -5 14 -8 26 -9 12 0 16 -3 10 -6 -17 -6 -16 -38 2 -72 25 -49 75 -66 200 -66 61 0 124 4 140 8 17 5 -13 -9 -66 -31 -136 -55 -250 -126 -341 -211 -128 -120 -217 -263 -272 -439 -32 -101 -32 -110 -3 -122 12 -5 17 -9 11 -9 -8 -1 -9 -12 -5 -34 15 -66 41 -95 94 -107 31 -7 31 -7 7 -12 -14 -3 -72 -13 -130 -22 -322 -51 -553 -206 -714 -479 -25 -42 -52 -92 -60 -111 -14 -33 -14 -33 23 -54 20 -12 31 -22 26 -22 -15 0 -17 -39 -4 -78 14 -42 76 -88 130 -97 22 -4 39 -9 36 -11 -2 -2 -55 3 -118 12 -154 22 -395 15 -494 -13 -216 -62 -391 -184 -545 -380 l-41 -52 40 -32 c34 -27 39 -35 30 -51 -17 -33 -1 -85 38 -125 48 -47 196 -117 309 -145 117 -29 319 -31 444 -4 300 64 790 328 790 425 0 29 -18 63 -31 56 -5 -4 -9 -4 -9 -2 0 3 34 29 75 59 41 29 75 56 75 59 0 3 -21 13 -47 22 -349 120 -422 146 -388 140 59 -12 241 -8 310 6 208 43 437 158 636 322 241 199 314 293 265 342 -13 12 -6 24 51 86 36 40 64 73 62 75 -4 2 -107 20 -359 60 -70 12 -77 14 -39 15 48 1 144 31 241 74 139 62 318 202 451 352 104 117 225 279 249 333 21 47 21 99 0 94 -16 -3 -10 9 58 116 l50 77 -72 3 c-91 4 -362 -14 -488 -33 -179 -26 -179 -26 -116 -9 93 26 244 120 365 230 193 174 467 605 443 696 -2 10 -8 15 -13 12 -12 -7 3 30 51 126 23 45 40 85 38 89 -2 4 -23 4 -48 0z m-933 -1185 c-3 -3 -12 -4 -19 -1 -8 3 -5 6 6 6 11 1 17 -2 13 -5z m-1290 -1860 c-3 -3 -12 -4 -19 -1 -8 3 -5 6 6 6 11 1 17 -2 13 -5z m40 -10 c-3 -3 -12 -4 -19 -1 -8 3 -5 6 6 6 11 1 17 -2 13 -5z"/><path d="M10242 4632 c-46 -140 -92 -319 -118 -457 -18 -94 -28 -519 -12 -509 4 3 5 -8 2 -25 -8 -40 21 -179 58 -274 75 -195 297 -437 400 -437 57 0 124 70 177 185 53 112 67 224 65 510 -1 120 -5 166 -23 233 -66 252 -206 515 -423 795 -39 51 -74 95 -77 99 -4 4 -26 -50 -49 -120z"/><path d="M2407 4612 c-305 -408 -443 -757 -422 -1067 3 -55 8 -140 10 -190 5 -113 30 -204 83 -293 44 -74 88 -118 128 -128 102 -26 339 218 422 433 34 87 67 235 58 258 -3 9 -1 39 5 68 5 28 10 117 10 197 1 155 -15 284 -57 455 -33 137 -117 405 -126 405 -5 0 -55 -62 -111 -138z"/><path d="M2970 3839 c-189 -385 -254 -632 -248 -941 2 -86 6 -151 10 -145 5 7 5 -2 2 -19 -19 -98 77 -354 181 -487 76 -96 141 -120 210 -77 70 43 195 240 239 375 20 63 46 197 40 207 -3 4 0 54 6 111 26 257 -51 553 -240 922 -42 83 -87 165 -98 184 l-21 35 -81 -165z"/><path d="M9711 3929 c-124 -219 -230 -466 -276 -642 -39 -151 -47 -234 -41 -426 7 -237 39 -357 136 -517 136 -225 233 -251 355 -97 94 121 171 313 181 453 2 36 8 111 13 167 26 288 -56 600 -266 1017 l-60 120 -42 -75z"/><path d="M3645 3278 c-2 -7 -14 -78 -27 -158 -19 -123 -22 -188 -23 -430 -2 -309 7 -401 50 -555 66 -232 204 -430 388 -552 120 -80 189 -70 245 34 36 69 74 205 78 283 1 30 5 109 9 175 9 135 -1 213 -41 339 -66 208 -198 406 -429 645 -147 152 -244 237 -250 219z"/><path d="M8994 3143 c-289 -284 -435 -492 -514 -732 -32 -100 -55 -261 -45 -330 3 -25 8 -91 10 -146 7 -168 66 -347 129 -387 77 -48 196 11 347 170 94 98 156 199 205 331 37 99 67 234 59 262 -4 11 -2 19 5 19 8 0 10 8 7 21 -3 11 1 77 10 147 10 89 13 172 9 277 -7 191 -48 515 -65 515 -3 0 -74 -66 -157 -147z"/><path d="M4501 2358 c52 -129 69 -179 59 -173 -6 4 -10 -12 -10 -42 0 -78 115 -313 252 -514 215 -317 529 -509 832 -509 124 0 166 27 180 112 1 11 8 23 15 27 10 7 11 27 2 98 -66 545 -401 836 -1164 1012 -97 23 -179 41 -182 41 -3 0 5 -24 16 -52z"/><path d="M8159 2375 c-609 -138 -940 -344 -1096 -683 -59 -127 -110 -377 -88 -429 5 -10 10 -29 12 -42 13 -75 59 -101 179 -101 316 0 625 196 854 543 110 165 222 395 228 465 3 40 2 53 -7 48 -11 -7 -3 15 53 153 28 68 31 81 19 80 -5 0 -74 -16 -154 -34z"/><path d="M4032 1479 c-193 -25 -435 -124 -667 -274 -108 -69 -314 -218 -315 -226 0 -4 28 -16 63 -29 66 -24 92 -40 65 -40 -10 0 -19 -12 -23 -30 -14 -65 45 -105 226 -154 572 -155 982 -93 1270 194 75 74 101 131 81 174 -9 21 -6 31 29 77 21 29 39 55 39 58 0 3 -25 24 -55 46 -229 167 -469 236 -713 204z"/><path d="M8513 1476 c-155 -30 -317 -101 -446 -196 l-67 -50 40 -54 c37 -49 40 -56 29 -80 -21 -46 4 -101 80 -176 288 -287 698 -349 1270 -194 180 49 240 89 226 153 -3 16 -14 31 -23 33 -9 2 18 18 61 35 l79 30 -126 92 c-304 223 -550 347 -780 395 -113 23 -257 28 -343 12z"/><path d="M6324 1249 c-48 -14 -120 -83 -139 -134 -13 -34 -16 -60 -11 -112 4 -37 6 -84 6 -103 -2 -95 62 -193 145 -220 138 -46 285 52 292 195 1 28 8 71 14 97 10 37 10 60 0 101 -31 139 -167 217 -307 176z"/><path d="M5255 1054 c-276 -46 -587 -227 -935 -541 l-54 -50 74 -23 c41 -13 67 -25 58 -27 -23 -6 -34 -48 -20 -78 16 -35 75 -61 188 -84 568 -115 968 -37 1250 243 69 69 110 130 114 171 5 42 0 66 -12 59 -12 -8 -12 -7 39 73 18 29 33 56 33 62 0 15 -49 46 -147 95 -207 104 -386 135 -588 100z"/><path d="M7249 1054 c-42 -7 -109 -25 -150 -40 -76 -27 -226 -101 -267 -133 l-24 -18 41 -66 c22 -37 36 -67 31 -67 -18 0 -11 -80 11 -121 11 -22 53 -73 92 -113 279 -282 682 -361 1251 -245 113 23 172 49 188 84 14 30 3 72 -20 77 -9 3 18 15 61 29 l78 24 -93 81 c-362 313 -622 460 -902 509 -106 18 -194 18 -297 -1z"/></g></svg><svg xmlns="http://www.w3.org/2000/svg" width="65" height="65" x="68" y="35" fill="#56b6c2" viewBox="0 0 30 30"><path d="M7 10h2v4H7v-4z"/><path d="M10 11c0 .552-.895 1-2 1s-2-.448-2-1 .895-1 2-1 2 .448 2 1z"/><path fill-rule="evenodd" d="M12.5 3a2 2 0 1 0 0 4 2 2 0 0 0 0-4zm-3 2a3 3 0 1 1 6 0 3 3 0 0 1-6 0zm-6-2a2 2 0 1 0 0 4 2 2 0 0 0 0-4zm-3 2a3 3 0 1 1 6 0 3 3 0 0 1-6 0z"/><path d="M3 1h10c-.495 3.467-.5 10-5 10S3.495 4.467 3 1zm0 15a1 1 0 0 1 1-1h8a1 1 0 0 1 1 1H3zm2-1a1 1 0 0 1 1-1h4a1 1 0 0 1 1 1H5z"/><circle cx="8" cy="6" r="4" fill="#FFF"/><text x="6" y="8" fill="#282c34" font-family="Courier, Monospace" font-size="7">A</text></svg><defs><linearGradient gradientTransform="rotate(45)"><stop offset="0%" stop-color="#56b6c2"/><stop offset="70%" stop-color="#56b6c2"/><stop offset="100%" stop-color="#56b6c2"/></linearGradient></defs><svg xmlns="http://www.w3.org/2000/svg" width="100" height="100" x="28" y="20" fill="url(#item_bf3b060f1d4c4e7c8a287234f6567321_AA)" viewBox="0 0 30 30"><path d="M7 10h2v4H7v-4z"/><path d="M10 11c0 .552-.895 1-2 1s-2-.448-2-1 .895-1 2-1 2 .448 2 1z"/><path fill-rule="evenodd" d="M12.5 3a2 2 0 1 0 0 4 2 2 0 0 0 0-4zm-3 2a3 3 0 1 1 6 0 3 3 0 0 1-6 0zm-6-2a2 2 0 1 0 0 4 2 2 0 0 0 0-4zm-3 2a3 3 0 1 1 6 0 3 3 0 0 1-6 0z"/><path d="M3 1h10c-.495 3.467-.5 10-5 10S3.495 4.467 3 1zm0 15a1 1 0 0 1 1-1h8a1 1 0 0 1 1 1H3zm2-1a1 1 0 0 1 1-1h4a1 1 0 0 1 1 1H5z"/><circle cx="8" cy="6" r="4" fill="#FFF"/><text x="6" y="8" fill="#282c34" font-family="Courier, Monospace" font-size="7">A</text></svg><text x="50%" y="18" fill="#e5c07b" font-family="Segoe UI,Helvetica,Arial,sans-serif,Apple Color Emoji,Segoe UI Emoji" font-size="13" font-weight="bold" text-anchor="middle">Repositories</text><text x="50%" y="85" fill="#e06c75" font-family="Segoe UI,Helvetica,Arial,sans-serif,Apple Color Emoji,Segoe UI Emoji" font-size="10.5" font-weight="bold" text-anchor="middle">Hyper Repo Creator</text><text x="50%" y="97" fill="#e06c75" font-family="Segoe UI,Helvetica,Arial,sans-serif,Apple Color Emoji,Segoe UI Emoji" font-size="10" font-weight="bold" text-anchor="middle">37pt</text><rect width="80" height="3.2" x="15" y="101" fill="#e5c07b" opacity=".3" rx="1"/><rect id="Repositories-rank-progress" height="3.2" x="15" y="101" fill="#e5c07b" rx="1"/></svg><svg xmlns="http://www.w3.org/2000/svg" width="110" height="110" x="550" y="0" fill="none" viewBox="0 0 110 110"><rect width="109" height="109" x=".5" y=".5" fill="#282c34" fill-opacity="1" stroke="#e1e4e8" stroke-opacity="1" rx="4.5"/><svg xmlns="http://www.w3.org/2000/svg" width="120" height="120" preserveAspectRatio="xMidYMid meet" viewBox="0 0 100 100"><g fill="#98c379" stroke="none" transform="matrix(.004 0 0 -.004 20 60)"><path d="M200 5103 c0 -2 18 -40 41 -84 47 -95 62 -132 50 -125 -15 10 -18 -39 -6 -87 31 -121 265 -468 412 -608 124 -119 281 -222 383 -251 36 -10 49 -16 30 -13 -19 3 -78 12 -130 20 -117 17 -353 35 -477 35 l-93 0 53 -82 c72 -112 72 -112 59 -104 -18 11 -26 -41 -13 -84 25 -84 261 -376 404 -502 95 -83 222 -168 304 -205 98 -43 194 -73 242 -74 l46 -1 -45 -8 c-25 -5 -124 -21 -220 -36 -96 -15 -177 -29 -180 -31 -2 -2 0 -7 5 -11 27 -19 138 -144 123 -139 -18 6 -28 -10 -28 -47 0 -38 53 -108 141 -187 349 -313 631 -450 939 -453 63 0 131 2 150 7 19 4 -35 -17 -120 -46 -236 -82 -310 -110 -310 -117 0 -3 29 -28 65 -54 55 -40 102 -84 67 -62 -13 8 -32 -24 -32 -54 0 -99 486 -361 790 -426 125 -27 327 -25 444 4 113 28 261 98 309 145 39 40 56 92 38 124 -8 17 -4 24 29 49 22 16 40 32 40 36 0 4 -26 40 -58 80 -162 203 -368 328 -608 369 -89 15 -368 6 -474 -15 -131 -26 -147 -26 -59 -3 51 13 102 34 122 50 38 29 61 84 51 123 -5 18 1 26 25 39 17 8 31 19 31 23 0 4 -16 38 -35 75 -163 317 -424 501 -781 548 -113 15 -127 19 -91 30 51 14 84 58 89 118 1 20 9 33 20 37 23 7 23 6 -12 114 -108 329 -305 534 -640 662 -41 15 -59 25 -40 21 19 -5 82 -8 140 -8 81 0 113 4 142 18 39 20 73 76 65 107 -3 12 2 20 14 23 23 6 23 21 4 124 -61 320 -249 568 -544 718 -157 79 -394 147 -666 190 -88 13 -170 26 -182 29 -13 2 -23 2 -23 -1z"/><path d="M12550 5099 c-232 -36 -334 -55 -445 -84 -484 -122 -761 -346 -880 -712 -26 -79 -57 -242 -48 -255 2 -5 14 -8 26 -9 12 0 16 -3 10 -6 -17 -6 -16 -38 2 -72 25 -49 75 -66 200 -66 61 0 124 4 140 8 17 5 -13 -9 -66 -31 -136 -55 -250 -126 -341 -211 -128 -120 -217 -263 -272 -439 -32 -101 -32 -110 -3 -122 12 -5 17 -9 11 -9 -8 -1 -9 -12 -5 -34 15 -66 41 -95 94 -107 31 -7 31 -7 7 -12 -14 -3 -72 -13 -130 -22 -322 -51 -553 -206 -714 -479 -25 -42 -52 -92 -60 -111 -14 -33 -14 -33 23 -54 20 -12 31 -22 26 -22 -15 0 -17 -39 -4 -78 14 -42 76 -88 130 -97 22 -4 39 -9 36 -11 -2 -2 -55 3 -118 12 -154 22 -395 15 -494 -13 -216 -62 -391 -184 -545 -380 l-41 -52 40 -32 c34 -27 39 -35 30 -51 -17 -33 -1 -85 38 -125 48 -47 196 -117 309 -145 117 -29 319 -31 444 -4 300 64 790 328 790 425 0 29 -18 63 -31 56 -5 -4 -9 -4 -9 -2 0 3 34 29 75 59 41 29 75 56 75 59 0 3 -21 13 -47 22 -349 120 -422 146 -388 140 59 -12 241 -8 310 6 208 43 437 158 636 322 241 199 314 293 265 342 -13 12 -6 24 51 86 36 40 64 73 62 75 -4 2 -107 20 -359 60 -70 12 -77 14 -39 15 48 1 144 31 241 74 139 62 318 202 451 352 104 117 225 279 249 333 21 47 21 99 0 94 -16 -3 -10 9 58 116 l50 77 -72 3 c-91 4 -362 -14 -488 -33 -179 -26 -179 -26 -116 -9 93 26 244 120 365 230 193 174 467 605 443 696 -2 10 -8 15 -13 12 -12 -7 3 30 51 126 23 45 40 85 38 89 -2 4 -23 4 -48 0z m-933 -1185 c-3 -3 -12 -4 -19 -1 -8 3 -5 6 6 6 11 1 17 -2 13 -5z m-1290 -1860 c-3 -3 -12 -4 -19 -1 -8 3 -5 6 6 6 11 1 17 -2 13 -5z m40 -10 c-3 -3 -12 -4 -19 -1 -8 3 -5 6 6 6 11 1 17 -2 13 -5z"/><path d="M10242 4632 c-46 -140 -92 -319 -118 -457 -18 -94 -28 -519 -12 -509 4 3 5 -8 2 -25 -8 -40 21 -179 58 -274 75 -195 297 -437 400 -437 57 0 124 70 177 185 53 112 67 224 65 510 -1 120 -5 166 -23 233 -66 252 -206 515 -423 795 -39 51 -74 95 -77 99 -4 4 -26 -50 -49 -120z"/><path d="M2407 4612 c-305 -408 -443 -757 -422 -1067 3 -55 8 -140 10 -190 5 -113 30 -204 83 -293 44 -74 88 -118 128 -128 102 -26 339 218 422 433 34 87 67 235 58 258 -3 9 -1 39 5 68 5 28 10 117 10 197 1 155 -15 284 -57 455 -33 137 -117 405 -126 405 -5 0 -55 -62 -111 -138z"/><path d="M2970 3839 c-189 -385 -254 -632 -248 -941 2 -86 6 -151 10 -145 5 7 5 -2 2 -19 -19 -98 77 -354 181 -487 76 -96 141 -120 210 -77 70 43 195 240 239 375 20 63 46 197 40 207 -3 4 0 54 6 111 26 257 -51 553 -240 922 -42 83 -87 165 -98 184 l-21 35 -81 -165z"/><path d="M9711 3929 c-124 -219 -230 -466 -276 -642 -39 -151 -47 -234 -41 -426 7 -237 39 -357 136 -517 136 -225 233 -251 355 -97 94 121 171 313 181 453 2 36 8 111 13 167 26 288 -56 600 -266 1017 l-60 120 -42 -75z"/><path d="M3645 3278 c-2 -7 -14 -78 -27 -158 -19 -123 -22 -188 -23 -430 -2 -309 7 -401 50 -555 66 -232 204 -430 388 -552 120 -80 189 -70 245 34 36 69 74 205 78 283 1 30 5 109 9 175 9 135 -1 213 -41 339 -66 208 -198 406 -429 645 -147 152 -244 237 -250 219z"/><path d="M8994 3143 c-289 -284 -435 -492 -514 -732 -32 -100 -55 -261 -45 -330 3 -25 8 -91 10 -146 7 -168 66 -347 129 -387 77 -48 196 11 347 170 94 98 156 199 205 331 37 99 67 234 59 262 -4 11 -2 19 5 19 8 0 10 8 7 21 -3 11 1 77 10 147 10 89 13 172 9 277 -7 191 -48 515 -65 515 -3 0 -74 -66 -157 -147z"/><path d="M4501 2358 c52 -129 69 -179 59 -173 -6 4 -10 -12 -10 -42 0 -78 115 -313 252 -514 215 -317 529 -509 832 -509 124 0 166 27 180 112 1 11 8 23 15 27 10 7 11 27 2 98 -66 545 -401 836 -1164 1012 -97 23 -179 41 -182 41 -3 0 5 -24 16 -52z"/><path d="M8159 2375 c-609 -138 -940 -344 -1096 -683 -59 -127 -110 -377 -88 -429 5 -10 10 -29 12 -42 13 -75 59 -101 179 -101 316 0 625 196 854 543 110 165 222 395 228 465 3 40 2 53 -7 48 -11 -7 -3 15 53 153 28 68 31 81 19 80 -5 0 -74 -16 -154 -34z"/><path d="M4032 1479 c-193 -25 -435 -124 -667 -274 -108 -69 -314 -218 -315 -226 0 -4 28 -16 63 -29 66 -24 92 -40 65 -40 -10 0 -19 -12 -23 -30 -14 -65 45 -105 226 -154 572 -155 982 -93 1270 194 75 74 101 131 81 174 -9 21 -6 31 29 77 21 29 39 55 39 58 0 3 -25 24 -55 46 -229 167 -469 236 -713 204z"/><path d="M8513 1476 c-155 -30 -317 -101 -446 -196 l-67 -50 40 -54 c37 -49 40 -56 29 -80 -21 -46 4 -101 80 -176 288 -287 698 -349 1270 -194 180 49 240 89 226 153 -3 16 -14 31 -23 33 -9 2 18 18 61 35 l79 30 -126 92 c-304 223 -550 347 -780 395 -113 23 -257 28 -343 12z"/><path d="M6324 1249 c-48 -14 -120 -83 -139 -134 -13 -34 -16 -60 -11 -112 4 -37 6 -84 6 -103 -2 -95 62 -193 145 -220 138 -46 285 52 292 195 1 28 8 71 14 97 10 37 10 60 0 101 -31 139 -167 217 -307 176z"/><path d="M5255 1054 c-276 -46 -587 -227 -935 -541 l-54 -50 74 -23 c41 -13 67 -25 58 -27 -23 -6 -34 -48 -20 -78 16 -35 75 -61 188 -84 568 -115 968 -37 1250 243 69 69 110 130 114 171 5 42 0 66 -12 59 -12 -8 -12 -7 39 73 18 29 33 56 33 62 0 15 -49 46 -147 95 -207 104 -386 135 -588 100z"/><path d="M7249 1054 c-42 -7 -109 -25 -150 -40 -76 -27 -226 -101 -267 -133 l-24 -18 41 -66 c22 -37 36 -67 31 -67 -18 0 -11 -80 11 -121 11 -22 53 -73 92 -113 279 -282 682 -361 1251 -245 113 23 172 49 188 84 14 30 3 72 -20 77 -9 3 18 15 61 29 l78 24 -93 81 c-362 313 -622 460 -902 509 -106 18 -194 18 -297 -1z"/></g></svg><defs><linearGradient id="A" gradientTransform="rotate(45)"><stop offset="0%" stop-color="#56b6c2"/><stop offset="70%" stop-color="#56b6c2"/><stop offset="100%" stop-color="#56b6c2"/></linearGradient></defs><svg xmlns="http://www.w3.org/2000/svg" width="100" height="100" x="28" y="20" fill="url(#item_bf3b060f1d4c4e7c8a287234f6567321_A)" viewBox="0 0 30 30"><path d="M7 10h2v4H7v-4z"/><path d="M10 11c0 .552-.895 1-2 1s-2-.448-2-1 .895-1 2-1 2 .448 2 1z"/><path fill-rule="evenodd" d="M12.5 3a2 2 0 1 0 0 4 2 2 0 0 0 0-4zm-3 2a3 3 0 1 1 6 0 3 3 0 0 1-6 0zm-6-2a2 2 0 1 0 0 4 2 2 0 0 0 0-4zm-3 2a3 3 0 1 1 6 0 3 3 0 0 1-6 0z"/><path d="M3 1h10c-.495 3.467-.5 10-5 10S3.495 4.467 3 1zm0 15a1 1 0 0 1 1-1h8a1 1 0 0 1 1 1H3zm2-1a1 1 0 0 1 1-1h4a1 1 0 0 1 1 1H5z"/><circle cx="8" cy="6" r="4" fill="#FFF"/><text x="6" y="8" fill="#282c34" font-family="Courier, Monospace" font-size="7">A</text></svg><text x="50%" y="18" fill="#e5c07b" font-family="Segoe UI,Helvetica,Arial,sans-serif,Apple Color Emoji,Segoe UI Emoji" font-size="13" font-weight="bold" text-anchor="middle">Experience</text><text x="50%" y="85" fill="#e06c75" font-family="Segoe UI,Helvetica,Arial,sans-serif,Apple Color Emoji,Segoe UI Emoji" font-size="10.5" font-weight="bold" text-anchor="middle">Intermediate Dev</text><text x="50%" y="97" fill="#e06c75" font-family="Segoe UI,Helvetica,Arial,sans-serif,Apple Color Emoji,Segoe UI Emoji" font-size="10" font-weight="bold" text-anchor="middle">12pt</text><rect width="80" height="3.2" x="15" y="101" fill="#e5c07b" opacity=".3" rx="1"/><rect id="Experience-rank-progress" height="3.2" x="15" y="101" fill="#e5c07b" rx="1"/></svg><svg xmlns="http://www.w3.org/2000/svg" width="110" height="110" x="660" y="0" fill="none" viewBox="0 0 110 110"><rect width="109" height="109" x=".5" y=".5" fill="#282c34" fill-opacity="1" stroke="#e1e4e8" stroke-opacity="1" rx="4.5"/><defs><linearGradient id="B" gradientTransform="rotate(45)"><stop offset="0%" stop-color="#c678dd"/><stop offset="70%" stop-color="#c678dd"/><stop offset="100%" stop-color="#c678dd"/></linearGradient></defs><svg xmlns="http://www.w3.org/2000/svg" width="100" height="100" x="28" y="20" fill="url(#item_bf3b060f1d4c4e7c8a287234f6567321_B)" viewBox="0 0 30 30"><path d="M7 10h2v4H7v-4z"/><path d="M10 11c0 .552-.895 1-2 1s-2-.448-2-1 .895-1 2-1 2 .448 2 1z"/><path fill-rule="evenodd" d="M12.5 3a2 2 0 1 0 0 4 2 2 0 0 0 0-4zm-3 2a3 3 0 1 1 6 0 3 3 0 0 1-6 0zm-6-2a2 2 0 1 0 0 4 2 2 0 0 0 0-4zm-3 2a3 3 0 1 1 6 0 3 3 0 0 1-6 0z"/><path d="M3 1h10c-.495 3.467-.5 10-5 10S3.495 4.467 3 1zm0 15a1 1 0 0 1 1-1h8a1 1 0 0 1 1 1H3zm2-1a1 1 0 0 1 1-1h4a1 1 0 0 1 1 1H5z"/><circle cx="8" cy="6" r="4" fill="#FFF"/><text x="6" y="8" fill="#282c34" font-family="Courier, Monospace" font-size="7">B</text></svg><text x="50%" y="18" fill="#e5c07b" font-family="Segoe UI,Helvetica,Arial,sans-serif,Apple Color Emoji,Segoe UI Emoji" font-size="13" font-weight="bold" text-anchor="middle">PullRequest</text><text x="50%" y="85" fill="#e06c75" font-family="Segoe UI,Helvetica,Arial,sans-serif,Apple Color Emoji,Segoe UI Emoji" font-size="10.5" font-weight="bold" text-anchor="middle">Middle Puller</text><text x="50%" y="97" fill="#e06c75" font-family="Segoe UI,Helvetica,Arial,sans-serif,Apple Color Emoji,Segoe UI Emoji" font-size="10" font-weight="bold" text-anchor="middle">17pt</text><rect width="80" height="3.2" x="15" y="101" fill="#e5c07b" opacity=".3" rx="1"/><rect id="PullRequest-rank-progress" height="3.2" x="15" y="101" fill="#e5c07b" rx="1"/></svg><svg xmlns="http://www.w3.org/2000/svg" width="110" height="110" x="770" y="0" fill="none" viewBox="0 0 110 110"><rect width="109" height="109" x=".5" y=".5" fill="#282c34" fill-opacity="1" stroke="#e1e4e8" stroke-opacity="1" rx="4.5"/><defs><linearGradient gradientTransform="rotate(45)"><stop offset="0%" stop-color="#c678dd"/><stop offset="70%" stop-color="#c678dd"/><stop offset="100%" stop-color="#c678dd"/></linearGradient></defs><svg xmlns="http://www.w3.org/2000/svg" width="100" height="100" x="28" y="20" fill="url(#item_bf3b060f1d4c4e7c8a287234f6567321_B)" viewBox="0 0 30 30"><path d="M7 10h2v4H7v-4z"/><path d="M10 11c0 .552-.895 1-2 1s-2-.448-2-1 .895-1 2-1 2 .448 2 1z"/><path fill-rule="evenodd" d="M12.5 3a2 2 0 1 0 0 4 2 2 0 0 0 0-4zm-3 2a3 3 0 1 1 6 0 3 3 0 0 1-6 0zm-6-2a2 2 0 1 0 0 4 2 2 0 0 0 0-4zm-3 2a3 3 0 1 1 6 0 3 3 0 0 1-6 0z"/><path d="M3 1h10c-.495 3.467-.5 10-5 10S3.495 4.467 3 1zm0 15a1 1 0 0 1 1-1h8a1 1 0 0 1 1 1H3zm2-1a1 1 0 0 1 1-1h4a1 1 0 0 1 1 1H5z"/><circle cx="8" cy="6" r="4" fill="#FFF"/><text x="6" y="8" fill="#282c34" font-family="Courier, Monospace" font-size="7">B</text></svg><text x="50%" y="18" fill="#e5c07b" font-family="Segoe UI,Helvetica,Arial,sans-serif,Apple Color Emoji,Segoe UI Emoji" font-size="13" font-weight="bold" text-anchor="middle">Reviews</text><text x="50%" y="85" fill="#e06c75" font-family="Segoe UI,Helvetica,Arial,sans-serif,Apple Color Emoji,Segoe UI Emoji" font-size="10.5" font-weight="bold" text-anchor="middle">Intermediate Reviewer</text><text x="50%" y="97" fill="#e06c75" font-family="Segoe UI,Helvetica,Arial,sans-serif,Apple Color Emoji,Segoe UI Emoji" font-size="10" font-weight="bold" text-anchor="middle">4pt</text><rect width="80" height="3.2" x="15" y="101" fill="#e5c07b" opacity=".3" rx="1"/><rect id="Reviews-rank-progress" height="3.2" x="15" y="101" fill="#e5c07b" rx="1"/></svg><svg xmlns="http://www.w3.org/2000/svg" width="110" height="110" x="0" y="110" fill="none" viewBox="0 0 110 110"><rect width="109" height="109" x=".5" y=".5" fill="#282c34" fill-opacity="1" stroke="#e1e4e8" stroke-opacity="1" rx="4.5"/><defs><linearGradient id="C" gradientTransform="rotate(45)"><stop offset="0%" stop-color="#abb2bf"/><stop offset="50%" stop-color="#abb2bf"/><stop offset="100%" stop-color="#abb2bf"/></linearGradient></defs><svg xmlns="http://www.w3.org/2000/svg" width="100" height="100" x="28" y="20" fill="url(#item_bf3b060f1d4c4e7c8a287234f6567321_C)" viewBox="0 0 30 30"><path d="M7 10h2v4H7v-4z"/><path d="M10 11c0 .552-.895 1-2 1s-2-.448-2-1 .895-1 2-1 2 .448 2 1z"/><path fill-rule="evenodd" d="M12.5 3a2 2 0 1 0 0 4 2 2 0 0 0 0-4zm-3 2a3 3 0 1 1 6 0 3 3 0 0 1-6 0zm-6-2a2 2 0 1 0 0 4 2 2 0 0 0 0-4zm-3 2a3 3 0 1 1 6 0 3 3 0 0 1-6 0z"/><path d="M3 1h10c-.495 3.467-.5 10-5 10S3.495 4.467 3 1zm0 15a1 1 0 0 1 1-1h8a1 1 0 0 1 1 1H3zm2-1a1 1 0 0 1 1-1h4a1 1 0 0 1 1 1H5z"/><circle cx="8" cy="6" r="4" fill="#FFF"/><text x="6" y="8" fill="#282c34" font-family="Courier, Monospace" font-size="7">C</text></svg><text x="50%" y="18" fill="#e5c07b" font-family="Segoe UI,Helvetica,Arial,sans-serif,Apple Color Emoji,Segoe UI Emoji" font-size="13" font-weight="bold" text-anchor="middle">Issues</text><text x="50%" y="85" fill="#e06c75" font-family="Segoe UI,Helvetica,Arial,sans-serif,Apple Color Emoji,Segoe UI Emoji" font-size="10.5" font-weight="bold" text-anchor="middle">First Issue</text><text x="50%" y="97" fill="#e06c75" font-family="Segoe UI,Helvetica,Arial,sans-serif,Apple Color Emoji,Segoe UI Emoji" font-size="10" font-weight="bold" text-anchor="middle">5pt</text><rect width="80" height="3.2" x="15" y="101" fill="#e5c07b" opacity=".3" rx="1"/><rect id="Issues-rank-progress" height="3.2" x="15" y="101" fill="#e5c07b" rx="1"/></svg></g><g xmlns:xlink="http://www.w3.org/1999/xlink" direction="ltr" style="isolation:isolate" transform="matrix(1.2909 0 0 1.14359 80 325)"><g clip-path="url(#outer_rectangle)"><g style="isolation:isolate"><rect width="494" height="194" x=".5" y=".5" fill="#1A1B27" stroke="#E4E2E2" rx="10"/></g><g style="isolation:isolate"><line x1="165" x2="165" y1="28" y2="170" stroke="#E4E2E2" stroke-linecap="square" stroke-linejoin="miter" stroke-miterlimit="3" stroke-width="1" vector-effect="non-scaling-stroke"/><line x1="330" x2="330" y1="28" y2="170" stroke="#E4E2E2" stroke-linecap="square" stroke-linejoin="miter" stroke-miterlimit="3" stroke-width="1" vector-effect="non-scaling-stroke"/></g><g style="isolation:isolate"><g transform="translate(82.5 48)"><text x="0" y="32" fill="#70A5FD" stroke="none" stroke-width="0" font-family="&quot;Segoe UI&quot;, Ubuntu, sans-serif" font-size="28" font-style="normal" font-weight="700" style="opacity:0;animation:fadein 0.5s linear forwards 0.6s" text-anchor="middle">
                        1,194
                    </text></g><g transform="translate(82.5 84)"><text x="0" y="32" fill="#70A5FD" stroke="none" stroke-width="0" font-family="&quot;Segoe UI&quot;, Ubuntu, sans-serif" font-size="14" font-style="normal" font-weight="400" style="opacity:0;animation:fadein 0.5s linear forwards 0.7s" text-anchor="middle">
                        Total Contributions
                    </text></g><g transform="translate(82.5 114)"><text x="0" y="32" fill="#38BDAE" stroke="none" stroke-width="0" font-family="&quot;Segoe UI&quot;, Ubuntu, sans-serif" font-size="12" font-style="normal" font-weight="400" style="opacity:0;animation:fadein 0.5s linear forwards 0.8s" text-anchor="middle">
                        Sep 22, 2021 - Present
                    </text></g></g><g style="isolation:isolate"><g transform="translate(247.5 108)"><text x="0" y="32" fill="#BF91F3" stroke="none" stroke-width="0" font-family="&quot;Segoe UI&quot;, Ubuntu, sans-serif" font-size="14" font-style="normal" font-weight="700" style="opacity:0;animation:fadein 0.5s linear forwards 0.9s" text-anchor="middle">
                        Current Streak
                    </text></g><g transform="translate(247.5 145)"><text x="0" y="21" fill="#38BDAE" stroke="none" stroke-width="0" font-family="&quot;Segoe UI&quot;, Ubuntu, sans-serif" font-size="12" font-style="normal" font-weight="400" style="opacity:0;animation:fadein 0.5s linear forwards 0.9s" text-anchor="middle">
                        Apr 4 - Apr 13
                    </text></g><g mask="url(#mask_out_ring_behind_fire)"><circle cx="247.5" cy="71" r="40" fill="none" stroke="#70A5FD" stroke-width="5" style="opacity:0;animation:fadein 0.5s linear forwards 0.4s"/></g><g stroke-opacity="0" style="opacity:0;animation:fadein 0.5s linear forwards 0.6s" transform="translate(247.5 19.5)"><path fill="none" d="M -12 -0.5 L 15 -0.5 L 15 23.5 L -12 23.5 L -12 -0.5 Z"/><path fill="#70A5FD" stroke-opacity="0" d="M 1.5 0.67 C 1.5 0.67 2.24 3.32 2.24 5.47 C 2.24 7.53 0.89 9.2 -1.17 9.2 C -3.23 9.2 -4.79 7.53 -4.79 5.47 L -4.76 5.11 C -6.78 7.51 -8 10.62 -8 13.99 C -8 18.41 -4.42 22 0 22 C 4.42 22 8 18.41 8 13.99 C 8 8.6 5.41 3.79 1.5 0.67 Z M -0.29 19 C -2.07 19 -3.51 17.6 -3.51 15.86 C -3.51 14.24 -2.46 13.1 -0.7 12.74 C 1.07 12.38 2.9 11.53 3.92 10.16 C 4.31 11.45 4.51 12.81 4.51 14.2 C 4.51 16.85 2.36 19 -0.29 19 Z"/></g><g transform="translate(247.5 48)"><text x="0" y="32" fill="#BF91F3" stroke="none" stroke-width="0" font-family="&quot;Segoe UI&quot;, Ubuntu, sans-serif" font-size="28" font-style="normal" font-weight="700" style="animation:currstreak 0.6s linear forwards" text-anchor="middle">
                        10
                    </text></g></g><g style="isolation:isolate"><g transform="translate(412.5 48)"><text x="0" y="32" fill="#70A5FD" stroke="none" stroke-width="0" font-family="&quot;Segoe UI&quot;, Ubuntu, sans-serif" font-size="28" font-style="normal" font-weight="700" style="opacity:0;animation:fadein 0.5s linear forwards 1.2s" text-anchor="middle">
                        50
                    </text></g><g transform="translate(412.5 84)"><text x="0" y="32" fill="#70A5FD" stroke="none" stroke-width="0" font-family="&quot;Segoe UI&quot;, Ubuntu, sans-serif" font-size="14" font-style="normal" font-weight="400" style="opacity:0;animation:fadein 0.5s linear forwards 1.3s" text-anchor="middle">
                        Longest Streak
                    </text></g><g transform="translate(412.5 114)"><text x="0" y="32" fill="#38BDAE" stroke="none" stroke-width="0" font-family="&quot;Segoe UI&quot;, Ubuntu, sans-serif" font-size="12" font-style="normal" font-weight="400" style="opacity:0;animation:fadein 0.5s linear forwards 1.4s" text-anchor="middle">
                        Feb 21, 2023 - Apr 11, 2023
                    </text></g></g></g></g><g fill="none" transform="matrix(.54054 0 0 .53957 -112.453 300)"><rect width="390" height="6" x="19" y="537" fill="#BD0909" transform="rotate(-90 19 537)"/><rect width="555" height="13" y="555" fill="#BD0909" transform="rotate(-90 0 555)"/><rect width="7" height="22" x="19" y="449" fill="#BD0909" transform="rotate(-90 19 449)"/><rect width="9" height="14" x="34" y="406" fill="#BD0909" transform="rotate(-90 34 406)"/><rect width="9" height="54" x="50" y="446" fill="#BD0909" transform="rotate(-90 50 446)"/><rect width="7" height="61" x="71" y="429" fill="#BD0909" transform="rotate(-90 71 429)"/><rect width="6" height="38" x="25" y="391" fill="#BD0909" transform="rotate(-90 25 391)"/><rect width="9" height="27" x="36" y="433" fill="#BD0909" transform="rotate(-90 36 433)"/><rect width="68" height="6" x="35" y="510" fill="#BD0909" transform="rotate(-90 35 510)"/><path fill="#BD0909" d="M34.9803 508.823L103.983 437.019L114.984 437.019L34.9965 518.5L34.9803 508.823Z"/><path fill="#BD0909" d="M50.0019 477.002L66 459.5L73.0019 459.502L49.9232 483.501L50.0019 477.002Z"/><rect width="47" height="6" x="57" y="432" fill="#BD0909" transform="rotate(-90 57 432)"/><rect width="33" height="8" x="34" y="433" fill="#BD0909" transform="rotate(-90 34 433)"/><path fill="#BD0909" fill-rule="evenodd" d="M52.0672 480L56 475.925L56 442H50L50 480H52.0672Z" clip-rule="evenodd"/><rect width="56" height="6" x="71" y="429" fill="#BD0909" transform="rotate(-90 71 429)"/><rect width="32" height="4" x="50" y="377" fill="#BD0909" transform="rotate(-90 50 377)"/><rect width="26" height="5" x="76" y="378" fill="#BD0909" transform="rotate(-180 76 378)"/><rect width="15" height="4" x="54" y="349" fill="#BD0909" transform="rotate(-180 54 349)"/><rect width="17" height="3" x="42" y="328" fill="#BD0909" transform="rotate(-180 42 328)"/><rect width="10" height="8" x="34" y="344" fill="#BD0909" transform="rotate(-180 34 344)"/><rect width="23" height="3" x="39" y="348" fill="#BD0909" transform="rotate(-90 39 348)"/><rect width="25" height="4" x="30" y="361" fill="#BD0909" transform="rotate(-90 30 361)"/><rect width="25" height="4" x="43" y="382" fill="#BD0909" transform="rotate(-90 43 382)"/><rect width="14" height="4" x="29" y="382" fill="#BD0909" transform="rotate(-90 29 382)"/><rect width="18" height="8" x="47" y="382" fill="#BD0909" transform="rotate(-180 47 382)"/><rect width="16" height="4" x="46" y="361" fill="#BD0909" transform="rotate(-180 46 361)"/><rect width="390" height="6" fill="#BD0909" transform="matrix(1 0 0 -1 19 537)"/><rect width="555" height="13" fill="#BD0909" transform="matrix(1 0 0 -1 0 556)"/><rect width="7" height="22" fill="#BD0909" transform="matrix(1 0 0 -1 106 537)"/><rect width="9" height="14" fill="#BD0909" transform="matrix(1 0 0 -1 149 522)"/><rect width="9" height="54" fill="#BD0909" transform="matrix(1 0 0 -1 109 506)"/><rect width="7" height="63" fill="#BD0909" transform="matrix(1 0 0 -1 126 485)"/><rect width="6" height="38" fill="#BD0909" transform="matrix(1 0 0 -1 164 531)"/><rect width="9" height="27" fill="#BD0909" transform="matrix(1 0 0 -1 122 520)"/><rect width="68" height="6" fill="#BD0909" transform="matrix(1 0 0 -1 45 521)"/><path fill="#BD0909" d="M46.1773 521.02L117.981 452.017L117.981 441.016L36.5 521.004L46.1773 521.02Z"/><path fill="#BD0909" d="M77.9981 505.998L95.5 490L95.4981 482.998L71.4987 506.077L77.9981 505.998Z"/><rect width="47" height="6" fill="#BD0909" transform="matrix(1 0 0 -1 123 499)"/><rect width="33" height="8" fill="#BD0909" transform="matrix(1 0 0 -1 122 522)"/><path fill="#BD0909" fill-rule="evenodd" d="M75 503.933L79.0749 500H113V506H75V503.933Z" clip-rule="evenodd"/><rect width="56" height="6" fill="#BD0909" transform="matrix(1 0 0 -1 126 485)"/><rect width="32" height="4" fill="#BD0909" transform="matrix(1 0 0 -1 178 506)"/><rect width="26" height="5" fill="#BD0909" transform="matrix(0 1 1 0 177 480)"/><rect width="15" height="4" fill="#BD0909" transform="matrix(0 1 1 0 206 502)"/><rect width="17" height="3" fill="#BD0909" transform="matrix(0 1 1 0 227 514)"/><rect width="10" height="8" fill="#BD0909" transform="matrix(0 1 1 0 211 522)"/><rect width="23" height="3" fill="#BD0909" transform="matrix(1 0 0 -1 207 517)"/><rect width="25" height="4" fill="#BD0909" transform="matrix(1 0 0 -1 194 526)"/><rect width="25" height="4" fill="#BD0909" transform="matrix(1 0 0 -1 173 513)"/><rect width="14" height="4" fill="#BD0909" transform="matrix(1 0 0 -1 173 527)"/><rect width="18" height="8" fill="#BD0909" transform="matrix(0 1 1 0 173 509)"/><rect width="16" height="4" fill="#BD0909" transform="matrix(0 1 1 0 194 510)"/></g><g fill="none" transform="matrix(.54054 0 0 .53957 600.257 300)"><rect width="390" height="6" fill="#BD0909" transform="matrix(0 -1 -1 0 536 537)"/><rect width="555" height="13" fill="#BD0909" transform="matrix(0 -1 -1 0 555 555)"/><rect width="7" height="22" fill="#BD0909" transform="matrix(0 -1 -1 0 536 449)"/><rect width="9" height="14" fill="#BD0909" transform="matrix(0 -1 -1 0 521 406)"/><rect width="9" height="54" fill="#BD0909" transform="matrix(0 -1 -1 0 505 446)"/><rect width="7" height="61" fill="#BD0909" transform="matrix(0 -1 -1 0 484 429)"/><rect width="6" height="38" fill="#BD0909" transform="matrix(0 -1 -1 0 530 391)"/><rect width="9" height="27" fill="#BD0909" transform="matrix(0 -1 -1 0 519 433)"/><rect width="68" height="6" fill="#BD0909" transform="matrix(0 -1 -1 0 520 510)"/><path fill="#BD0909" d="M520.02 508.823L451.017 437.019L440.016 437.019L520.004 518.5L520.02 508.823Z"/><path fill="#BD0909" d="M504.998 477.002L489 459.5L481.998 459.502L505.077 483.501L504.998 477.002Z"/><rect width="47" height="6" fill="#BD0909" transform="matrix(0 -1 -1 0 498 432)"/><rect width="33" height="8" fill="#BD0909" transform="matrix(0 -1 -1 0 521 433)"/><path fill="#BD0909" fill-rule="evenodd" d="M502.933 480L499 475.925V442H505V480H502.933Z" clip-rule="evenodd"/><rect width="56" height="6" fill="#BD0909" transform="matrix(0 -1 -1 0 484 429)"/><rect width="32" height="4" fill="#BD0909" transform="matrix(0 -1 -1 0 505 377)"/><rect width="26" height="5" fill="#BD0909" transform="matrix(1 0 0 -1 479 378)"/><rect width="15" height="4" fill="#BD0909" transform="matrix(1 0 0 -1 501 349)"/><rect width="17" height="3" fill="#BD0909" transform="matrix(1 0 0 -1 513 328)"/><rect width="10" height="8" fill="#BD0909" transform="matrix(1 0 0 -1 521 344)"/><rect width="23" height="3" fill="#BD0909" transform="matrix(0 -1 -1 0 516 348)"/><rect width="25" height="4" fill="#BD0909" transform="matrix(0 -1 -1 0 525 361)"/><rect width="25" height="4" fill="#BD0909" transform="matrix(0 -1 -1 0 512 382)"/><rect width="14" height="4" fill="#BD0909" transform="matrix(0 -1 -1 0 526 382)"/><rect width="18" height="8" fill="#BD0909" transform="matrix(1 0 0 -1 508 382)"/><rect width="16" height="4" fill="#BD0909" transform="matrix(1 0 0 -1 509 361)"/><rect width="390" height="6" x="536" y="537" fill="#BD0909" transform="rotate(180 536 537)"/><rect width="555" height="13" x="555" y="556" fill="#BD0909" transform="rotate(180 555 556)"/><rect width="7" height="22" x="449" y="537" fill="#BD0909" transform="rotate(180 449 537)"/><rect width="9" height="14" x="406" y="522" fill="#BD0909" transform="rotate(180 406 522)"/><rect width="9" height="54" x="446" y="506" fill="#BD0909" transform="rotate(180 446 506)"/><rect width="7" height="63" x="429" y="485" fill="#BD0909" transform="rotate(180 429 485)"/><rect width="6" height="38" x="391" y="531" fill="#BD0909" transform="rotate(180 391 531)"/><rect width="9" height="27" x="433" y="520" fill="#BD0909" transform="rotate(180 433 520)"/><rect width="68" height="6" x="510" y="521" fill="#BD0909" transform="rotate(180 510 521)"/><path fill="#BD0909" d="M508.823 521.02L437.019 452.017L437.019 441.016L518.5 521.004L508.823 521.02Z"/><path fill="#BD0909" d="M477.002 505.998L459.5 490L459.502 482.998L483.501 506.077L477.002 505.998Z"/><rect width="47" height="6" x="432" y="499" fill="#BD0909" transform="rotate(180 432 499)"/><rect width="33" height="8" x="433" y="522" fill="#BD0909" transform="rotate(180 433 522)"/><path fill="#BD0909" fill-rule="evenodd" d="M480 503.933L475.925 500H442V506H480V503.933Z" clip-rule="evenodd"/><rect width="56" height="6" x="429" y="485" fill="#BD0909" transform="rotate(180 429 485)"/><rect width="32" height="4" x="377" y="506" fill="#BD0909" transform="rotate(180 377 506)"/><rect width="26" height="5" x="378" y="480" fill="#BD0909" transform="rotate(90 378 480)"/><rect width="15" height="4" x="349" y="502" fill="#BD0909" transform="rotate(90 349 502)"/><rect width="17" height="3" x="328" y="514" fill="#BD0909" transform="rotate(90 328 514)"/><rect width="10" height="8" x="344" y="522" fill="#BD0909" transform="rotate(90 344 522)"/><rect width="23" height="3" x="348" y="517" fill="#BD0909" transform="rotate(180 348 517)"/><rect width="25" height="4" x="361" y="526" fill="#BD0909" transform="rotate(180 361 526)"/><rect width="25" height="4" x="382" y="513" fill="#BD0909" transform="rotate(180 382 513)"/><rect width="14" height="4" x="382" y="527" fill="#BD0909" transform="rotate(180 382 527)"/><rect width="18" height="8" x="382" y="509" fill="#BD0909" transform="rotate(90 382 509)"/><rect width="16" height="4" x="361" y="510" fill="#BD0909" transform="rotate(90 361 510)"/></g></svg>