<svg xmlns="http://www.w3.org/2000/svg" width="1012.709" height="620.67" viewBox="-112.453 -20.67 1012.709 620.67"><defs><linearGradient id="bf3b060f_1d4c_4e7c_8a28_7234f6567321_def0_SECRET" gradientTransform="rotate(45)"><stop offset="0%" stop-color="#e06c75"/><stop offset="50%" stop-color="#c678dd"/><stop offset="100%" stop-color="#61afef"/></linearGradient><linearGradient id="bf3b060f_1d4c_4e7c_8a28_7234f6567321_def1_AAA" gradientTransform="rotate(45)"><stop offset="0%" stop-color="#56b6c2"/><stop offset="70%" stop-color="#56b6c2"/><stop offset="100%" stop-color="#56b6c2"/></linearGradient><linearGradient id="bf3b060f_1d4c_4e7c_8a28_7234f6567321_def2_AA" gradientTransform="rotate(45)"><stop offset="0%" stop-color="#56b6c2"/><stop offset="70%" stop-color="#56b6c2"/><stop offset="100%" stop-color="#56b6c2"/></linearGradient><linearGradient id="bf3b060f_1d4c_4e7c_8a28_7234f6567321_def3_AA" gradientTransform="rotate(45)"><stop offset="0%" stop-color="#56b6c2"/><stop offset="70%" stop-color="#56b6c2"/><stop offset="100%" stop-color="#56b6c2"/></linearGradient><linearGradient id="bf3b060f_1d4c_4e7c_8a28_7234f6567321_def4_AA" gradientTransform="rotate(45)"><stop offset="0%" stop-color="#56b6c2"/><stop offset="70%" stop-color="#56b6c2"/><stop offset="100%" stop-color="#56b6c2"/></linearGradient><linearGradient id="bf3b060f_1d4c_4e7c_8a28_7234f6567321_def5_A" gradientTransform="rotate(45)"><stop offset="0%" stop-color="#56b6c2"/><stop offset="70%" stop-color="#56b6c2"/><stop offset="100%" stop-color="#56b6c2"/></linearGradient><linearGradient id="bf3b060f_1d4c_4e7c_8a28_7234f6567321_def6_B" gradientTransform="rotate(45)"><stop offset="0%" stop-color="#c678dd"/><stop offset="70%" stop-color="#c678dd"/><stop offset="100%" stop-color="#c678dd"/></linearGradient><linearGradient id="bf3b060f_1d4c_4e7c_8a28_7234f6567321_def7_B" gradientTransform="rotate(45)"><stop offset="0%" stop-color="#c678dd"/><stop offset="70%" stop-color="#c678dd"/><stop offset="100%" stop-color="#c678dd"/></linearGradient><linearGradient id="bf3b060f_1d4c_4e7c_8a28_7234f6567321_def8_C" gradientTransform="rotate(45)"><stop offset="0%" stop-color="#abb2bf"/><stop offset="50%" stop-color="#abb2bf"/><stop offset="100%" stop-color="#abb2bf"/></linearGradient><clipPath id="8e898692_ced9_4874_a2d2_10df2f969405_def0_outer_rectangle"><rect width="495" height="195" rx="10"/></clipPath><mask id="8e898692_ced9_4874_a2d2_10df2f969405_def0_mask_out_ring_behind_fire"><path fill="#fff" d="M0 0h495v195H0z"/><path id="mask-ellipse" fill="#000" d="M247.5 14a13 18 0 1 0 0 36 13 18 0 1 0 0-36"/></mask></defs><g fill="none" aria-labelledby="descId" role="img" transform="matrix(.98182 0 0 1.29744 -96.23 -20.67)"><desc id="descId">Total Stars Earned: 94, Total Commits in 2025 : 94, Total PRs: 17, Total Issues: 5, Contributed to (last year): 3</desc><style>.header {
            font: 600 18px &apos;Segoe UI&apos;, Ubuntu, Sans-Serif;
            fill: #bddfff;
            animation: fadeInAnimation 0.8s ease-in-out forwards;
          }
          @supports(-moz-appearance: auto) {
            /* Selector detects Firefox */
            .header { font-size: 15.5px; }
          }
          
    .stat {
      font: 600 14px &apos;Segoe UI&apos;, Ubuntu, &quot;Helvetica Neue&quot;, Sans-Serif; fill: #6e93b5;
    }
    @supports(-moz-appearance: auto) {
      /* Selector detects Firefox */
      .stat { font-size:12px; }
    }
    .stagger {
      opacity: 0;
      animation: fadeInAnimation 0.3s ease-in-out forwards;
    }
    .rank-text {
      font: 800 24px &apos;Segoe UI&apos;, Ubuntu, Sans-Serif; fill: #6e93b5;
      animation: scaleInAnimation 0.3s ease-in-out forwards;
    }
    
    .not_bold { font-weight: 400 }
    .bold { font-weight: 700 }
    .icon {
      fill: #38a0ff;
      display: block;
    }

    .rank-circle-rim {
      stroke: #bddfff;
      fill: none;
      stroke-width: 6;
      opacity: 0.2;
    }
    .rank-circle {
      stroke: #bddfff;
      stroke-dasharray: 250;
      fill: none;
      stroke-width: 6;
      stroke-linecap: round;
      opacity: 0.8;
      transform-origin: -10px 8px;
      transform: rotate(-90deg);
      animation: rankAnimation 1s forwards ease-in-out;
    }
    
    @keyframes rankAnimation {
      from {
        stroke-dashoffset: 251.32741228718345;
      }
      to {
        stroke-dashoffset: 123.62337615945967;
      }
    }
  
  

          
    /* Animations */
    @keyframes scaleInAnimation {
      from {
        transform: translate(-5px, 5px) scale(0);
      }
      to {
        transform: translate(-5px, 5px) scale(1);
      }
    }
    @keyframes fadeInAnimation {
      from {
        opacity: 0;
      }
      to {
        opacity: 1;
      }
    }.header {
            font: 600 18px &apos;Segoe UI&apos;, Ubuntu, Sans-Serif;
            fill: #c792ea;
            animation: fadeInAnimation 0.8s ease-in-out forwards;
          }
          @supports(-moz-appearance: auto) {
            /* Selector detects Firefox */
            .header { font-size: 15.5px; }
          }
          .lang-name { font: 400 11px &apos;Segoe UI&apos;, Ubuntu, Sans-Serif; fill: #7fdbca }

          
    /* Animations */
    @keyframes scaleInAnimation {
      from {
        transform: translate(-5px, 5px) scale(0);
      }
      to {
        transform: translate(-5px, 5px) scale(1);
      }
    }
    @keyframes fadeInAnimation {
      from {
        opacity: 0;
      }
      to {
        opacity: 1;
      }
    }
  
          * { animation-duration: 0s !important; animation-delay: 0s !important; }@keyframes MultiLanguageRankAnimation {
      from {
        width: 0px;
      }
      to {
        width: 80px;
      }
    }
    #MultiLanguage-rank-progress{
      animation: MultiLanguageRankAnimation 1s forwards ease-in-out;
    }@keyframes CommitsRankAnimation {
      from {
        width: 0px;
      }
      to {
        width: 1.6px;
      }
    }
    #Commits-rank-progress{
      animation: CommitsRankAnimation 1s forwards ease-in-out;
    }@keyframes StarsRankAnimation {
      from {
        width: 0px;
      }
      to {
        width: 70.4px;
      }
    }
    #Stars-rank-progress{
      animation: StarsRankAnimation 1s forwards ease-in-out;
    }@keyframes FollowersRankAnimation {
      from {
        width: 0px;
      }
      to {
        width: 30.4px;
      }
    }
    #Followers-rank-progress{
      animation: FollowersRankAnimation 1s forwards ease-in-out;
    }@keyframes RepositoriesRankAnimation {
      from {
        width: 0px;
      }
      to {
        width: 28px;
      }
    }
    #Repositories-rank-progress{
      animation: RepositoriesRankAnimation 1s forwards ease-in-out;
    }@keyframes ExperienceRankAnimation {
      from {
        width: 0px;
      }
      to {
        width: 11.428571428571427px;
      }
    }
    #Experience-rank-progress{
      animation: ExperienceRankAnimation 1s forwards ease-in-out;
    }@keyframes PullRequestRankAnimation {
      from {
        width: 0px;
      }
      to {
        width: 56px;
      }
    }
    #PullRequest-rank-progress{
      animation: PullRequestRankAnimation 1s forwards ease-in-out;
    }@keyframes ReviewsRankAnimation {
      from {
        width: 0px;
      }
      to {
        width: 16px;
      }
    }
    #Reviews-rank-progress{
      animation: ReviewsRankAnimation 1s forwards ease-in-out;
    }@keyframes IssuesRankAnimation {
      from {
        width: 0px;
      }
      to {
        width: 35.55555555555556px;
      }
    }
    #Issues-rank-progress{
      animation: IssuesRankAnimation 1s forwards ease-in-out;
    }@keyframes currstreak {
                0% { font-size: 3px; opacity: 0.2; }
                80% { font-size: 34px; opacity: 1; }
                100% { font-size: 28px; opacity: 1; }
            }
            @keyframes fadein {
                0% { opacity: 0; }
                100% { opacity: 1; }
            }</style><rect width="494" height="99%" x=".5" y=".5" fill="#172f45" stroke="#e4e2e2" data-testid="card-bg" rx="20"/><g data-testid="card-title" transform="translate(25 35)"><g><text class="header" data-testid="header">whiteSHADOW1234&apos;s GitHub Stats</text></g></g><g data-testid="main-card-body" transform="translate(0 55)"><g data-testid="rank-circle" transform="translate(400 47.5)"><path d="M-10-32a40 40 0 1 0 0 80 40 40 0 1 0 0-80z" class="rank-circle-rim"/><path d="M-10-32a40 40 0 1 0 0 80 40 40 0 1 0 0-80z" class="rank-circle"/><g class="rank-text"><text x="-5" y="3" alignment-baseline="central" dominant-baseline="central" text-anchor="middle">
            A+
          </text></g></g><svg><g><g class="stagger" style="animation-delay:450ms" transform="translate(25)"><svg width="16" height="16" class="icon" data-testid="icon" viewBox="0 0 16 16"><path fill-rule="evenodd" d="M8 .25a.75.75 0 0 1 .673.418l1.882 3.815 4.21.612a.75.75 0 0 1 .416 1.279l-3.046 2.97.719 4.192a.75.75 0 0 1-1.088.791L8 12.347l-3.766 1.98a.75.75 0 0 1-1.088-.79l.72-4.194L.818 6.374a.75.75 0 0 1 .416-1.28l4.21-.611L7.327.668A.75.75 0 0 1 8 .25m0 2.445L6.615 5.5a.75.75 0 0 1-.564.41l-3.097.45 2.24 2.184a.75.75 0 0 1 .216.664l-.528 3.084 2.769-1.456a.75.75 0 0 1 .698 0l2.77 1.456-.53-3.084a.75.75 0 0 1 .216-.664l2.24-2.183-3.096-.45a.75.75 0 0 1-.564-.41z"/></svg><text x="25" y="12.5" class="stat bold">Total Stars Earned:</text><text x="219.01" y="12.5" class="stat bold" data-testid="stars">94</text></g></g><g transform="translate(0 25)"><g class="stagger" style="animation-delay:600ms" transform="translate(25)"><svg width="16" height="16" class="icon" data-testid="icon" viewBox="0 0 16 16"><path fill-rule="evenodd" d="M1.643 3.143.427 1.927A.25.25 0 0 0 0 2.104V5.75c0 .138.112.25.25.25h3.646a.25.25 0 0 0 .177-.427L2.715 4.215a6.5 6.5 0 1 1-1.18 4.458.75.75 0 1 0-1.493.154 8.001 8.001 0 1 0 1.6-5.684zM7.75 4a.75.75 0 0 1 .75.75v2.992l2.028.812a.75.75 0 0 1-.557 1.392l-2.5-1A.75.75 0 0 1 7 8.25v-3.5A.75.75 0 0 1 7.75 4"/></svg><text x="25" y="12.5" class="stat bold">Total Commits (2025):</text><text x="219.01" y="12.5" class="stat bold" data-testid="commits">514</text></g></g><g transform="translate(0 50)"><g class="stagger" style="animation-delay:750ms" transform="translate(25)"><svg width="16" height="16" class="icon" data-testid="icon" viewBox="0 0 16 16"><path fill-rule="evenodd" d="M7.177 3.073 9.573.677A.25.25 0 0 1 10 .854v4.792a.25.25 0 0 1-.427.177L7.177 3.427a.25.25 0 0 1 0-.354M3.75 2.5a.75.75 0 1 0 0 1.5.75.75 0 0 0 0-1.5m-2.25.75a2.25 2.25 0 1 1 3 2.122v5.256a2.251 2.251 0 1 1-1.5 0V5.372A2.25 2.25 0 0 1 1.5 3.25M11 2.5h-1V4h1a1 1 0 0 1 1 1v5.628a2.251 2.251 0 1 0 1.5 0V5A2.5 2.5 0 0 0 11 2.5m1 10.25a.75.75 0 1 1 1.5 0 .75.75 0 0 1-1.5 0M3.75 12a.75.75 0 1 0 0 1.5.75.75 0 0 0 0-1.5"/></svg><text x="25" y="12.5" class="stat bold">Total PRs:</text><text x="219.01" y="12.5" class="stat bold" data-testid="prs">17</text></g></g><g transform="translate(0 75)"><g class="stagger" style="animation-delay:900ms" transform="translate(25)"><svg width="16" height="16" class="icon" data-testid="icon" viewBox="0 0 16 16"><path fill-rule="evenodd" d="M8 1.5a6.5 6.5 0 1 0 0 13 6.5 6.5 0 0 0 0-13M0 8a8 8 0 1 1 16 0A8 8 0 0 1 0 8m9 3a1 1 0 1 1-2 0 1 1 0 0 1 2 0m-.25-6.25a.75.75 0 0 0-1.5 0v3.5a.75.75 0 0 0 1.5 0z"/></svg><text x="25" y="12.5" class="stat bold">Total Issues:</text><text x="219.01" y="12.5" class="stat bold" data-testid="issues">5</text></g></g><g transform="translate(0 100)"><g class="stagger" style="animation-delay:1050ms" transform="translate(25)"><svg width="16" height="16" class="icon" data-testid="icon" viewBox="0 0 16 16"><path fill-rule="evenodd" d="M2 2.5A2.5 2.5 0 0 1 4.5 0h8.75a.75.75 0 0 1 .75.75v12.5a.75.75 0 0 1-.75.75h-2.5a.75.75 0 1 1 0-1.5h1.75v-2h-8a1 1 0 0 0-.714 1.7.75.75 0 0 1-1.072 1.05A2.5 2.5 0 0 1 2 11.5zm10.5-1V9h-8c-.356 0-.694.074-1 .208V2.5a1 1 0 0 1 1-1zM5 12.25v3.25a.25.25 0 0 0 .4.2l1.45-1.087a.25.25 0 0 1 .3 0L8.6 15.7a.25.25 0 0 0 .4-.2v-3.25a.25.25 0 0 0-.25-.25h-3.5a.25.25 0 0 0-.25.25"/></svg><text x="25" y="12.5" class="stat bold">Contributed to (last year):</text><text x="219.01" y="12.5" class="stat bold" data-testid="contribs">3</text></g></g></svg></g></g><g fill="none" aria-labelledby="descId" role="img" transform="matrix(1.36 0 0 1.69286 423 -11)"><rect width="349" height="99%" x=".5" y=".5" fill="#011627" stroke="#e4e2e2" data-testid="card-bg" rx="20"/><g data-testid="card-title" transform="translate(25 35)"><g><text class="header" data-testid="header">Most Used Languages</text></g></g><g data-testid="main-card-body" transform="translate(0 55)"><svg x="25" data-testid="lang-items"><mask id="rect-mask"><rect width="300" height="8" fill="#fff" rx="5"/></mask><path fill="#e4cc98" d="M0 0h217.29v8H0z" data-testid="lang-progress" mask="url(#rect-mask)"/><path fill="#3572A5" d="M217.29 0h34.11v8h-34.11z" data-testid="lang-progress" mask="url(#rect-mask)"/><path fill="#f34b7d" d="M251.4 0h24.71v8H251.4z" data-testid="lang-progress" mask="url(#rect-mask)"/><path fill="#00B4AB" d="M276.11 0h23.9v8h-23.9z" data-testid="lang-progress" mask="url(#rect-mask)"/><g transform="translate(0 25)"><g><g><g><path fill="#e4cc98" d="M5 1a5 5 0 1 0 0 10A5 5 0 1 0 5 1"/><text x="15" y="10" class="lang-name" data-testid="lang-name">
        Tcl 72.43%
      </text></g></g><g transform="translate(0 25)"><g><path fill="#3572A5" d="M5 1a5 5 0 1 0 0 10A5 5 0 1 0 5 1"/><text x="15" y="10" class="lang-name" data-testid="lang-name">
        Python 11.37%
      </text></g></g></g><g transform="translate(150)"><g><g><path fill="#f34b7d" d="M5 1a5 5 0 1 0 0 10A5 5 0 1 0 5 1"/><text x="15" y="10" class="lang-name" data-testid="lang-name">
        C++ 8.24%
      </text></g></g><g transform="translate(0 25)"><g><path fill="#00B4AB" d="M5 1a5 5 0 1 0 0 10A5 5 0 1 0 5 1"/><text x="15" y="10" class="lang-name" data-testid="lang-name">
        Dart 7.97%
      </text></g></g></g></g></svg></g></g><g fill="none" transform="matrix(.93523 0 0 .8909 -2 214)"><svg xmlns="http://www.w3.org/2000/svg" width="110" height="110" viewBox="0 0 110 110"><rect width="109" height="109" x=".5" y=".5" fill="#282c34" stroke="#e1e4e8" rx="4.5"/><defs><linearGradient id="SECRET" gradientTransform="rotate(45)"><stop offset="0%" stop-color="#e06c75"/><stop offset="50%" stop-color="#c678dd"/><stop offset="100%" stop-color="#61afef"/></linearGradient></defs><svg xmlns="http://www.w3.org/2000/svg" width="100" height="100" x="28" y="20" fill="url(#bf3b060f_1d4c_4e7c_8a28_7234f6567321_def0_SECRET)" viewBox="0 0 30 30"><path d="M7 10h2v4H7z"/><path d="M10 11c0 .552-.895 1-2 1s-2-.448-2-1 .895-1 2-1 2 .448 2 1"/><path fill-rule="evenodd" d="M12.5 3a2 2 0 1 0 0 4 2 2 0 0 0 0-4m-3 2a3 3 0 1 1 6 0 3 3 0 0 1-6 0m-6-2a2 2 0 1 0 0 4 2 2 0 0 0 0-4m-3 2a3 3 0 1 1 6 0 3 3 0 0 1-6 0"/><path d="M3 1h10c-.495 3.467-.5 10-5 10S3.495 4.467 3 1m0 15a1 1 0 0 1 1-1h8a1 1 0 0 1 1 1zm2-1a1 1 0 0 1 1-1h4a1 1 0 0 1 1 1z"/><path fill="#FFF" d="M8 2a4 4 0 1 0 0 8 4 4 0 1 0 0-8"/><text x="6" y="8" fill="#c678dd" font-family="Courier, Monospace" font-size="7">S</text></svg><text x="50%" y="18" fill="#e5c07b" font-family="Segoe UI,Helvetica,Arial,sans-serif,Apple Color Emoji,Segoe UI Emoji" font-size="13" font-weight="bold" text-anchor="middle">MultiLanguage</text><text x="50%" y="85" fill="#e06c75" font-family="Segoe UI,Helvetica,Arial,sans-serif,Apple Color Emoji,Segoe UI Emoji" font-size="10.5" font-weight="bold" text-anchor="middle">Rainbow Lang User</text><text x="50%" y="97" fill="#e06c75" font-family="Segoe UI,Helvetica,Arial,sans-serif,Apple Color Emoji,Segoe UI Emoji" font-size="10" font-weight="bold" text-anchor="middle">16pt</text><rect width="80" height="3.2" x="15" y="101" fill="#e5c07b" opacity=".3" rx="1"/><rect id="MultiLanguage-rank-progress" height="3.2" x="15" y="101" fill="#e5c07b" rx="1"/></svg><svg xmlns="http://www.w3.org/2000/svg" width="110" height="110" x="110" viewBox="0 0 110 110"><rect width="109" height="109" x=".5" y=".5" fill="#282c34" stroke="#e1e4e8" rx="4.5"/><svg xmlns="http://www.w3.org/2000/svg" width="120" height="120" viewBox="0 0 100 100"><g fill="#98c379" transform="matrix(.004 0 0 -.004 20 60)"><path d="M200 5103c0-2 18-40 41-84 47-95 62-132 50-125-15 10-18-39-6-87 31-121 265-468 412-608 124-119 281-222 383-251 36-10 49-16 30-13s-78 12-130 20c-117 17-353 35-477 35h-93l53-82c72-112 72-112 59-104-18 11-26-41-13-84 25-84 261-376 404-502 95-83 222-168 304-205 98-43 194-73 242-74l46-1-45-8c-25-5-124-21-220-36s-177-29-180-31c-2-2 0-7 5-11 27-19 138-144 123-139-18 6-28-10-28-47 0-38 53-108 141-187 349-313 631-450 939-453 63 0 131 2 150 7 19 4-35-17-120-46-236-82-310-110-310-117 0-3 29-28 65-54 55-40 102-84 67-62-13 8-32-24-32-54 0-99 486-361 790-426 125-27 327-25 444 4 113 28 261 98 309 145 39 40 56 92 38 124-8 17-4 24 29 49 22 16 40 32 40 36s-26 40-58 80c-162 203-368 328-608 369-89 15-368 6-474-15-131-26-147-26-59-3 51 13 102 34 122 50 38 29 61 84 51 123-5 18 1 26 25 39 17 8 31 19 31 23s-16 38-35 75c-163 317-424 501-781 548-113 15-127 19-91 30 51 14 84 58 89 118 1 20 9 33 20 37 23 7 23 6-12 114-108 329-305 534-640 662-41 15-59 25-40 21 19-5 82-8 140-8 81 0 113 4 142 18 39 20 73 76 65 107-3 12 2 20 14 23 23 6 23 21 4 124-61 320-249 568-544 718-157 79-394 147-666 190-88 13-170 26-182 29-13 2-23 2-23-1"/><path d="M12550 5099c-232-36-334-55-445-84-484-122-761-346-880-712-26-79-57-242-48-255 2-5 14-8 26-9 12 0 16-3 10-6-17-6-16-38 2-72 25-49 75-66 200-66 61 0 124 4 140 8 17 5-13-9-66-31-136-55-250-126-341-211-128-120-217-263-272-439-32-101-32-110-3-122 12-5 17-9 11-9-8-1-9-12-5-34 15-66 41-95 94-107 31-7 31-7 7-12-14-3-72-13-130-22-322-51-553-206-714-479-25-42-52-92-60-111-14-33-14-33 23-54 20-12 31-22 26-22-15 0-17-39-4-78 14-42 76-88 130-97 22-4 39-9 36-11-2-2-55 3-118 12-154 22-395 15-494-13-216-62-391-184-545-380l-41-52 40-32c34-27 39-35 30-51-17-33-1-85 38-125 48-47 196-117 309-145 117-29 319-31 444-4 300 64 790 328 790 425 0 29-18 63-31 56-5-4-9-4-9-2 0 3 34 29 75 59 41 29 75 56 75 59s-21 13-47 22c-349 120-422 146-388 140 59-12 241-8 310 6 208 43 437 158 636 322 241 199 314 293 265 342-13 12-6 24 51 86 36 40 64 73 62 75-4 2-107 20-359 60-70 12-77 14-39 15 48 1 144 31 241 74 139 62 318 202 451 352 104 117 225 279 249 333 21 47 21 99 0 94-16-3-10 9 58 116l50 77-72 3c-91 4-362-14-488-33-179-26-179-26-116-9 93 26 244 120 365 230 193 174 467 605 443 696-2 10-8 15-13 12-12-7 3 30 51 126 23 45 40 85 38 89s-23 4-48 0m-933-1185c-3-3-12-4-19-1-8 3-5 6 6 6 11 1 17-2 13-5m-1290-1860c-3-3-12-4-19-1-8 3-5 6 6 6 11 1 17-2 13-5m40-10c-3-3-12-4-19-1-8 3-5 6 6 6 11 1 17-2 13-5"/><path d="M10242 4632c-46-140-92-319-118-457-18-94-28-519-12-509 4 3 5-8 2-25-8-40 21-179 58-274 75-195 297-437 400-437 57 0 124 70 177 185 53 112 67 224 65 510-1 120-5 166-23 233-66 252-206 515-423 795-39 51-74 95-77 99-4 4-26-50-49-120"/><path d="M2407 4612c-305-408-443-757-422-1067 3-55 8-140 10-190 5-113 30-204 83-293 44-74 88-118 128-128 102-26 339 218 422 433 34 87 67 235 58 258-3 9-1 39 5 68 5 28 10 117 10 197 1 155-15 284-57 455-33 137-117 405-126 405-5 0-55-62-111-138"/><path d="M2970 3839c-189-385-254-632-248-941 2-86 6-151 10-145 5 7 5-2 2-19-19-98 77-354 181-487 76-96 141-120 210-77 70 43 195 240 239 375 20 63 46 197 40 207-3 4 0 54 6 111 26 257-51 553-240 922-42 83-87 165-98 184l-21 35z"/><path d="M9711 3929c-124-219-230-466-276-642-39-151-47-234-41-426 7-237 39-357 136-517 136-225 233-251 355-97 94 121 171 313 181 453 2 36 8 111 13 167 26 288-56 600-266 1017l-60 120z"/><path d="M3645 3278c-2-7-14-78-27-158-19-123-22-188-23-430-2-309 7-401 50-555 66-232 204-430 388-552 120-80 189-70 245 34 36 69 74 205 78 283 1 30 5 109 9 175 9 135-1 213-41 339-66 208-198 406-429 645-147 152-244 237-250 219"/><path d="M8994 3143c-289-284-435-492-514-732-32-100-55-261-45-330 3-25 8-91 10-146 7-168 66-347 129-387 77-48 196 11 347 170 94 98 156 199 205 331 37 99 67 234 59 262-4 11-2 19 5 19 8 0 10 8 7 21-3 11 1 77 10 147 10 89 13 172 9 277-7 191-48 515-65 515-3 0-74-66-157-147"/><path d="M4501 2358c52-129 69-179 59-173-6 4-10-12-10-42 0-78 115-313 252-514 215-317 529-509 832-509 124 0 166 27 180 112 1 11 8 23 15 27 10 7 11 27 2 98-66 545-401 836-1164 1012-97 23-179 41-182 41s5-24 16-52"/><path d="M8159 2375c-609-138-940-344-1096-683-59-127-110-377-88-429 5-10 10-29 12-42 13-75 59-101 179-101 316 0 625 196 854 543 110 165 222 395 228 465 3 40 2 53-7 48-11-7-3 15 53 153 28 68 31 81 19 80-5 0-74-16-154-34"/><path d="M4032 1479c-193-25-435-124-667-274-108-69-314-218-315-226 0-4 28-16 63-29 66-24 92-40 65-40-10 0-19-12-23-30-14-65 45-105 226-154 572-155 982-93 1270 194 75 74 101 131 81 174-9 21-6 31 29 77 21 29 39 55 39 58s-25 24-55 46c-229 167-469 236-713 204"/><path d="M8513 1476c-155-30-317-101-446-196l-67-50 40-54c37-49 40-56 29-80-21-46 4-101 80-176 288-287 698-349 1270-194 180 49 240 89 226 153-3 16-14 31-23 33s18 18 61 35l79 30-126 92c-304 223-550 347-780 395-113 23-257 28-343 12"/><path d="M6324 1249c-48-14-120-83-139-134-13-34-16-60-11-112 4-37 6-84 6-103-2-95 62-193 145-220 138-46 285 52 292 195 1 28 8 71 14 97 10 37 10 60 0 101-31 139-167 217-307 176"/><path d="M5255 1054c-276-46-587-227-935-541l-54-50 74-23c41-13 67-25 58-27-23-6-34-48-20-78 16-35 75-61 188-84 568-115 968-37 1250 243 69 69 110 130 114 171 5 42 0 66-12 59-12-8-12-7 39 73 18 29 33 56 33 62 0 15-49 46-147 95-207 104-386 135-588 100"/><path d="M7249 1054c-42-7-109-25-150-40-76-27-226-101-267-133l-24-18 41-66c22-37 36-67 31-67-18 0-11-80 11-121 11-22 53-73 92-113 279-282 682-361 1251-245 113 23 172 49 188 84 14 30 3 72-20 77-9 3 18 15 61 29l78 24-93 81c-362 313-622 460-902 509-106 18-194 18-297-1"/></g></svg><svg xmlns="http://www.w3.org/2000/svg" width="65" height="65" x="7" y="35" fill="#56b6c2" viewBox="0 0 30 30"><path d="M7 10h2v4H7z"/><path d="M10 11c0 .552-.895 1-2 1s-2-.448-2-1 .895-1 2-1 2 .448 2 1"/><path fill-rule="evenodd" d="M12.5 3a2 2 0 1 0 0 4 2 2 0 0 0 0-4m-3 2a3 3 0 1 1 6 0 3 3 0 0 1-6 0m-6-2a2 2 0 1 0 0 4 2 2 0 0 0 0-4m-3 2a3 3 0 1 1 6 0 3 3 0 0 1-6 0"/><path d="M3 1h10c-.495 3.467-.5 10-5 10S3.495 4.467 3 1m0 15a1 1 0 0 1 1-1h8a1 1 0 0 1 1 1zm2-1a1 1 0 0 1 1-1h4a1 1 0 0 1 1 1z"/><path fill="#FFF" d="M8 2a4 4 0 1 0 0 8 4 4 0 1 0 0-8"/><text x="6" y="8" fill="#282c34" font-family="Courier, Monospace" font-size="7">A</text></svg><svg xmlns="http://www.w3.org/2000/svg" width="65" height="65" x="68" y="35" fill="#56b6c2" viewBox="0 0 30 30"><path d="M7 10h2v4H7z"/><path d="M10 11c0 .552-.895 1-2 1s-2-.448-2-1 .895-1 2-1 2 .448 2 1"/><path fill-rule="evenodd" d="M12.5 3a2 2 0 1 0 0 4 2 2 0 0 0 0-4m-3 2a3 3 0 1 1 6 0 3 3 0 0 1-6 0m-6-2a2 2 0 1 0 0 4 2 2 0 0 0 0-4m-3 2a3 3 0 1 1 6 0 3 3 0 0 1-6 0"/><path d="M3 1h10c-.495 3.467-.5 10-5 10S3.495 4.467 3 1m0 15a1 1 0 0 1 1-1h8a1 1 0 0 1 1 1zm2-1a1 1 0 0 1 1-1h4a1 1 0 0 1 1 1z"/><path fill="#FFF" d="M8 2a4 4 0 1 0 0 8 4 4 0 1 0 0-8"/><text x="6" y="8" fill="#282c34" font-family="Courier, Monospace" font-size="7">A</text></svg><defs><linearGradient id="AAA" gradientTransform="rotate(45)"><stop offset="0%" stop-color="#56b6c2"/><stop offset="70%" stop-color="#56b6c2"/><stop offset="100%" stop-color="#56b6c2"/></linearGradient></defs><svg xmlns="http://www.w3.org/2000/svg" width="100" height="100" x="28" y="20" fill="url(#bf3b060f_1d4c_4e7c_8a28_7234f6567321_def1_AAA)" viewBox="0 0 30 30"><path d="M7 10h2v4H7z"/><path d="M10 11c0 .552-.895 1-2 1s-2-.448-2-1 .895-1 2-1 2 .448 2 1"/><path fill-rule="evenodd" d="M12.5 3a2 2 0 1 0 0 4 2 2 0 0 0 0-4m-3 2a3 3 0 1 1 6 0 3 3 0 0 1-6 0m-6-2a2 2 0 1 0 0 4 2 2 0 0 0 0-4m-3 2a3 3 0 1 1 6 0 3 3 0 0 1-6 0"/><path d="M3 1h10c-.495 3.467-.5 10-5 10S3.495 4.467 3 1m0 15a1 1 0 0 1 1-1h8a1 1 0 0 1 1 1zm2-1a1 1 0 0 1 1-1h4a1 1 0 0 1 1 1z"/><path fill="#FFF" d="M8 2a4 4 0 1 0 0 8 4 4 0 1 0 0-8"/><text x="6" y="8" fill="#282c34" font-family="Courier, Monospace" font-size="7">A</text></svg><text x="50%" y="18" fill="#e5c07b" font-family="Segoe UI,Helvetica,Arial,sans-serif,Apple Color Emoji,Segoe UI Emoji" font-size="13" font-weight="bold" text-anchor="middle">Commits</text><text x="50%" y="85" fill="#e06c75" font-family="Segoe UI,Helvetica,Arial,sans-serif,Apple Color Emoji,Segoe UI Emoji" font-size="10.5" font-weight="bold" text-anchor="middle">Ultra Committer</text><text x="50%" y="97" fill="#e06c75" font-family="Segoe UI,Helvetica,Arial,sans-serif,Apple Color Emoji,Segoe UI Emoji" font-size="10" font-weight="bold" text-anchor="middle">510pt</text><rect width="80" height="3.2" x="15" y="101" fill="#e5c07b" opacity=".3" rx="1"/><rect id="Commits-rank-progress" height="3.2" x="15" y="101" fill="#e5c07b" rx="1"/></svg><svg xmlns="http://www.w3.org/2000/svg" width="110" height="110" x="220" viewBox="0 0 110 110"><rect width="109" height="109" x=".5" y=".5" fill="#282c34" stroke="#e1e4e8" rx="4.5"/><svg xmlns="http://www.w3.org/2000/svg" width="120" height="120" viewBox="0 0 100 100"><g fill="#98c379" transform="matrix(.004 0 0 -.004 20 60)"><path d="M200 5103c0-2 18-40 41-84 47-95 62-132 50-125-15 10-18-39-6-87 31-121 265-468 412-608 124-119 281-222 383-251 36-10 49-16 30-13s-78 12-130 20c-117 17-353 35-477 35h-93l53-82c72-112 72-112 59-104-18 11-26-41-13-84 25-84 261-376 404-502 95-83 222-168 304-205 98-43 194-73 242-74l46-1-45-8c-25-5-124-21-220-36s-177-29-180-31c-2-2 0-7 5-11 27-19 138-144 123-139-18 6-28-10-28-47 0-38 53-108 141-187 349-313 631-450 939-453 63 0 131 2 150 7 19 4-35-17-120-46-236-82-310-110-310-117 0-3 29-28 65-54 55-40 102-84 67-62-13 8-32-24-32-54 0-99 486-361 790-426 125-27 327-25 444 4 113 28 261 98 309 145 39 40 56 92 38 124-8 17-4 24 29 49 22 16 40 32 40 36s-26 40-58 80c-162 203-368 328-608 369-89 15-368 6-474-15-131-26-147-26-59-3 51 13 102 34 122 50 38 29 61 84 51 123-5 18 1 26 25 39 17 8 31 19 31 23s-16 38-35 75c-163 317-424 501-781 548-113 15-127 19-91 30 51 14 84 58 89 118 1 20 9 33 20 37 23 7 23 6-12 114-108 329-305 534-640 662-41 15-59 25-40 21 19-5 82-8 140-8 81 0 113 4 142 18 39 20 73 76 65 107-3 12 2 20 14 23 23 6 23 21 4 124-61 320-249 568-544 718-157 79-394 147-666 190-88 13-170 26-182 29-13 2-23 2-23-1"/><path d="M12550 5099c-232-36-334-55-445-84-484-122-761-346-880-712-26-79-57-242-48-255 2-5 14-8 26-9 12 0 16-3 10-6-17-6-16-38 2-72 25-49 75-66 200-66 61 0 124 4 140 8 17 5-13-9-66-31-136-55-250-126-341-211-128-120-217-263-272-439-32-101-32-110-3-122 12-5 17-9 11-9-8-1-9-12-5-34 15-66 41-95 94-107 31-7 31-7 7-12-14-3-72-13-130-22-322-51-553-206-714-479-25-42-52-92-60-111-14-33-14-33 23-54 20-12 31-22 26-22-15 0-17-39-4-78 14-42 76-88 130-97 22-4 39-9 36-11-2-2-55 3-118 12-154 22-395 15-494-13-216-62-391-184-545-380l-41-52 40-32c34-27 39-35 30-51-17-33-1-85 38-125 48-47 196-117 309-145 117-29 319-31 444-4 300 64 790 328 790 425 0 29-18 63-31 56-5-4-9-4-9-2 0 3 34 29 75 59 41 29 75 56 75 59s-21 13-47 22c-349 120-422 146-388 140 59-12 241-8 310 6 208 43 437 158 636 322 241 199 314 293 265 342-13 12-6 24 51 86 36 40 64 73 62 75-4 2-107 20-359 60-70 12-77 14-39 15 48 1 144 31 241 74 139 62 318 202 451 352 104 117 225 279 249 333 21 47 21 99 0 94-16-3-10 9 58 116l50 77-72 3c-91 4-362-14-488-33-179-26-179-26-116-9 93 26 244 120 365 230 193 174 467 605 443 696-2 10-8 15-13 12-12-7 3 30 51 126 23 45 40 85 38 89s-23 4-48 0m-933-1185c-3-3-12-4-19-1-8 3-5 6 6 6 11 1 17-2 13-5m-1290-1860c-3-3-12-4-19-1-8 3-5 6 6 6 11 1 17-2 13-5m40-10c-3-3-12-4-19-1-8 3-5 6 6 6 11 1 17-2 13-5"/><path d="M10242 4632c-46-140-92-319-118-457-18-94-28-519-12-509 4 3 5-8 2-25-8-40 21-179 58-274 75-195 297-437 400-437 57 0 124 70 177 185 53 112 67 224 65 510-1 120-5 166-23 233-66 252-206 515-423 795-39 51-74 95-77 99-4 4-26-50-49-120"/><path d="M2407 4612c-305-408-443-757-422-1067 3-55 8-140 10-190 5-113 30-204 83-293 44-74 88-118 128-128 102-26 339 218 422 433 34 87 67 235 58 258-3 9-1 39 5 68 5 28 10 117 10 197 1 155-15 284-57 455-33 137-117 405-126 405-5 0-55-62-111-138"/><path d="M2970 3839c-189-385-254-632-248-941 2-86 6-151 10-145 5 7 5-2 2-19-19-98 77-354 181-487 76-96 141-120 210-77 70 43 195 240 239 375 20 63 46 197 40 207-3 4 0 54 6 111 26 257-51 553-240 922-42 83-87 165-98 184l-21 35z"/><path d="M9711 3929c-124-219-230-466-276-642-39-151-47-234-41-426 7-237 39-357 136-517 136-225 233-251 355-97 94 121 171 313 181 453 2 36 8 111 13 167 26 288-56 600-266 1017l-60 120z"/><path d="M3645 3278c-2-7-14-78-27-158-19-123-22-188-23-430-2-309 7-401 50-555 66-232 204-430 388-552 120-80 189-70 245 34 36 69 74 205 78 283 1 30 5 109 9 175 9 135-1 213-41 339-66 208-198 406-429 645-147 152-244 237-250 219"/><path d="M8994 3143c-289-284-435-492-514-732-32-100-55-261-45-330 3-25 8-91 10-146 7-168 66-347 129-387 77-48 196 11 347 170 94 98 156 199 205 331 37 99 67 234 59 262-4 11-2 19 5 19 8 0 10 8 7 21-3 11 1 77 10 147 10 89 13 172 9 277-7 191-48 515-65 515-3 0-74-66-157-147"/><path d="M4501 2358c52-129 69-179 59-173-6 4-10-12-10-42 0-78 115-313 252-514 215-317 529-509 832-509 124 0 166 27 180 112 1 11 8 23 15 27 10 7 11 27 2 98-66 545-401 836-1164 1012-97 23-179 41-182 41s5-24 16-52"/><path d="M8159 2375c-609-138-940-344-1096-683-59-127-110-377-88-429 5-10 10-29 12-42 13-75 59-101 179-101 316 0 625 196 854 543 110 165 222 395 228 465 3 40 2 53-7 48-11-7-3 15 53 153 28 68 31 81 19 80-5 0-74-16-154-34"/><path d="M4032 1479c-193-25-435-124-667-274-108-69-314-218-315-226 0-4 28-16 63-29 66-24 92-40 65-40-10 0-19-12-23-30-14-65 45-105 226-154 572-155 982-93 1270 194 75 74 101 131 81 174-9 21-6 31 29 77 21 29 39 55 39 58s-25 24-55 46c-229 167-469 236-713 204"/><path d="M8513 1476c-155-30-317-101-446-196l-67-50 40-54c37-49 40-56 29-80-21-46 4-101 80-176 288-287 698-349 1270-194 180 49 240 89 226 153-3 16-14 31-23 33s18 18 61 35l79 30-126 92c-304 223-550 347-780 395-113 23-257 28-343 12"/><path d="M6324 1249c-48-14-120-83-139-134-13-34-16-60-11-112 4-37 6-84 6-103-2-95 62-193 145-220 138-46 285 52 292 195 1 28 8 71 14 97 10 37 10 60 0 101-31 139-167 217-307 176"/><path d="M5255 1054c-276-46-587-227-935-541l-54-50 74-23c41-13 67-25 58-27-23-6-34-48-20-78 16-35 75-61 188-84 568-115 968-37 1250 243 69 69 110 130 114 171 5 42 0 66-12 59-12-8-12-7 39 73 18 29 33 56 33 62 0 15-49 46-147 95-207 104-386 135-588 100"/><path d="M7249 1054c-42-7-109-25-150-40-76-27-226-101-267-133l-24-18 41-66c22-37 36-67 31-67-18 0-11-80 11-121 11-22 53-73 92-113 279-282 682-361 1251-245 113 23 172 49 188 84 14 30 3 72-20 77-9 3 18 15 61 29l78 24-93 81c-362 313-622 460-902 509-106 18-194 18-297-1"/></g></svg><svg xmlns="http://www.w3.org/2000/svg" width="65" height="65" x="68" y="35" fill="#56b6c2" viewBox="0 0 30 30"><path d="M7 10h2v4H7z"/><path d="M10 11c0 .552-.895 1-2 1s-2-.448-2-1 .895-1 2-1 2 .448 2 1"/><path fill-rule="evenodd" d="M12.5 3a2 2 0 1 0 0 4 2 2 0 0 0 0-4m-3 2a3 3 0 1 1 6 0 3 3 0 0 1-6 0m-6-2a2 2 0 1 0 0 4 2 2 0 0 0 0-4m-3 2a3 3 0 1 1 6 0 3 3 0 0 1-6 0"/><path d="M3 1h10c-.495 3.467-.5 10-5 10S3.495 4.467 3 1m0 15a1 1 0 0 1 1-1h8a1 1 0 0 1 1 1zm2-1a1 1 0 0 1 1-1h4a1 1 0 0 1 1 1z"/><path fill="#FFF" d="M8 2a4 4 0 1 0 0 8 4 4 0 1 0 0-8"/><text x="6" y="8" fill="#282c34" font-family="Courier, Monospace" font-size="7">A</text></svg><defs><linearGradient id="AA" gradientTransform="rotate(45)"><stop offset="0%" stop-color="#56b6c2"/><stop offset="70%" stop-color="#56b6c2"/><stop offset="100%" stop-color="#56b6c2"/></linearGradient></defs><svg xmlns="http://www.w3.org/2000/svg" width="100" height="100" x="28" y="20" fill="url(#bf3b060f_1d4c_4e7c_8a28_7234f6567321_def2_AA)" viewBox="0 0 30 30"><path d="M7 10h2v4H7z"/><path d="M10 11c0 .552-.895 1-2 1s-2-.448-2-1 .895-1 2-1 2 .448 2 1"/><path fill-rule="evenodd" d="M12.5 3a2 2 0 1 0 0 4 2 2 0 0 0 0-4m-3 2a3 3 0 1 1 6 0 3 3 0 0 1-6 0m-6-2a2 2 0 1 0 0 4 2 2 0 0 0 0-4m-3 2a3 3 0 1 1 6 0 3 3 0 0 1-6 0"/><path d="M3 1h10c-.495 3.467-.5 10-5 10S3.495 4.467 3 1m0 15a1 1 0 0 1 1-1h8a1 1 0 0 1 1 1zm2-1a1 1 0 0 1 1-1h4a1 1 0 0 1 1 1z"/><path fill="#FFF" d="M8 2a4 4 0 1 0 0 8 4 4 0 1 0 0-8"/><text x="6" y="8" fill="#282c34" font-family="Courier, Monospace" font-size="7">A</text></svg><text x="50%" y="18" fill="#e5c07b" font-family="Segoe UI,Helvetica,Arial,sans-serif,Apple Color Emoji,Segoe UI Emoji" font-size="13" font-weight="bold" text-anchor="middle">Stars</text><text x="50%" y="85" fill="#e06c75" font-family="Segoe UI,Helvetica,Arial,sans-serif,Apple Color Emoji,Segoe UI Emoji" font-size="10.5" font-weight="bold" text-anchor="middle">High Star</text><text x="50%" y="97" fill="#e06c75" font-family="Segoe UI,Helvetica,Arial,sans-serif,Apple Color Emoji,Segoe UI Emoji" font-size="10" font-weight="bold" text-anchor="middle">94pt</text><rect width="80" height="3.2" x="15" y="101" fill="#e5c07b" opacity=".3" rx="1"/><rect id="Stars-rank-progress" height="3.2" x="15" y="101" fill="#e5c07b" rx="1"/></svg><svg xmlns="http://www.w3.org/2000/svg" width="110" height="110" x="330" viewBox="0 0 110 110"><rect width="109" height="109" x=".5" y=".5" fill="#282c34" stroke="#e1e4e8" rx="4.5"/><svg xmlns="http://www.w3.org/2000/svg" width="120" height="120" viewBox="0 0 100 100"><g fill="#98c379" transform="matrix(.004 0 0 -.004 20 60)"><path d="M200 5103c0-2 18-40 41-84 47-95 62-132 50-125-15 10-18-39-6-87 31-121 265-468 412-608 124-119 281-222 383-251 36-10 49-16 30-13s-78 12-130 20c-117 17-353 35-477 35h-93l53-82c72-112 72-112 59-104-18 11-26-41-13-84 25-84 261-376 404-502 95-83 222-168 304-205 98-43 194-73 242-74l46-1-45-8c-25-5-124-21-220-36s-177-29-180-31c-2-2 0-7 5-11 27-19 138-144 123-139-18 6-28-10-28-47 0-38 53-108 141-187 349-313 631-450 939-453 63 0 131 2 150 7 19 4-35-17-120-46-236-82-310-110-310-117 0-3 29-28 65-54 55-40 102-84 67-62-13 8-32-24-32-54 0-99 486-361 790-426 125-27 327-25 444 4 113 28 261 98 309 145 39 40 56 92 38 124-8 17-4 24 29 49 22 16 40 32 40 36s-26 40-58 80c-162 203-368 328-608 369-89 15-368 6-474-15-131-26-147-26-59-3 51 13 102 34 122 50 38 29 61 84 51 123-5 18 1 26 25 39 17 8 31 19 31 23s-16 38-35 75c-163 317-424 501-781 548-113 15-127 19-91 30 51 14 84 58 89 118 1 20 9 33 20 37 23 7 23 6-12 114-108 329-305 534-640 662-41 15-59 25-40 21 19-5 82-8 140-8 81 0 113 4 142 18 39 20 73 76 65 107-3 12 2 20 14 23 23 6 23 21 4 124-61 320-249 568-544 718-157 79-394 147-666 190-88 13-170 26-182 29-13 2-23 2-23-1"/><path d="M12550 5099c-232-36-334-55-445-84-484-122-761-346-880-712-26-79-57-242-48-255 2-5 14-8 26-9 12 0 16-3 10-6-17-6-16-38 2-72 25-49 75-66 200-66 61 0 124 4 140 8 17 5-13-9-66-31-136-55-250-126-341-211-128-120-217-263-272-439-32-101-32-110-3-122 12-5 17-9 11-9-8-1-9-12-5-34 15-66 41-95 94-107 31-7 31-7 7-12-14-3-72-13-130-22-322-51-553-206-714-479-25-42-52-92-60-111-14-33-14-33 23-54 20-12 31-22 26-22-15 0-17-39-4-78 14-42 76-88 130-97 22-4 39-9 36-11-2-2-55 3-118 12-154 22-395 15-494-13-216-62-391-184-545-380l-41-52 40-32c34-27 39-35 30-51-17-33-1-85 38-125 48-47 196-117 309-145 117-29 319-31 444-4 300 64 790 328 790 425 0 29-18 63-31 56-5-4-9-4-9-2 0 3 34 29 75 59 41 29 75 56 75 59s-21 13-47 22c-349 120-422 146-388 140 59-12 241-8 310 6 208 43 437 158 636 322 241 199 314 293 265 342-13 12-6 24 51 86 36 40 64 73 62 75-4 2-107 20-359 60-70 12-77 14-39 15 48 1 144 31 241 74 139 62 318 202 451 352 104 117 225 279 249 333 21 47 21 99 0 94-16-3-10 9 58 116l50 77-72 3c-91 4-362-14-488-33-179-26-179-26-116-9 93 26 244 120 365 230 193 174 467 605 443 696-2 10-8 15-13 12-12-7 3 30 51 126 23 45 40 85 38 89s-23 4-48 0m-933-1185c-3-3-12-4-19-1-8 3-5 6 6 6 11 1 17-2 13-5m-1290-1860c-3-3-12-4-19-1-8 3-5 6 6 6 11 1 17-2 13-5m40-10c-3-3-12-4-19-1-8 3-5 6 6 6 11 1 17-2 13-5"/><path d="M10242 4632c-46-140-92-319-118-457-18-94-28-519-12-509 4 3 5-8 2-25-8-40 21-179 58-274 75-195 297-437 400-437 57 0 124 70 177 185 53 112 67 224 65 510-1 120-5 166-23 233-66 252-206 515-423 795-39 51-74 95-77 99-4 4-26-50-49-120"/><path d="M2407 4612c-305-408-443-757-422-1067 3-55 8-140 10-190 5-113 30-204 83-293 44-74 88-118 128-128 102-26 339 218 422 433 34 87 67 235 58 258-3 9-1 39 5 68 5 28 10 117 10 197 1 155-15 284-57 455-33 137-117 405-126 405-5 0-55-62-111-138"/><path d="M2970 3839c-189-385-254-632-248-941 2-86 6-151 10-145 5 7 5-2 2-19-19-98 77-354 181-487 76-96 141-120 210-77 70 43 195 240 239 375 20 63 46 197 40 207-3 4 0 54 6 111 26 257-51 553-240 922-42 83-87 165-98 184l-21 35z"/><path d="M9711 3929c-124-219-230-466-276-642-39-151-47-234-41-426 7-237 39-357 136-517 136-225 233-251 355-97 94 121 171 313 181 453 2 36 8 111 13 167 26 288-56 600-266 1017l-60 120z"/><path d="M3645 3278c-2-7-14-78-27-158-19-123-22-188-23-430-2-309 7-401 50-555 66-232 204-430 388-552 120-80 189-70 245 34 36 69 74 205 78 283 1 30 5 109 9 175 9 135-1 213-41 339-66 208-198 406-429 645-147 152-244 237-250 219"/><path d="M8994 3143c-289-284-435-492-514-732-32-100-55-261-45-330 3-25 8-91 10-146 7-168 66-347 129-387 77-48 196 11 347 170 94 98 156 199 205 331 37 99 67 234 59 262-4 11-2 19 5 19 8 0 10 8 7 21-3 11 1 77 10 147 10 89 13 172 9 277-7 191-48 515-65 515-3 0-74-66-157-147"/><path d="M4501 2358c52-129 69-179 59-173-6 4-10-12-10-42 0-78 115-313 252-514 215-317 529-509 832-509 124 0 166 27 180 112 1 11 8 23 15 27 10 7 11 27 2 98-66 545-401 836-1164 1012-97 23-179 41-182 41s5-24 16-52"/><path d="M8159 2375c-609-138-940-344-1096-683-59-127-110-377-88-429 5-10 10-29 12-42 13-75 59-101 179-101 316 0 625 196 854 543 110 165 222 395 228 465 3 40 2 53-7 48-11-7-3 15 53 153 28 68 31 81 19 80-5 0-74-16-154-34"/><path d="M4032 1479c-193-25-435-124-667-274-108-69-314-218-315-226 0-4 28-16 63-29 66-24 92-40 65-40-10 0-19-12-23-30-14-65 45-105 226-154 572-155 982-93 1270 194 75 74 101 131 81 174-9 21-6 31 29 77 21 29 39 55 39 58s-25 24-55 46c-229 167-469 236-713 204"/><path d="M8513 1476c-155-30-317-101-446-196l-67-50 40-54c37-49 40-56 29-80-21-46 4-101 80-176 288-287 698-349 1270-194 180 49 240 89 226 153-3 16-14 31-23 33s18 18 61 35l79 30-126 92c-304 223-550 347-780 395-113 23-257 28-343 12"/><path d="M6324 1249c-48-14-120-83-139-134-13-34-16-60-11-112 4-37 6-84 6-103-2-95 62-193 145-220 138-46 285 52 292 195 1 28 8 71 14 97 10 37 10 60 0 101-31 139-167 217-307 176"/><path d="M5255 1054c-276-46-587-227-935-541l-54-50 74-23c41-13 67-25 58-27-23-6-34-48-20-78 16-35 75-61 188-84 568-115 968-37 1250 243 69 69 110 130 114 171 5 42 0 66-12 59-12-8-12-7 39 73 18 29 33 56 33 62 0 15-49 46-147 95-207 104-386 135-588 100"/><path d="M7249 1054c-42-7-109-25-150-40-76-27-226-101-267-133l-24-18 41-66c22-37 36-67 31-67-18 0-11-80 11-121 11-22 53-73 92-113 279-282 682-361 1251-245 113 23 172 49 188 84 14 30 3 72-20 77-9 3 18 15 61 29l78 24-93 81c-362 313-622 460-902 509-106 18-194 18-297-1"/></g></svg><svg xmlns="http://www.w3.org/2000/svg" width="65" height="65" x="68" y="35" fill="#56b6c2" viewBox="0 0 30 30"><path d="M7 10h2v4H7z"/><path d="M10 11c0 .552-.895 1-2 1s-2-.448-2-1 .895-1 2-1 2 .448 2 1"/><path fill-rule="evenodd" d="M12.5 3a2 2 0 1 0 0 4 2 2 0 0 0 0-4m-3 2a3 3 0 1 1 6 0 3 3 0 0 1-6 0m-6-2a2 2 0 1 0 0 4 2 2 0 0 0 0-4m-3 2a3 3 0 1 1 6 0 3 3 0 0 1-6 0"/><path d="M3 1h10c-.495 3.467-.5 10-5 10S3.495 4.467 3 1m0 15a1 1 0 0 1 1-1h8a1 1 0 0 1 1 1zm2-1a1 1 0 0 1 1-1h4a1 1 0 0 1 1 1z"/><path fill="#FFF" d="M8 2a4 4 0 1 0 0 8 4 4 0 1 0 0-8"/><text x="6" y="8" fill="#282c34" font-family="Courier, Monospace" font-size="7">A</text></svg><defs><linearGradient gradientTransform="rotate(45)"><stop offset="0%" stop-color="#56b6c2"/><stop offset="70%" stop-color="#56b6c2"/><stop offset="100%" stop-color="#56b6c2"/></linearGradient></defs><svg xmlns="http://www.w3.org/2000/svg" width="100" height="100" x="28" y="20" fill="url(#bf3b060f_1d4c_4e7c_8a28_7234f6567321_def2_AA)" viewBox="0 0 30 30"><path d="M7 10h2v4H7z"/><path d="M10 11c0 .552-.895 1-2 1s-2-.448-2-1 .895-1 2-1 2 .448 2 1"/><path fill-rule="evenodd" d="M12.5 3a2 2 0 1 0 0 4 2 2 0 0 0 0-4m-3 2a3 3 0 1 1 6 0 3 3 0 0 1-6 0m-6-2a2 2 0 1 0 0 4 2 2 0 0 0 0-4m-3 2a3 3 0 1 1 6 0 3 3 0 0 1-6 0"/><path d="M3 1h10c-.495 3.467-.5 10-5 10S3.495 4.467 3 1m0 15a1 1 0 0 1 1-1h8a1 1 0 0 1 1 1zm2-1a1 1 0 0 1 1-1h4a1 1 0 0 1 1 1z"/><path fill="#FFF" d="M8 2a4 4 0 1 0 0 8 4 4 0 1 0 0-8"/><text x="6" y="8" fill="#282c34" font-family="Courier, Monospace" font-size="7">A</text></svg><text x="50%" y="18" fill="#e5c07b" font-family="Segoe UI,Helvetica,Arial,sans-serif,Apple Color Emoji,Segoe UI Emoji" font-size="13" font-weight="bold" text-anchor="middle">Followers</text><text x="50%" y="85" fill="#e06c75" font-family="Segoe UI,Helvetica,Arial,sans-serif,Apple Color Emoji,Segoe UI Emoji" font-size="10.5" font-weight="bold" text-anchor="middle">Active User</text><text x="50%" y="97" fill="#e06c75" font-family="Segoe UI,Helvetica,Arial,sans-serif,Apple Color Emoji,Segoe UI Emoji" font-size="10" font-weight="bold" text-anchor="middle">69pt</text><rect width="80" height="3.2" x="15" y="101" fill="#e5c07b" opacity=".3" rx="1"/><rect id="Followers-rank-progress" height="3.2" x="15" y="101" fill="#e5c07b" rx="1"/></svg><svg xmlns="http://www.w3.org/2000/svg" width="110" height="110" x="440" viewBox="0 0 110 110"><rect width="109" height="109" x=".5" y=".5" fill="#282c34" stroke="#e1e4e8" rx="4.5"/><svg xmlns="http://www.w3.org/2000/svg" width="120" height="120" viewBox="0 0 100 100"><g fill="#98c379" transform="matrix(.004 0 0 -.004 20 60)"><path d="M200 5103c0-2 18-40 41-84 47-95 62-132 50-125-15 10-18-39-6-87 31-121 265-468 412-608 124-119 281-222 383-251 36-10 49-16 30-13s-78 12-130 20c-117 17-353 35-477 35h-93l53-82c72-112 72-112 59-104-18 11-26-41-13-84 25-84 261-376 404-502 95-83 222-168 304-205 98-43 194-73 242-74l46-1-45-8c-25-5-124-21-220-36s-177-29-180-31c-2-2 0-7 5-11 27-19 138-144 123-139-18 6-28-10-28-47 0-38 53-108 141-187 349-313 631-450 939-453 63 0 131 2 150 7 19 4-35-17-120-46-236-82-310-110-310-117 0-3 29-28 65-54 55-40 102-84 67-62-13 8-32-24-32-54 0-99 486-361 790-426 125-27 327-25 444 4 113 28 261 98 309 145 39 40 56 92 38 124-8 17-4 24 29 49 22 16 40 32 40 36s-26 40-58 80c-162 203-368 328-608 369-89 15-368 6-474-15-131-26-147-26-59-3 51 13 102 34 122 50 38 29 61 84 51 123-5 18 1 26 25 39 17 8 31 19 31 23s-16 38-35 75c-163 317-424 501-781 548-113 15-127 19-91 30 51 14 84 58 89 118 1 20 9 33 20 37 23 7 23 6-12 114-108 329-305 534-640 662-41 15-59 25-40 21 19-5 82-8 140-8 81 0 113 4 142 18 39 20 73 76 65 107-3 12 2 20 14 23 23 6 23 21 4 124-61 320-249 568-544 718-157 79-394 147-666 190-88 13-170 26-182 29-13 2-23 2-23-1"/><path d="M12550 5099c-232-36-334-55-445-84-484-122-761-346-880-712-26-79-57-242-48-255 2-5 14-8 26-9 12 0 16-3 10-6-17-6-16-38 2-72 25-49 75-66 200-66 61 0 124 4 140 8 17 5-13-9-66-31-136-55-250-126-341-211-128-120-217-263-272-439-32-101-32-110-3-122 12-5 17-9 11-9-8-1-9-12-5-34 15-66 41-95 94-107 31-7 31-7 7-12-14-3-72-13-130-22-322-51-553-206-714-479-25-42-52-92-60-111-14-33-14-33 23-54 20-12 31-22 26-22-15 0-17-39-4-78 14-42 76-88 130-97 22-4 39-9 36-11-2-2-55 3-118 12-154 22-395 15-494-13-216-62-391-184-545-380l-41-52 40-32c34-27 39-35 30-51-17-33-1-85 38-125 48-47 196-117 309-145 117-29 319-31 444-4 300 64 790 328 790 425 0 29-18 63-31 56-5-4-9-4-9-2 0 3 34 29 75 59 41 29 75 56 75 59s-21 13-47 22c-349 120-422 146-388 140 59-12 241-8 310 6 208 43 437 158 636 322 241 199 314 293 265 342-13 12-6 24 51 86 36 40 64 73 62 75-4 2-107 20-359 60-70 12-77 14-39 15 48 1 144 31 241 74 139 62 318 202 451 352 104 117 225 279 249 333 21 47 21 99 0 94-16-3-10 9 58 116l50 77-72 3c-91 4-362-14-488-33-179-26-179-26-116-9 93 26 244 120 365 230 193 174 467 605 443 696-2 10-8 15-13 12-12-7 3 30 51 126 23 45 40 85 38 89s-23 4-48 0m-933-1185c-3-3-12-4-19-1-8 3-5 6 6 6 11 1 17-2 13-5m-1290-1860c-3-3-12-4-19-1-8 3-5 6 6 6 11 1 17-2 13-5m40-10c-3-3-12-4-19-1-8 3-5 6 6 6 11 1 17-2 13-5"/><path d="M10242 4632c-46-140-92-319-118-457-18-94-28-519-12-509 4 3 5-8 2-25-8-40 21-179 58-274 75-195 297-437 400-437 57 0 124 70 177 185 53 112 67 224 65 510-1 120-5 166-23 233-66 252-206 515-423 795-39 51-74 95-77 99-4 4-26-50-49-120"/><path d="M2407 4612c-305-408-443-757-422-1067 3-55 8-140 10-190 5-113 30-204 83-293 44-74 88-118 128-128 102-26 339 218 422 433 34 87 67 235 58 258-3 9-1 39 5 68 5 28 10 117 10 197 1 155-15 284-57 455-33 137-117 405-126 405-5 0-55-62-111-138"/><path d="M2970 3839c-189-385-254-632-248-941 2-86 6-151 10-145 5 7 5-2 2-19-19-98 77-354 181-487 76-96 141-120 210-77 70 43 195 240 239 375 20 63 46 197 40 207-3 4 0 54 6 111 26 257-51 553-240 922-42 83-87 165-98 184l-21 35z"/><path d="M9711 3929c-124-219-230-466-276-642-39-151-47-234-41-426 7-237 39-357 136-517 136-225 233-251 355-97 94 121 171 313 181 453 2 36 8 111 13 167 26 288-56 600-266 1017l-60 120z"/><path d="M3645 3278c-2-7-14-78-27-158-19-123-22-188-23-430-2-309 7-401 50-555 66-232 204-430 388-552 120-80 189-70 245 34 36 69 74 205 78 283 1 30 5 109 9 175 9 135-1 213-41 339-66 208-198 406-429 645-147 152-244 237-250 219"/><path d="M8994 3143c-289-284-435-492-514-732-32-100-55-261-45-330 3-25 8-91 10-146 7-168 66-347 129-387 77-48 196 11 347 170 94 98 156 199 205 331 37 99 67 234 59 262-4 11-2 19 5 19 8 0 10 8 7 21-3 11 1 77 10 147 10 89 13 172 9 277-7 191-48 515-65 515-3 0-74-66-157-147"/><path d="M4501 2358c52-129 69-179 59-173-6 4-10-12-10-42 0-78 115-313 252-514 215-317 529-509 832-509 124 0 166 27 180 112 1 11 8 23 15 27 10 7 11 27 2 98-66 545-401 836-1164 1012-97 23-179 41-182 41s5-24 16-52"/><path d="M8159 2375c-609-138-940-344-1096-683-59-127-110-377-88-429 5-10 10-29 12-42 13-75 59-101 179-101 316 0 625 196 854 543 110 165 222 395 228 465 3 40 2 53-7 48-11-7-3 15 53 153 28 68 31 81 19 80-5 0-74-16-154-34"/><path d="M4032 1479c-193-25-435-124-667-274-108-69-314-218-315-226 0-4 28-16 63-29 66-24 92-40 65-40-10 0-19-12-23-30-14-65 45-105 226-154 572-155 982-93 1270 194 75 74 101 131 81 174-9 21-6 31 29 77 21 29 39 55 39 58s-25 24-55 46c-229 167-469 236-713 204"/><path d="M8513 1476c-155-30-317-101-446-196l-67-50 40-54c37-49 40-56 29-80-21-46 4-101 80-176 288-287 698-349 1270-194 180 49 240 89 226 153-3 16-14 31-23 33s18 18 61 35l79 30-126 92c-304 223-550 347-780 395-113 23-257 28-343 12"/><path d="M6324 1249c-48-14-120-83-139-134-13-34-16-60-11-112 4-37 6-84 6-103-2-95 62-193 145-220 138-46 285 52 292 195 1 28 8 71 14 97 10 37 10 60 0 101-31 139-167 217-307 176"/><path d="M5255 1054c-276-46-587-227-935-541l-54-50 74-23c41-13 67-25 58-27-23-6-34-48-20-78 16-35 75-61 188-84 568-115 968-37 1250 243 69 69 110 130 114 171 5 42 0 66-12 59-12-8-12-7 39 73 18 29 33 56 33 62 0 15-49 46-147 95-207 104-386 135-588 100"/><path d="M7249 1054c-42-7-109-25-150-40-76-27-226-101-267-133l-24-18 41-66c22-37 36-67 31-67-18 0-11-80 11-121 11-22 53-73 92-113 279-282 682-361 1251-245 113 23 172 49 188 84 14 30 3 72-20 77-9 3 18 15 61 29l78 24-93 81c-362 313-622 460-902 509-106 18-194 18-297-1"/></g></svg><svg xmlns="http://www.w3.org/2000/svg" width="65" height="65" x="68" y="35" fill="#56b6c2" viewBox="0 0 30 30"><path d="M7 10h2v4H7z"/><path d="M10 11c0 .552-.895 1-2 1s-2-.448-2-1 .895-1 2-1 2 .448 2 1"/><path fill-rule="evenodd" d="M12.5 3a2 2 0 1 0 0 4 2 2 0 0 0 0-4m-3 2a3 3 0 1 1 6 0 3 3 0 0 1-6 0m-6-2a2 2 0 1 0 0 4 2 2 0 0 0 0-4m-3 2a3 3 0 1 1 6 0 3 3 0 0 1-6 0"/><path d="M3 1h10c-.495 3.467-.5 10-5 10S3.495 4.467 3 1m0 15a1 1 0 0 1 1-1h8a1 1 0 0 1 1 1zm2-1a1 1 0 0 1 1-1h4a1 1 0 0 1 1 1z"/><path fill="#FFF" d="M8 2a4 4 0 1 0 0 8 4 4 0 1 0 0-8"/><text x="6" y="8" fill="#282c34" font-family="Courier, Monospace" font-size="7">A</text></svg><defs><linearGradient gradientTransform="rotate(45)"><stop offset="0%" stop-color="#56b6c2"/><stop offset="70%" stop-color="#56b6c2"/><stop offset="100%" stop-color="#56b6c2"/></linearGradient></defs><svg xmlns="http://www.w3.org/2000/svg" width="100" height="100" x="28" y="20" fill="url(#bf3b060f_1d4c_4e7c_8a28_7234f6567321_def2_AA)" viewBox="0 0 30 30"><path d="M7 10h2v4H7z"/><path d="M10 11c0 .552-.895 1-2 1s-2-.448-2-1 .895-1 2-1 2 .448 2 1"/><path fill-rule="evenodd" d="M12.5 3a2 2 0 1 0 0 4 2 2 0 0 0 0-4m-3 2a3 3 0 1 1 6 0 3 3 0 0 1-6 0m-6-2a2 2 0 1 0 0 4 2 2 0 0 0 0-4m-3 2a3 3 0 1 1 6 0 3 3 0 0 1-6 0"/><path d="M3 1h10c-.495 3.467-.5 10-5 10S3.495 4.467 3 1m0 15a1 1 0 0 1 1-1h8a1 1 0 0 1 1 1zm2-1a1 1 0 0 1 1-1h4a1 1 0 0 1 1 1z"/><path fill="#FFF" d="M8 2a4 4 0 1 0 0 8 4 4 0 1 0 0-8"/><text x="6" y="8" fill="#282c34" font-family="Courier, Monospace" font-size="7">A</text></svg><text x="50%" y="18" fill="#e5c07b" font-family="Segoe UI,Helvetica,Arial,sans-serif,Apple Color Emoji,Segoe UI Emoji" font-size="13" font-weight="bold" text-anchor="middle">Repositories</text><text x="50%" y="85" fill="#e06c75" font-family="Segoe UI,Helvetica,Arial,sans-serif,Apple Color Emoji,Segoe UI Emoji" font-size="10.5" font-weight="bold" text-anchor="middle">Hyper Repo Creator</text><text x="50%" y="97" fill="#e06c75" font-family="Segoe UI,Helvetica,Arial,sans-serif,Apple Color Emoji,Segoe UI Emoji" font-size="10" font-weight="bold" text-anchor="middle">37pt</text><rect width="80" height="3.2" x="15" y="101" fill="#e5c07b" opacity=".3" rx="1"/><rect id="Repositories-rank-progress" height="3.2" x="15" y="101" fill="#e5c07b" rx="1"/></svg><svg xmlns="http://www.w3.org/2000/svg" width="110" height="110" x="550" viewBox="0 0 110 110"><rect width="109" height="109" x=".5" y=".5" fill="#282c34" stroke="#e1e4e8" rx="4.5"/><svg xmlns="http://www.w3.org/2000/svg" width="120" height="120" viewBox="0 0 100 100"><g fill="#98c379" transform="matrix(.004 0 0 -.004 20 60)"><path d="M200 5103c0-2 18-40 41-84 47-95 62-132 50-125-15 10-18-39-6-87 31-121 265-468 412-608 124-119 281-222 383-251 36-10 49-16 30-13s-78 12-130 20c-117 17-353 35-477 35h-93l53-82c72-112 72-112 59-104-18 11-26-41-13-84 25-84 261-376 404-502 95-83 222-168 304-205 98-43 194-73 242-74l46-1-45-8c-25-5-124-21-220-36s-177-29-180-31c-2-2 0-7 5-11 27-19 138-144 123-139-18 6-28-10-28-47 0-38 53-108 141-187 349-313 631-450 939-453 63 0 131 2 150 7 19 4-35-17-120-46-236-82-310-110-310-117 0-3 29-28 65-54 55-40 102-84 67-62-13 8-32-24-32-54 0-99 486-361 790-426 125-27 327-25 444 4 113 28 261 98 309 145 39 40 56 92 38 124-8 17-4 24 29 49 22 16 40 32 40 36s-26 40-58 80c-162 203-368 328-608 369-89 15-368 6-474-15-131-26-147-26-59-3 51 13 102 34 122 50 38 29 61 84 51 123-5 18 1 26 25 39 17 8 31 19 31 23s-16 38-35 75c-163 317-424 501-781 548-113 15-127 19-91 30 51 14 84 58 89 118 1 20 9 33 20 37 23 7 23 6-12 114-108 329-305 534-640 662-41 15-59 25-40 21 19-5 82-8 140-8 81 0 113 4 142 18 39 20 73 76 65 107-3 12 2 20 14 23 23 6 23 21 4 124-61 320-249 568-544 718-157 79-394 147-666 190-88 13-170 26-182 29-13 2-23 2-23-1"/><path d="M12550 5099c-232-36-334-55-445-84-484-122-761-346-880-712-26-79-57-242-48-255 2-5 14-8 26-9 12 0 16-3 10-6-17-6-16-38 2-72 25-49 75-66 200-66 61 0 124 4 140 8 17 5-13-9-66-31-136-55-250-126-341-211-128-120-217-263-272-439-32-101-32-110-3-122 12-5 17-9 11-9-8-1-9-12-5-34 15-66 41-95 94-107 31-7 31-7 7-12-14-3-72-13-130-22-322-51-553-206-714-479-25-42-52-92-60-111-14-33-14-33 23-54 20-12 31-22 26-22-15 0-17-39-4-78 14-42 76-88 130-97 22-4 39-9 36-11-2-2-55 3-118 12-154 22-395 15-494-13-216-62-391-184-545-380l-41-52 40-32c34-27 39-35 30-51-17-33-1-85 38-125 48-47 196-117 309-145 117-29 319-31 444-4 300 64 790 328 790 425 0 29-18 63-31 56-5-4-9-4-9-2 0 3 34 29 75 59 41 29 75 56 75 59s-21 13-47 22c-349 120-422 146-388 140 59-12 241-8 310 6 208 43 437 158 636 322 241 199 314 293 265 342-13 12-6 24 51 86 36 40 64 73 62 75-4 2-107 20-359 60-70 12-77 14-39 15 48 1 144 31 241 74 139 62 318 202 451 352 104 117 225 279 249 333 21 47 21 99 0 94-16-3-10 9 58 116l50 77-72 3c-91 4-362-14-488-33-179-26-179-26-116-9 93 26 244 120 365 230 193 174 467 605 443 696-2 10-8 15-13 12-12-7 3 30 51 126 23 45 40 85 38 89s-23 4-48 0m-933-1185c-3-3-12-4-19-1-8 3-5 6 6 6 11 1 17-2 13-5m-1290-1860c-3-3-12-4-19-1-8 3-5 6 6 6 11 1 17-2 13-5m40-10c-3-3-12-4-19-1-8 3-5 6 6 6 11 1 17-2 13-5"/><path d="M10242 4632c-46-140-92-319-118-457-18-94-28-519-12-509 4 3 5-8 2-25-8-40 21-179 58-274 75-195 297-437 400-437 57 0 124 70 177 185 53 112 67 224 65 510-1 120-5 166-23 233-66 252-206 515-423 795-39 51-74 95-77 99-4 4-26-50-49-120"/><path d="M2407 4612c-305-408-443-757-422-1067 3-55 8-140 10-190 5-113 30-204 83-293 44-74 88-118 128-128 102-26 339 218 422 433 34 87 67 235 58 258-3 9-1 39 5 68 5 28 10 117 10 197 1 155-15 284-57 455-33 137-117 405-126 405-5 0-55-62-111-138"/><path d="M2970 3839c-189-385-254-632-248-941 2-86 6-151 10-145 5 7 5-2 2-19-19-98 77-354 181-487 76-96 141-120 210-77 70 43 195 240 239 375 20 63 46 197 40 207-3 4 0 54 6 111 26 257-51 553-240 922-42 83-87 165-98 184l-21 35z"/><path d="M9711 3929c-124-219-230-466-276-642-39-151-47-234-41-426 7-237 39-357 136-517 136-225 233-251 355-97 94 121 171 313 181 453 2 36 8 111 13 167 26 288-56 600-266 1017l-60 120z"/><path d="M3645 3278c-2-7-14-78-27-158-19-123-22-188-23-430-2-309 7-401 50-555 66-232 204-430 388-552 120-80 189-70 245 34 36 69 74 205 78 283 1 30 5 109 9 175 9 135-1 213-41 339-66 208-198 406-429 645-147 152-244 237-250 219"/><path d="M8994 3143c-289-284-435-492-514-732-32-100-55-261-45-330 3-25 8-91 10-146 7-168 66-347 129-387 77-48 196 11 347 170 94 98 156 199 205 331 37 99 67 234 59 262-4 11-2 19 5 19 8 0 10 8 7 21-3 11 1 77 10 147 10 89 13 172 9 277-7 191-48 515-65 515-3 0-74-66-157-147"/><path d="M4501 2358c52-129 69-179 59-173-6 4-10-12-10-42 0-78 115-313 252-514 215-317 529-509 832-509 124 0 166 27 180 112 1 11 8 23 15 27 10 7 11 27 2 98-66 545-401 836-1164 1012-97 23-179 41-182 41s5-24 16-52"/><path d="M8159 2375c-609-138-940-344-1096-683-59-127-110-377-88-429 5-10 10-29 12-42 13-75 59-101 179-101 316 0 625 196 854 543 110 165 222 395 228 465 3 40 2 53-7 48-11-7-3 15 53 153 28 68 31 81 19 80-5 0-74-16-154-34"/><path d="M4032 1479c-193-25-435-124-667-274-108-69-314-218-315-226 0-4 28-16 63-29 66-24 92-40 65-40-10 0-19-12-23-30-14-65 45-105 226-154 572-155 982-93 1270 194 75 74 101 131 81 174-9 21-6 31 29 77 21 29 39 55 39 58s-25 24-55 46c-229 167-469 236-713 204"/><path d="M8513 1476c-155-30-317-101-446-196l-67-50 40-54c37-49 40-56 29-80-21-46 4-101 80-176 288-287 698-349 1270-194 180 49 240 89 226 153-3 16-14 31-23 33s18 18 61 35l79 30-126 92c-304 223-550 347-780 395-113 23-257 28-343 12"/><path d="M6324 1249c-48-14-120-83-139-134-13-34-16-60-11-112 4-37 6-84 6-103-2-95 62-193 145-220 138-46 285 52 292 195 1 28 8 71 14 97 10 37 10 60 0 101-31 139-167 217-307 176"/><path d="M5255 1054c-276-46-587-227-935-541l-54-50 74-23c41-13 67-25 58-27-23-6-34-48-20-78 16-35 75-61 188-84 568-115 968-37 1250 243 69 69 110 130 114 171 5 42 0 66-12 59-12-8-12-7 39 73 18 29 33 56 33 62 0 15-49 46-147 95-207 104-386 135-588 100"/><path d="M7249 1054c-42-7-109-25-150-40-76-27-226-101-267-133l-24-18 41-66c22-37 36-67 31-67-18 0-11-80 11-121 11-22 53-73 92-113 279-282 682-361 1251-245 113 23 172 49 188 84 14 30 3 72-20 77-9 3 18 15 61 29l78 24-93 81c-362 313-622 460-902 509-106 18-194 18-297-1"/></g></svg><defs><linearGradient id="A" gradientTransform="rotate(45)"><stop offset="0%" stop-color="#56b6c2"/><stop offset="70%" stop-color="#56b6c2"/><stop offset="100%" stop-color="#56b6c2"/></linearGradient></defs><svg xmlns="http://www.w3.org/2000/svg" width="100" height="100" x="28" y="20" fill="url(#bf3b060f_1d4c_4e7c_8a28_7234f6567321_def5_A)" viewBox="0 0 30 30"><path d="M7 10h2v4H7z"/><path d="M10 11c0 .552-.895 1-2 1s-2-.448-2-1 .895-1 2-1 2 .448 2 1"/><path fill-rule="evenodd" d="M12.5 3a2 2 0 1 0 0 4 2 2 0 0 0 0-4m-3 2a3 3 0 1 1 6 0 3 3 0 0 1-6 0m-6-2a2 2 0 1 0 0 4 2 2 0 0 0 0-4m-3 2a3 3 0 1 1 6 0 3 3 0 0 1-6 0"/><path d="M3 1h10c-.495 3.467-.5 10-5 10S3.495 4.467 3 1m0 15a1 1 0 0 1 1-1h8a1 1 0 0 1 1 1zm2-1a1 1 0 0 1 1-1h4a1 1 0 0 1 1 1z"/><path fill="#FFF" d="M8 2a4 4 0 1 0 0 8 4 4 0 1 0 0-8"/><text x="6" y="8" fill="#282c34" font-family="Courier, Monospace" font-size="7">A</text></svg><text x="50%" y="18" fill="#e5c07b" font-family="Segoe UI,Helvetica,Arial,sans-serif,Apple Color Emoji,Segoe UI Emoji" font-size="13" font-weight="bold" text-anchor="middle">Experience</text><text x="50%" y="85" fill="#e06c75" font-family="Segoe UI,Helvetica,Arial,sans-serif,Apple Color Emoji,Segoe UI Emoji" font-size="10.5" font-weight="bold" text-anchor="middle">Intermediate Dev</text><text x="50%" y="97" fill="#e06c75" font-family="Segoe UI,Helvetica,Arial,sans-serif,Apple Color Emoji,Segoe UI Emoji" font-size="10" font-weight="bold" text-anchor="middle">12pt</text><rect width="80" height="3.2" x="15" y="101" fill="#e5c07b" opacity=".3" rx="1"/><rect id="Experience-rank-progress" height="3.2" x="15" y="101" fill="#e5c07b" rx="1"/></svg><svg xmlns="http://www.w3.org/2000/svg" width="110" height="110" x="660" viewBox="0 0 110 110"><rect width="109" height="109" x=".5" y=".5" fill="#282c34" stroke="#e1e4e8" rx="4.5"/><defs><linearGradient id="B" gradientTransform="rotate(45)"><stop offset="0%" stop-color="#c678dd"/><stop offset="70%" stop-color="#c678dd"/><stop offset="100%" stop-color="#c678dd"/></linearGradient></defs><svg xmlns="http://www.w3.org/2000/svg" width="100" height="100" x="28" y="20" fill="url(#bf3b060f_1d4c_4e7c_8a28_7234f6567321_def6_B)" viewBox="0 0 30 30"><path d="M7 10h2v4H7z"/><path d="M10 11c0 .552-.895 1-2 1s-2-.448-2-1 .895-1 2-1 2 .448 2 1"/><path fill-rule="evenodd" d="M12.5 3a2 2 0 1 0 0 4 2 2 0 0 0 0-4m-3 2a3 3 0 1 1 6 0 3 3 0 0 1-6 0m-6-2a2 2 0 1 0 0 4 2 2 0 0 0 0-4m-3 2a3 3 0 1 1 6 0 3 3 0 0 1-6 0"/><path d="M3 1h10c-.495 3.467-.5 10-5 10S3.495 4.467 3 1m0 15a1 1 0 0 1 1-1h8a1 1 0 0 1 1 1zm2-1a1 1 0 0 1 1-1h4a1 1 0 0 1 1 1z"/><path fill="#FFF" d="M8 2a4 4 0 1 0 0 8 4 4 0 1 0 0-8"/><text x="6" y="8" fill="#282c34" font-family="Courier, Monospace" font-size="7">B</text></svg><text x="50%" y="18" fill="#e5c07b" font-family="Segoe UI,Helvetica,Arial,sans-serif,Apple Color Emoji,Segoe UI Emoji" font-size="13" font-weight="bold" text-anchor="middle">PullRequest</text><text x="50%" y="85" fill="#e06c75" font-family="Segoe UI,Helvetica,Arial,sans-serif,Apple Color Emoji,Segoe UI Emoji" font-size="10.5" font-weight="bold" text-anchor="middle">Middle Puller</text><text x="50%" y="97" fill="#e06c75" font-family="Segoe UI,Helvetica,Arial,sans-serif,Apple Color Emoji,Segoe UI Emoji" font-size="10" font-weight="bold" text-anchor="middle">17pt</text><rect width="80" height="3.2" x="15" y="101" fill="#e5c07b" opacity=".3" rx="1"/><rect id="PullRequest-rank-progress" height="3.2" x="15" y="101" fill="#e5c07b" rx="1"/></svg><svg xmlns="http://www.w3.org/2000/svg" width="110" height="110" x="770" viewBox="0 0 110 110"><rect width="109" height="109" x=".5" y=".5" fill="#282c34" stroke="#e1e4e8" rx="4.5"/><defs><linearGradient gradientTransform="rotate(45)"><stop offset="0%" stop-color="#c678dd"/><stop offset="70%" stop-color="#c678dd"/><stop offset="100%" stop-color="#c678dd"/></linearGradient></defs><svg xmlns="http://www.w3.org/2000/svg" width="100" height="100" x="28" y="20" fill="url(#bf3b060f_1d4c_4e7c_8a28_7234f6567321_def6_B)" viewBox="0 0 30 30"><path d="M7 10h2v4H7z"/><path d="M10 11c0 .552-.895 1-2 1s-2-.448-2-1 .895-1 2-1 2 .448 2 1"/><path fill-rule="evenodd" d="M12.5 3a2 2 0 1 0 0 4 2 2 0 0 0 0-4m-3 2a3 3 0 1 1 6 0 3 3 0 0 1-6 0m-6-2a2 2 0 1 0 0 4 2 2 0 0 0 0-4m-3 2a3 3 0 1 1 6 0 3 3 0 0 1-6 0"/><path d="M3 1h10c-.495 3.467-.5 10-5 10S3.495 4.467 3 1m0 15a1 1 0 0 1 1-1h8a1 1 0 0 1 1 1zm2-1a1 1 0 0 1 1-1h4a1 1 0 0 1 1 1z"/><path fill="#FFF" d="M8 2a4 4 0 1 0 0 8 4 4 0 1 0 0-8"/><text x="6" y="8" fill="#282c34" font-family="Courier, Monospace" font-size="7">B</text></svg><text x="50%" y="18" fill="#e5c07b" font-family="Segoe UI,Helvetica,Arial,sans-serif,Apple Color Emoji,Segoe UI Emoji" font-size="13" font-weight="bold" text-anchor="middle">Reviews</text><text x="50%" y="85" fill="#e06c75" font-family="Segoe UI,Helvetica,Arial,sans-serif,Apple Color Emoji,Segoe UI Emoji" font-size="10.5" font-weight="bold" text-anchor="middle">Intermediate Reviewer</text><text x="50%" y="97" fill="#e06c75" font-family="Segoe UI,Helvetica,Arial,sans-serif,Apple Color Emoji,Segoe UI Emoji" font-size="10" font-weight="bold" text-anchor="middle">4pt</text><rect width="80" height="3.2" x="15" y="101" fill="#e5c07b" opacity=".3" rx="1"/><rect id="Reviews-rank-progress" height="3.2" x="15" y="101" fill="#e5c07b" rx="1"/></svg><svg xmlns="http://www.w3.org/2000/svg" width="110" height="110" y="110" viewBox="0 0 110 110"><rect width="109" height="109" x=".5" y=".5" fill="#282c34" stroke="#e1e4e8" rx="4.5"/><defs><linearGradient id="C" gradientTransform="rotate(45)"><stop offset="0%" stop-color="#abb2bf"/><stop offset="50%" stop-color="#abb2bf"/><stop offset="100%" stop-color="#abb2bf"/></linearGradient></defs><svg xmlns="http://www.w3.org/2000/svg" width="100" height="100" x="28" y="20" fill="url(#bf3b060f_1d4c_4e7c_8a28_7234f6567321_def8_C)" viewBox="0 0 30 30"><path d="M7 10h2v4H7z"/><path d="M10 11c0 .552-.895 1-2 1s-2-.448-2-1 .895-1 2-1 2 .448 2 1"/><path fill-rule="evenodd" d="M12.5 3a2 2 0 1 0 0 4 2 2 0 0 0 0-4m-3 2a3 3 0 1 1 6 0 3 3 0 0 1-6 0m-6-2a2 2 0 1 0 0 4 2 2 0 0 0 0-4m-3 2a3 3 0 1 1 6 0 3 3 0 0 1-6 0"/><path d="M3 1h10c-.495 3.467-.5 10-5 10S3.495 4.467 3 1m0 15a1 1 0 0 1 1-1h8a1 1 0 0 1 1 1zm2-1a1 1 0 0 1 1-1h4a1 1 0 0 1 1 1z"/><path fill="#FFF" d="M8 2a4 4 0 1 0 0 8 4 4 0 1 0 0-8"/><text x="6" y="8" fill="#282c34" font-family="Courier, Monospace" font-size="7">C</text></svg><text x="50%" y="18" fill="#e5c07b" font-family="Segoe UI,Helvetica,Arial,sans-serif,Apple Color Emoji,Segoe UI Emoji" font-size="13" font-weight="bold" text-anchor="middle">Issues</text><text x="50%" y="85" fill="#e06c75" font-family="Segoe UI,Helvetica,Arial,sans-serif,Apple Color Emoji,Segoe UI Emoji" font-size="10.5" font-weight="bold" text-anchor="middle">First Issue</text><text x="50%" y="97" fill="#e06c75" font-family="Segoe UI,Helvetica,Arial,sans-serif,Apple Color Emoji,Segoe UI Emoji" font-size="10" font-weight="bold" text-anchor="middle">5pt</text><rect width="80" height="3.2" x="15" y="101" fill="#e5c07b" opacity=".3" rx="1"/><rect id="Issues-rank-progress" height="3.2" x="15" y="101" fill="#e5c07b" rx="1"/></svg></g><g style="isolation:isolate" transform="matrix(1.2909 0 0 1.14359 80 325)"><g clip-path="url(#outer_rectangle)"><g style="isolation:isolate"><rect width="494" height="194" x=".5" y=".5" fill="#1A1B27" stroke="#E4E2E2" rx="10"/></g><g style="isolation:isolate"><path stroke="#E4E2E2" stroke-linecap="square" stroke-miterlimit="3" d="M165 28v142" vector-effect="non-scaling-stroke"/><path stroke="#E4E2E2" stroke-linecap="square" stroke-miterlimit="3" d="M330 28v142" vector-effect="non-scaling-stroke"/></g><g style="isolation:isolate"><g transform="translate(82.5 48)"><text y="32" fill="#70A5FD" stroke-width="0" font-family="&quot;Segoe UI&quot;, Ubuntu, sans-serif" font-size="28" font-weight="700" style="opacity:0;animation:fadein 0.5s linear forwards 0.6s" text-anchor="middle">
                        1,204
                    </text></g><g transform="translate(82.5 84)"><text y="32" fill="#70A5FD" stroke-width="0" font-family="&quot;Segoe UI&quot;, Ubuntu, sans-serif" font-size="14" font-weight="400" style="opacity:0;animation:fadein 0.5s linear forwards 0.7s" text-anchor="middle">
                        Total Contributions
                    </text></g><g transform="translate(82.5 114)"><text y="32" fill="#38BDAE" stroke-width="0" font-family="&quot;Segoe UI&quot;, Ubuntu, sans-serif" font-size="12" font-weight="400" style="opacity:0;animation:fadein 0.5s linear forwards 0.8s" text-anchor="middle">
                        Sep 22, 2021 - Present
                    </text></g></g><g style="isolation:isolate"><g transform="translate(247.5 108)"><text y="32" fill="#BF91F3" stroke-width="0" font-family="&quot;Segoe UI&quot;, Ubuntu, sans-serif" font-size="14" font-weight="700" style="opacity:0;animation:fadein 0.5s linear forwards 0.9s" text-anchor="middle">
                        Current Streak
                    </text></g><g transform="translate(247.5 145)"><text y="21" fill="#38BDAE" stroke-width="0" font-family="&quot;Segoe UI&quot;, Ubuntu, sans-serif" font-size="12" font-weight="400" style="opacity:0;animation:fadein 0.5s linear forwards 0.9s" text-anchor="middle">
                        Apr 4 - Apr 13
                    </text></g><g mask="url(#mask_out_ring_behind_fire)"><path fill="none" stroke="#70A5FD" stroke-width="5" d="M247.5 31a40 40 0 1 0 0 80 40 40 0 1 0 0-80z" style="opacity:0;animation:fadein 0.5s linear forwards 0.4s"/></g><g stroke-opacity="0" style="opacity:0;animation:fadein 0.5s linear forwards 0.6s" transform="translate(247.5 19.5)"><path fill="none" d="M-12-.5h27v24h-27z"/><path fill="#70A5FD" d="M1.5.67s.74 2.65.74 4.8C2.24 7.53.89 9.2-1.17 9.2s-3.62-1.67-3.62-3.73l.03-.36A13.77 13.77 0 0 0-8 13.99C-8 18.41-4.42 22 0 22s8-3.59 8-8.01C8 8.6 5.41 3.79 1.5.67M-.29 19c-1.78 0-3.22-1.4-3.22-3.14 0-1.62 1.05-2.76 2.81-3.12 1.77-.36 3.6-1.21 4.62-2.58.39 1.29.59 2.65.59 4.04 0 2.65-2.15 4.8-4.8 4.8"/></g><g transform="translate(247.5 48)"><text y="32" fill="#BF91F3" stroke-width="0" font-family="&quot;Segoe UI&quot;, Ubuntu, sans-serif" font-size="28" font-weight="700" style="animation:currstreak 0.6s linear forwards" text-anchor="middle">
                        10
                    </text></g></g><g style="isolation:isolate"><g transform="translate(412.5 48)"><text y="32" fill="#70A5FD" stroke-width="0" font-family="&quot;Segoe UI&quot;, Ubuntu, sans-serif" font-size="28" font-weight="700" style="opacity:0;animation:fadein 0.5s linear forwards 1.2s" text-anchor="middle">
                        50
                    </text></g><g transform="translate(412.5 84)"><text y="32" fill="#70A5FD" stroke-width="0" font-family="&quot;Segoe UI&quot;, Ubuntu, sans-serif" font-size="14" font-weight="400" style="opacity:0;animation:fadein 0.5s linear forwards 1.3s" text-anchor="middle">
                        Longest Streak
                    </text></g><g transform="translate(412.5 114)"><text y="32" fill="#38BDAE" stroke-width="0" font-family="&quot;Segoe UI&quot;, Ubuntu, sans-serif" font-size="12" font-weight="400" style="opacity:0;animation:fadein 0.5s linear forwards 1.4s" text-anchor="middle">
                        Feb 21, 2023 - Apr 11, 2023
                    </text></g></g></g></g><g fill="none" transform="matrix(.54054 0 0 .53957 -112.453 300)"><path fill="#BD0909" d="M19 537V147h6v390z"/><path fill="#BD0909" d="M0 555V0h13v555z"/><path fill="#BD0909" d="M19 449v-7h22v7z"/><path fill="#BD0909" d="M34 406v-9h14v9z"/><path fill="#BD0909" d="M50 446v-9h54v9z"/><path fill="#BD0909" d="M71 429v-7h61v7z"/><path fill="#BD0909" d="M25 391v-6h38v6z"/><path fill="#BD0909" d="M36 433v-9h27v9z"/><path fill="#BD0909" d="M35 510v-68h6v68z"/><path fill="#BD0909" d="m34.98 508.823 69.003-71.804h11.001L34.997 518.5z"/><path fill="#BD0909" d="M50.002 477.002 66 459.5l7.002.002-23.079 23.999z"/><path fill="#BD0909" d="M57 432v-47h6v47z"/><path fill="#BD0909" d="M34 433v-33h8v33z"/><path fill="#BD0909" fill-rule="evenodd" d="M52.067 480 56 475.925V442h-6v38z" clip-rule="evenodd"/><path fill="#BD0909" d="M71 429v-56h6v56z"/><path fill="#BD0909" d="M50 377v-32h4v32z"/><path fill="#BD0909" d="M76 378H50v-5h26z"/><path fill="#BD0909" d="M54 349H39v-4h15z"/><path fill="#BD0909" d="M42 328H25v-3h17z"/><path fill="#BD0909" d="M34 344H24v-8h10z"/><path fill="#BD0909" d="M39 348v-23h3v23z"/><path fill="#BD0909" d="M30 361v-25h4v25z"/><path fill="#BD0909" d="M43 382v-25h4v25z"/><path fill="#BD0909" d="M29 382v-14h4v14z"/><path fill="#BD0909" d="M47 382H29v-8h18z"/><path fill="#BD0909" d="M46 361H30v-4h16z"/><path fill="#BD0909" d="M19 537h390v-6H19z"/><path fill="#BD0909" d="M0 556h555v-13H0z"/><path fill="#BD0909" d="M106 537h7v-22h-7z"/><path fill="#BD0909" d="M149 522h9v-14h-9z"/><path fill="#BD0909" d="M109 506h9v-54h-9z"/><path fill="#BD0909" d="M126 485h7v-63h-7z"/><path fill="#BD0909" d="M164 531h6v-38h-6z"/><path fill="#BD0909" d="M122 520h9v-27h-9z"/><path fill="#BD0909" d="M45 521h68v-6H45z"/><path fill="#BD0909" d="m46.177 521.02 71.804-69.003v-11.001L36.5 521.004z"/><path fill="#BD0909" d="M77.998 505.998 95.5 490l-.002-7.002-24 23.079z"/><path fill="#BD0909" d="M123 499h47v-6h-47z"/><path fill="#BD0909" d="M122 522h33v-8h-33z"/><path fill="#BD0909" fill-rule="evenodd" d="M75 503.933 79.075 500H113v6H75z" clip-rule="evenodd"/><path fill="#BD0909" d="M126 485h56v-6h-56z"/><path fill="#BD0909" d="M178 506h32v-4h-32z"/><path fill="#BD0909" d="M177 480v26h5v-26z"/><path fill="#BD0909" d="M206 502v15h4v-15z"/><path fill="#BD0909" d="M227 514v17h3v-17z"/><path fill="#BD0909" d="M211 522v10h8v-10z"/><path fill="#BD0909" d="M207 517h23v-3h-23z"/><path fill="#BD0909" d="M194 526h25v-4h-25z"/><path fill="#BD0909" d="M173 513h25v-4h-25z"/><path fill="#BD0909" d="M173 527h14v-4h-14z"/><path fill="#BD0909" d="M173 509v18h8v-18z"/><path fill="#BD0909" d="M194 510v16h4v-16z"/></g><g fill="none" transform="matrix(.54054 0 0 .53957 600.257 300)"><path fill="#BD0909" d="M536 537V147h-6v390z"/><path fill="#BD0909" d="M555 555V0h-13v555z"/><path fill="#BD0909" d="M536 449v-7h-22v7z"/><path fill="#BD0909" d="M521 406v-9h-14v9z"/><path fill="#BD0909" d="M505 446v-9h-54v9z"/><path fill="#BD0909" d="M484 429v-7h-61v7z"/><path fill="#BD0909" d="M530 391v-6h-38v6z"/><path fill="#BD0909" d="M519 433v-9h-27v9z"/><path fill="#BD0909" d="M520 510v-68h-6v68z"/><path fill="#BD0909" d="m520.02 508.823-69.003-71.804h-11.001l79.988 81.481z"/><path fill="#BD0909" d="M504.998 477.002 489 459.5l-7.002.002 23.079 23.999z"/><path fill="#BD0909" d="M498 432v-47h-6v47z"/><path fill="#BD0909" d="M521 433v-33h-8v33z"/><path fill="#BD0909" fill-rule="evenodd" d="M502.933 480 499 475.925V442h6v38z" clip-rule="evenodd"/><path fill="#BD0909" d="M484 429v-56h-6v56z"/><path fill="#BD0909" d="M505 377v-32h-4v32z"/><path fill="#BD0909" d="M479 378h26v-5h-26z"/><path fill="#BD0909" d="M501 349h15v-4h-15z"/><path fill="#BD0909" d="M513 328h17v-3h-17z"/><path fill="#BD0909" d="M521 344h10v-8h-10z"/><path fill="#BD0909" d="M516 348v-23h-3v23z"/><path fill="#BD0909" d="M525 361v-25h-4v25z"/><path fill="#BD0909" d="M512 382v-25h-4v25z"/><path fill="#BD0909" d="M526 382v-14h-4v14z"/><path fill="#BD0909" d="M508 382h18v-8h-18z"/><path fill="#BD0909" d="M509 361h16v-4h-16z"/><path fill="#BD0909" d="M536 537H146v-6h390z"/><path fill="#BD0909" d="M555 556H0v-13h555z"/><path fill="#BD0909" d="M449 537h-7v-22h7z"/><path fill="#BD0909" d="M406 522h-9v-14h9z"/><path fill="#BD0909" d="M446 506h-9v-54h9z"/><path fill="#BD0909" d="M429 485h-7v-63h7z"/><path fill="#BD0909" d="M391 531h-6v-38h6z"/><path fill="#BD0909" d="M433 520h-9v-27h9z"/><path fill="#BD0909" d="M510 521h-68v-6h68z"/><path fill="#BD0909" d="m508.823 521.02-71.804-69.003v-11.001l81.481 79.988z"/><path fill="#BD0909" d="M477.002 505.998 459.5 490l.002-7.002 23.999 23.079z"/><path fill="#BD0909" d="M432 499h-47v-6h47z"/><path fill="#BD0909" d="M433 522h-33v-8h33z"/><path fill="#BD0909" fill-rule="evenodd" d="M480 503.933 475.925 500H442v6h38z" clip-rule="evenodd"/><path fill="#BD0909" d="M429 485h-56v-6h56z"/><path fill="#BD0909" d="M377 506h-32v-4h32z"/><path fill="#BD0909" d="M378 480v26h-5v-26z"/><path fill="#BD0909" d="M349 502v15h-4v-15z"/><path fill="#BD0909" d="M328 514v17h-3v-17z"/><path fill="#BD0909" d="M344 522v10h-8v-10z"/><path fill="#BD0909" d="M348 517h-23v-3h23z"/><path fill="#BD0909" d="M361 526h-25v-4h25z"/><path fill="#BD0909" d="M382 513h-25v-4h25z"/><path fill="#BD0909" d="M382 527h-14v-4h14z"/><path fill="#BD0909" d="M382 509v18h-8v-18z"/><path fill="#BD0909" d="M361 510v16h-4v-16z"/></g></svg>