<svg xmlns="http://www.w3.org/2000/svg" xmlns:xlink="http://www.w3.org/1999/xlink" width="1200" height="600" viewBox="-150 0 1200 600"><rect x="-150" y="0" width="1200" height="600" fill="none"/><image id="ee90d6c8-849b-4997-b2ba-80f1dff77e39" x="-96.22974046204877" y="-20.670062033716064" width="486" height="253" href="undefined"/><image id="7e28e495-0660-437c-87a2-88ed090d1dfa" x="423" y="-11" width="476" height="237" href="undefined"/><image id="bf3b060f-1d4c-4e7c-8a28-7234f6567321" x="-2" y="214" width="823" height="98" href="undefined"/><image id="8e898692-ced9-4874-a2d2-10df2f969405" x="80" y="325" width="639" height="223" href="undefined"/><g id="a5e20d49-9593-4278-8294-0d72a887d5a6" transform="translate(-112.45271176966187, 300) scale(0.5405405405405406, 0.539568345323741)">
<rect x="19" y="537" width="390" height="6" transform="rotate(-90 19 537)" fill="#BD0909"/>
<rect y="555" width="555" height="13" transform="rotate(-90 0 555)" fill="#BD0909"/>
<rect x="19" y="449" width="7" height="22" transform="rotate(-90 19 449)" fill="#BD0909"/>
<rect x="34" y="406" width="9" height="14" transform="rotate(-90 34 406)" fill="#BD0909"/>
<rect x="50" y="446" width="9" height="54" transform="rotate(-90 50 446)" fill="#BD0909"/>
<rect x="71" y="429" width="7" height="61" transform="rotate(-90 71 429)" fill="#BD0909"/>
<rect x="25" y="391" width="6" height="38" transform="rotate(-90 25 391)" fill="#BD0909"/>
<rect x="36" y="433" width="9" height="27" transform="rotate(-90 36 433)" fill="#BD0909"/>
<rect x="35" y="510" width="68" height="6" transform="rotate(-90 35 510)" fill="#BD0909"/>
<path d="M34.9803 508.823L103.983 437.019L114.984 437.019L34.9965 518.5L34.9803 508.823Z" fill="#BD0909"/>
<path d="M50.0019 477.002L66 459.5L73.0019 459.502L49.9232 483.501L50.0019 477.002Z" fill="#BD0909"/>
<rect x="57" y="432" width="47" height="6" transform="rotate(-90 57 432)" fill="#BD0909"/>
<rect x="34" y="433" width="33" height="8" transform="rotate(-90 34 433)" fill="#BD0909"/>
<path fill-rule="evenodd" clip-rule="evenodd" d="M52.0672 480L56 475.925L56 442H50L50 480H52.0672Z" fill="#BD0909"/>
<rect x="71" y="429" width="56" height="6" transform="rotate(-90 71 429)" fill="#BD0909"/>
<rect x="50" y="377" width="32" height="4" transform="rotate(-90 50 377)" fill="#BD0909"/>
<rect x="76" y="378" width="26" height="5" transform="rotate(-180 76 378)" fill="#BD0909"/>
<rect x="54" y="349" width="15" height="4" transform="rotate(-180 54 349)" fill="#BD0909"/>
<rect x="42" y="328" width="17" height="3" transform="rotate(-180 42 328)" fill="#BD0909"/>
<rect x="34" y="344" width="10" height="8" transform="rotate(-180 34 344)" fill="#BD0909"/>
<rect x="39" y="348" width="23" height="3" transform="rotate(-90 39 348)" fill="#BD0909"/>
<rect x="30" y="361" width="25" height="4" transform="rotate(-90 30 361)" fill="#BD0909"/>
<rect x="43" y="382" width="25" height="4" transform="rotate(-90 43 382)" fill="#BD0909"/>
<rect x="29" y="382" width="14" height="4" transform="rotate(-90 29 382)" fill="#BD0909"/>
<rect x="47" y="382" width="18" height="8" transform="rotate(-180 47 382)" fill="#BD0909"/>
<rect x="46" y="361" width="16" height="4" transform="rotate(-180 46 361)" fill="#BD0909"/>
<rect width="390" height="6" transform="matrix(1 0 0 -1 19 537)" fill="#BD0909"/>
<rect width="555" height="13" transform="matrix(1 0 0 -1 0 556)" fill="#BD0909"/>
<rect width="7" height="22" transform="matrix(1 0 0 -1 106 537)" fill="#BD0909"/>
<rect width="9" height="14" transform="matrix(1 0 0 -1 149 522)" fill="#BD0909"/>
<rect width="9" height="54" transform="matrix(1 0 0 -1 109 506)" fill="#BD0909"/>
<rect width="7" height="63" transform="matrix(1 0 0 -1 126 485)" fill="#BD0909"/>
<rect width="6" height="38" transform="matrix(1 0 0 -1 164 531)" fill="#BD0909"/>
<rect width="9" height="27" transform="matrix(1 0 0 -1 122 520)" fill="#BD0909"/>
<rect width="68" height="6" transform="matrix(1 0 0 -1 45 521)" fill="#BD0909"/>
<path d="M46.1773 521.02L117.981 452.017L117.981 441.016L36.5 521.004L46.1773 521.02Z" fill="#BD0909"/>
<path d="M77.9981 505.998L95.5 490L95.4981 482.998L71.4987 506.077L77.9981 505.998Z" fill="#BD0909"/>
<rect width="47" height="6" transform="matrix(1 0 0 -1 123 499)" fill="#BD0909"/>
<rect width="33" height="8" transform="matrix(1 0 0 -1 122 522)" fill="#BD0909"/>
<path fill-rule="evenodd" clip-rule="evenodd" d="M75 503.933L79.0749 500H113V506H75V503.933Z" fill="#BD0909"/>
<rect width="56" height="6" transform="matrix(1 0 0 -1 126 485)" fill="#BD0909"/>
<rect width="32" height="4" transform="matrix(1 0 0 -1 178 506)" fill="#BD0909"/>
<rect width="26" height="5" transform="matrix(0 1 1 0 177 480)" fill="#BD0909"/>
<rect width="15" height="4" transform="matrix(0 1 1 0 206 502)" fill="#BD0909"/>
<rect width="17" height="3" transform="matrix(0 1 1 0 227 514)" fill="#BD0909"/>
<rect width="10" height="8" transform="matrix(0 1 1 0 211 522)" fill="#BD0909"/>
<rect width="23" height="3" transform="matrix(1 0 0 -1 207 517)" fill="#BD0909"/>
<rect width="25" height="4" transform="matrix(1 0 0 -1 194 526)" fill="#BD0909"/>
<rect width="25" height="4" transform="matrix(1 0 0 -1 173 513)" fill="#BD0909"/>
<rect width="14" height="4" transform="matrix(1 0 0 -1 173 527)" fill="#BD0909"/>
<rect width="18" height="8" transform="matrix(0 1 1 0 173 509)" fill="#BD0909"/>
<rect width="16" height="4" transform="matrix(0 1 1 0 194 510)" fill="#BD0909"/>
</g><g id="bbe347b7-d50b-4a4d-b79d-39bb8aa8e6b2" transform="translate(600.2567397548477, 300) scale(0.5405405405405406, 0.539568345323741)">
<rect width="390" height="6" transform="matrix(0 -1 -1 0 536 537)" fill="#BD0909"/>
<rect width="555" height="13" transform="matrix(0 -1 -1 0 555 555)" fill="#BD0909"/>
<rect width="7" height="22" transform="matrix(0 -1 -1 0 536 449)" fill="#BD0909"/>
<rect width="9" height="14" transform="matrix(0 -1 -1 0 521 406)" fill="#BD0909"/>
<rect width="9" height="54" transform="matrix(0 -1 -1 0 505 446)" fill="#BD0909"/>
<rect width="7" height="61" transform="matrix(0 -1 -1 0 484 429)" fill="#BD0909"/>
<rect width="6" height="38" transform="matrix(0 -1 -1 0 530 391)" fill="#BD0909"/>
<rect width="9" height="27" transform="matrix(0 -1 -1 0 519 433)" fill="#BD0909"/>
<rect width="68" height="6" transform="matrix(0 -1 -1 0 520 510)" fill="#BD0909"/>
<path d="M520.02 508.823L451.017 437.019L440.016 437.019L520.004 518.5L520.02 508.823Z" fill="#BD0909"/>
<path d="M504.998 477.002L489 459.5L481.998 459.502L505.077 483.501L504.998 477.002Z" fill="#BD0909"/>
<rect width="47" height="6" transform="matrix(0 -1 -1 0 498 432)" fill="#BD0909"/>
<rect width="33" height="8" transform="matrix(0 -1 -1 0 521 433)" fill="#BD0909"/>
<path fill-rule="evenodd" clip-rule="evenodd" d="M502.933 480L499 475.925V442H505V480H502.933Z" fill="#BD0909"/>
<rect width="56" height="6" transform="matrix(0 -1 -1 0 484 429)" fill="#BD0909"/>
<rect width="32" height="4" transform="matrix(0 -1 -1 0 505 377)" fill="#BD0909"/>
<rect width="26" height="5" transform="matrix(1 0 0 -1 479 378)" fill="#BD0909"/>
<rect width="15" height="4" transform="matrix(1 0 0 -1 501 349)" fill="#BD0909"/>
<rect width="17" height="3" transform="matrix(1 0 0 -1 513 328)" fill="#BD0909"/>
<rect width="10" height="8" transform="matrix(1 0 0 -1 521 344)" fill="#BD0909"/>
<rect width="23" height="3" transform="matrix(0 -1 -1 0 516 348)" fill="#BD0909"/>
<rect width="25" height="4" transform="matrix(0 -1 -1 0 525 361)" fill="#BD0909"/>
<rect width="25" height="4" transform="matrix(0 -1 -1 0 512 382)" fill="#BD0909"/>
<rect width="14" height="4" transform="matrix(0 -1 -1 0 526 382)" fill="#BD0909"/>
<rect width="18" height="8" transform="matrix(1 0 0 -1 508 382)" fill="#BD0909"/>
<rect width="16" height="4" transform="matrix(1 0 0 -1 509 361)" fill="#BD0909"/>
<rect x="536" y="537" width="390" height="6" transform="rotate(180 536 537)" fill="#BD0909"/>
<rect x="555" y="556" width="555" height="13" transform="rotate(180 555 556)" fill="#BD0909"/>
<rect x="449" y="537" width="7" height="22" transform="rotate(180 449 537)" fill="#BD0909"/>
<rect x="406" y="522" width="9" height="14" transform="rotate(180 406 522)" fill="#BD0909"/>
<rect x="446" y="506" width="9" height="54" transform="rotate(180 446 506)" fill="#BD0909"/>
<rect x="429" y="485" width="7" height="63" transform="rotate(180 429 485)" fill="#BD0909"/>
<rect x="391" y="531" width="6" height="38" transform="rotate(180 391 531)" fill="#BD0909"/>
<rect x="433" y="520" width="9" height="27" transform="rotate(180 433 520)" fill="#BD0909"/>
<rect x="510" y="521" width="68" height="6" transform="rotate(180 510 521)" fill="#BD0909"/>
<path d="M508.823 521.02L437.019 452.017L437.019 441.016L518.5 521.004L508.823 521.02Z" fill="#BD0909"/>
<path d="M477.002 505.998L459.5 490L459.502 482.998L483.501 506.077L477.002 505.998Z" fill="#BD0909"/>
<rect x="432" y="499" width="47" height="6" transform="rotate(180 432 499)" fill="#BD0909"/>
<rect x="433" y="522" width="33" height="8" transform="rotate(180 433 522)" fill="#BD0909"/>
<path fill-rule="evenodd" clip-rule="evenodd" d="M480 503.933L475.925 500H442V506H480V503.933Z" fill="#BD0909"/>
<rect x="429" y="485" width="56" height="6" transform="rotate(180 429 485)" fill="#BD0909"/>
<rect x="377" y="506" width="32" height="4" transform="rotate(180 377 506)" fill="#BD0909"/>
<rect x="378" y="480" width="26" height="5" transform="rotate(90 378 480)" fill="#BD0909"/>
<rect x="349" y="502" width="15" height="4" transform="rotate(90 349 502)" fill="#BD0909"/>
<rect x="328" y="514" width="17" height="3" transform="rotate(90 328 514)" fill="#BD0909"/>
<rect x="344" y="522" width="10" height="8" transform="rotate(90 344 522)" fill="#BD0909"/>
<rect x="348" y="517" width="23" height="3" transform="rotate(180 348 517)" fill="#BD0909"/>
<rect x="361" y="526" width="25" height="4" transform="rotate(180 361 526)" fill="#BD0909"/>
<rect x="382" y="513" width="25" height="4" transform="rotate(180 382 513)" fill="#BD0909"/>
<rect x="382" y="527" width="14" height="4" transform="rotate(180 382 527)" fill="#BD0909"/>
<rect x="382" y="509" width="18" height="8" transform="rotate(90 382 509)" fill="#BD0909"/>
<rect x="361" y="510" width="16" height="4" transform="rotate(90 361 510)" fill="#BD0909"/>
</g></svg>