<svg xmlns="http://www.w3.org/2000/svg" xmlns:xlink="http://www.w3.org/1999/xlink" width="1200" height="600" viewBox="-150 0 1200 600"><rect x="-150" y="0" width="1200" height="600" fill="white"/><g transform="translate(-96.22974046204877, -20.670062033716064) scale(0.9818181818181818, 1.2974358974358975)">
        <title id="titleId">whiteSHADOW1234's GitHub Stats, Rank: A+</title>
        <desc id="descId">Total Stars Earned: 95, Total Commits in 2025 : 95, Total PRs: 17, Total Issues: 5, Contributed to (last year): 3</desc>
        <style>
          .header {
            font: 600 18px 'Segoe UI', Ubuntu, Sans-Serif;
            fill: #bddfff;
            animation: fadeInAnimation 0.8s ease-in-out forwards;
          }
          @supports(-moz-appearance: auto) {
            /* Selector detects Firefox */
            .header { font-size: 15.5px; }
          }
          
    .stat {
      font: 600 14px 'Segoe UI', Ubuntu, "Helvetica Neue", Sans-Serif; fill: #6e93b5;
    }
    @supports(-moz-appearance: auto) {
      /* Selector detects Firefox */
      .stat { font-size:12px; }
    }
    .stagger {
      opacity: 0;
      animation: fadeInAnimation 0.3s ease-in-out forwards;
    }
    .rank-text {
      font: 800 24px 'Segoe UI', Ubuntu, Sans-Serif; fill: #6e93b5;
      animation: scaleInAnimation 0.3s ease-in-out forwards;
    }
    
    .not_bold { font-weight: 400 }
    .bold { font-weight: 700 }
    .icon {
      fill: #38a0ff;
      display: block;
    }

    .rank-circle-rim {
      stroke: #bddfff;
      fill: none;
      stroke-width: 6;
      opacity: 0.2;
    }
    .rank-circle {
      stroke: #bddfff;
      stroke-dasharray: 250;
      fill: none;
      stroke-width: 6;
      stroke-linecap: round;
      opacity: 0.8;
      transform-origin: -10px 8px;
      transform: rotate(-90deg);
      animation: rankAnimation 1s forwards ease-in-out;
    }
    
    @keyframes rankAnimation {
      from {
        stroke-dashoffset: 251.32741228718345;
      }
      to {
        stroke-dashoffset: 123.4573893763081;
      }
    }
  
  

          
    /* Animations */
    @keyframes scaleInAnimation {
      from {
        transform: translate(-5px, 5px) scale(0);
      }
      to {
        transform: translate(-5px, 5px) scale(1);
      }
    }
    @keyframes fadeInAnimation {
      from {
        opacity: 0;
      }
      to {
        opacity: 1;
      }
    }
  
          
        </style>

        

        <rect data-testid="card-bg" x="0.5" y="0.5" rx="20" height="99%" stroke="#e4e2e2" width="494" fill="#172f45" stroke-opacity="1"/>

        
      <g data-testid="card-title" transform="translate(25, 35)">
        <g transform="translate(0, 0)">
      <text x="0" y="0" class="header" data-testid="header">whiteSHADOW1234's GitHub Stats</text>
    </g>
      </g>
    

        <g data-testid="main-card-body" transform="translate(0, 55)">
          
    <g data-testid="rank-circle" transform="translate(400, 47.5)">
        <circle class="rank-circle-rim" cx="-10" cy="8" r="40"/>
        <circle class="rank-circle" cx="-10" cy="8" r="40"/>
        <g class="rank-text">
          <text x="-5" y="3" alignment-baseline="central" dominant-baseline="central" text-anchor="middle">
            A+
          </text>
        </g>
      </g>
    <svg x="0" y="0">
      <g transform="translate(0, 0)">
    <g class="stagger" style="animation-delay: 450ms" transform="translate(25, 0)">
      
    <svg data-testid="icon" class="icon" viewBox="0 0 16 16" version="1.1" width="16" height="16">
      <path fill-rule="evenodd" d="M8 .25a.75.75 0 01.673.418l1.882 3.815 4.21.612a.75.75 0 01.416 1.279l-3.046 2.97.719 4.192a.75.75 0 01-1.088.791L8 12.347l-3.766 1.98a.75.75 0 01-1.088-.79l.72-4.194L.818 6.374a.75.75 0 01.416-1.28l4.21-.611L7.327.668A.75.75 0 018 .25zm0 2.445L6.615 5.5a.75.75 0 01-.564.41l-3.097.45 2.24 2.184a.75.75 0 01.216.664l-.528 3.084 2.769-1.456a.75.75 0 01.698 0l2.77 1.456-.53-3.084a.75.75 0 01.216-.664l2.24-2.183-3.096-.45a.75.75 0 01-.564-.41L8 2.694v.001z"/>
    </svg>
  
      <text class="stat  bold" x="25" y="12.5">Total Stars Earned:</text>
      <text class="stat  bold" x="219.01" y="12.5" data-testid="stars">95</text>
    </g>
  </g><g transform="translate(0, 25)">
    <g class="stagger" style="animation-delay: 600ms" transform="translate(25, 0)">
      
    <svg data-testid="icon" class="icon" viewBox="0 0 16 16" version="1.1" width="16" height="16">
      <path fill-rule="evenodd" d="M1.643 3.143L.427 1.927A.25.25 0 000 2.104V5.75c0 .138.112.25.25.25h3.646a.25.25 0 00.177-.427L2.715 4.215a6.5 6.5 0 11-1.18 4.458.75.75 0 10-1.493.154 8.001 8.001 0 101.6-5.684zM7.75 4a.75.75 0 01.75.75v2.992l2.028.812a.75.75 0 01-.557 1.392l-2.5-1A.75.75 0 017 8.25v-3.5A.75.75 0 017.75 4z"/>
    </svg>
  
      <text class="stat  bold" x="25" y="12.5">Total Commits (2025):</text>
      <text class="stat  bold" x="219.01" y="12.5" data-testid="commits">537</text>
    </g>
  </g><g transform="translate(0, 50)">
    <g class="stagger" style="animation-delay: 750ms" transform="translate(25, 0)">
      
    <svg data-testid="icon" class="icon" viewBox="0 0 16 16" version="1.1" width="16" height="16">
      <path fill-rule="evenodd" d="M7.177 3.073L9.573.677A.25.25 0 0110 .854v4.792a.25.25 0 01-.427.177L7.177 3.427a.25.25 0 010-.354zM3.75 2.5a.75.75 0 100 1.5.75.75 0 000-1.5zm-2.25.75a2.25 2.25 0 113 2.122v5.256a2.251 2.251 0 11-1.5 0V5.372A2.25 2.25 0 011.5 3.25zM11 2.5h-1V4h1a1 1 0 011 1v5.628a2.251 2.251 0 101.5 0V5A2.5 2.5 0 0011 2.5zm1 10.25a.75.75 0 111.5 0 .75.75 0 01-1.5 0zM3.75 12a.75.75 0 100 1.5.75.75 0 000-1.5z"/>
    </svg>
  
      <text class="stat  bold" x="25" y="12.5">Total PRs:</text>
      <text class="stat  bold" x="219.01" y="12.5" data-testid="prs">17</text>
    </g>
  </g><g transform="translate(0, 75)">
    <g class="stagger" style="animation-delay: 900ms" transform="translate(25, 0)">
      
    <svg data-testid="icon" class="icon" viewBox="0 0 16 16" version="1.1" width="16" height="16">
      <path fill-rule="evenodd" d="M8 1.5a6.5 6.5 0 100 13 6.5 6.5 0 000-13zM0 8a8 8 0 1116 0A8 8 0 010 8zm9 3a1 1 0 11-2 0 1 1 0 012 0zm-.25-6.25a.75.75 0 00-1.5 0v3.5a.75.75 0 001.5 0v-3.5z"/>
    </svg>
  
      <text class="stat  bold" x="25" y="12.5">Total Issues:</text>
      <text class="stat  bold" x="219.01" y="12.5" data-testid="issues">5</text>
    </g>
  </g><g transform="translate(0, 100)">
    <g class="stagger" style="animation-delay: 1050ms" transform="translate(25, 0)">
      
    <svg data-testid="icon" class="icon" viewBox="0 0 16 16" version="1.1" width="16" height="16">
      <path fill-rule="evenodd" d="M2 2.5A2.5 2.5 0 014.5 0h8.75a.75.75 0 01.75.75v12.5a.75.75 0 01-.75.75h-2.5a.75.75 0 110-1.5h1.75v-2h-8a1 1 0 00-.714 1.7.75.75 0 01-1.072 1.05A2.495 2.495 0 012 11.5v-9zm10.5-1V9h-8c-.356 0-.694.074-1 .208V2.5a1 1 0 011-1h8zM5 12.25v3.25a.25.25 0 00.4.2l1.45-1.087a.25.25 0 01.3 0L8.6 15.7a.25.25 0 00.4-.2v-3.25a.25.25 0 00-.25-.25h-3.5a.25.25 0 00-.25.25z"/>
    </svg>
  
      <text class="stat  bold" x="25" y="12.5">Contributed to (last year):</text>
      <text class="stat  bold" x="219.01" y="12.5" data-testid="contribs">3</text>
    </g>
  </g>
    </svg>
  
        </g>
      </g><g transform="translate(423, -11) scale(1.36, 1.6928571428571428)">
        <title id="titleId"/>
        <desc id="descId"/>
        <style>
          .header {
            font: 600 18px 'Segoe UI', Ubuntu, Sans-Serif;
            fill: #c792ea;
            animation: fadeInAnimation 0.8s ease-in-out forwards;
          }
          @supports(-moz-appearance: auto) {
            /* Selector detects Firefox */
            .header { font-size: 15.5px; }
          }
          .lang-name { font: 400 11px 'Segoe UI', Ubuntu, Sans-Serif; fill: #7fdbca }

          
    /* Animations */
    @keyframes scaleInAnimation {
      from {
        transform: translate(-5px, 5px) scale(0);
      }
      to {
        transform: translate(-5px, 5px) scale(1);
      }
    }
    @keyframes fadeInAnimation {
      from {
        opacity: 0;
      }
      to {
        opacity: 1;
      }
    }
  
          * { animation-duration: 0s !important; animation-delay: 0s !important; }
        </style>

        

        <rect data-testid="card-bg" x="0.5" y="0.5" rx="20" height="99%" stroke="#e4e2e2" width="349" fill="#011627" stroke-opacity="1"/>

        
      <g data-testid="card-title" transform="translate(25, 35)">
        <g transform="translate(0, 0)">
      <text x="0" y="0" class="header" data-testid="header">Most Used Languages</text>
    </g>
      </g>
    

        <g data-testid="main-card-body" transform="translate(0, 55)">
          
    <svg data-testid="lang-items" x="25">
      
    <mask id="rect-mask">
      <rect x="0" y="0" width="300" height="8" fill="white" rx="5"/>
    </mask>
    
        <rect mask="url(#rect-mask)" data-testid="lang-progress" x="0" y="0" width="217.29" height="8" fill="#e4cc98"/>
      
        <rect mask="url(#rect-mask)" data-testid="lang-progress" x="217.29" y="0" width="34.11" height="8" fill="#3572A5"/>
      
        <rect mask="url(#rect-mask)" data-testid="lang-progress" x="251.39999999999998" y="0" width="24.71" height="8" fill="#f34b7d"/>
      
        <rect mask="url(#rect-mask)" data-testid="lang-progress" x="276.10999999999996" y="0" width="23.9" height="8" fill="#00B4AB"/>
      

    <g transform="translate(0, 25)">
      <g transform="translate(0, 0)"><g transform="translate(0, 0)">
    <g>
      <circle cx="5" cy="6" r="5" fill="#e4cc98"/>
      <text data-testid="lang-name" x="15" y="10" class="lang-name">
        Tcl 72.43%
      </text>
    </g>
  </g><g transform="translate(0, 25)">
    <g>
      <circle cx="5" cy="6" r="5" fill="#3572A5"/>
      <text data-testid="lang-name" x="15" y="10" class="lang-name">
        Python 11.37%
      </text>
    </g>
  </g></g><g transform="translate(150, 0)"><g transform="translate(0, 0)">
    <g>
      <circle cx="5" cy="6" r="5" fill="#f34b7d"/>
      <text data-testid="lang-name" x="15" y="10" class="lang-name">
        C++ 8.24%
      </text>
    </g>
  </g><g transform="translate(0, 25)">
    <g>
      <circle cx="5" cy="6" r="5" fill="#00B4AB"/>
      <text data-testid="lang-name" x="15" y="10" class="lang-name">
        Dart 7.97%
      </text>
    </g>
  </g></g>
    </g>
  
    </svg>
  
        </g>
      </g><defs><clipPath id="item-8e898692-ced9-4874-a2d2-10df2f969405-outer_rectangle">
                <rect width="495" height="195" rx="10"/>
            </clipPath><mask id="item-8e898692-ced9-4874-a2d2-10df2f969405-mask_out_ring_behind_fire">
                <rect width="495" height="195" fill="white"/>
                <ellipse id="mask-ellipse" cx="247.5" cy="32" rx="13" ry="18" fill="black"/>
            </mask></defs><g transform="translate(80, 325) scale(1.290909090909091, 1.1435897435897435)" style="isolation: isolate">
        <style>
            @keyframes currstreak {
                0% { font-size: 3px; opacity: 0.2; }
                80% { font-size: 34px; opacity: 1; }
                100% { font-size: 28px; opacity: 1; }
            }
            @keyframes fadein {
                0% { opacity: 0; }
                100% { opacity: 1; }
            }
        </style>
        
        <g clip-path="url(#item-8e898692-ced9-4874-a2d2-10df2f969405-outer_rectangle)">
            <g style="isolation: isolate">
                <rect stroke="#E4E2E2" fill="#1A1B27" rx="10" x="0.5" y="0.5" width="494" height="194"/>
            </g>
            <g style="isolation: isolate">
                <line x1="165" y1="28" x2="165" y2="170" vector-effect="non-scaling-stroke" stroke-width="1" stroke="#E4E2E2" stroke-linejoin="miter" stroke-linecap="square" stroke-miterlimit="3"/>
                <line x1="330" y1="28" x2="330" y2="170" vector-effect="non-scaling-stroke" stroke-width="1" stroke="#E4E2E2" stroke-linejoin="miter" stroke-linecap="square" stroke-miterlimit="3"/>
            </g>
            <g style="isolation: isolate">
                <!-- Total Contributions big number -->
                <g transform="translate(82.5, 48)">
                    <text x="0" y="32" stroke-width="0" text-anchor="middle" fill="#70A5FD" stroke="none" font-family="&quot;Segoe UI&quot;, Ubuntu, sans-serif" font-weight="700" font-size="28px" font-style="normal" style="opacity: 0; animation: fadein 0.5s linear forwards 0.6s">
                        1,234
                    </text>
                </g>

                <!-- Total Contributions label -->
                <g transform="translate(82.5, 84)">
                    <text x="0" y="32" stroke-width="0" text-anchor="middle" fill="#70A5FD" stroke="none" font-family="&quot;Segoe UI&quot;, Ubuntu, sans-serif" font-weight="400" font-size="14px" font-style="normal" style="opacity: 0; animation: fadein 0.5s linear forwards 0.7s">
                        Total Contributions
                    </text>
                </g>

                <!-- Total Contributions range -->
                <g transform="translate(82.5, 114)">
                    <text x="0" y="32" stroke-width="0" text-anchor="middle" fill="#38BDAE" stroke="none" font-family="&quot;Segoe UI&quot;, Ubuntu, sans-serif" font-weight="400" font-size="12px" font-style="normal" style="opacity: 0; animation: fadein 0.5s linear forwards 0.8s">
                        Sep 22, 2021 - Present
                    </text>
                </g>
            </g>
            <g style="isolation: isolate">
                <!-- Current Streak label -->
                <g transform="translate(247.5, 108)">
                    <text x="0" y="32" stroke-width="0" text-anchor="middle" fill="#BF91F3" stroke="none" font-family="&quot;Segoe UI&quot;, Ubuntu, sans-serif" font-weight="700" font-size="14px" font-style="normal" style="opacity: 0; animation: fadein 0.5s linear forwards 0.9s">
                        Current Streak
                    </text>
                </g>

                <!-- Current Streak range -->
                <g transform="translate(247.5, 145)">
                    <text x="0" y="21" stroke-width="0" text-anchor="middle" fill="#38BDAE" stroke="none" font-family="&quot;Segoe UI&quot;, Ubuntu, sans-serif" font-weight="400" font-size="12px" font-style="normal" style="opacity: 0; animation: fadein 0.5s linear forwards 0.9s">
                        Apr 15
                    </text>
                </g>

                <!-- Ring around number -->
                <g mask="url(#item-8e898692-ced9-4874-a2d2-10df2f969405-mask_out_ring_behind_fire)">
                    <circle cx="247.5" cy="71" r="40" fill="none" stroke="#70A5FD" stroke-width="5" style="opacity: 0; animation: fadein 0.5s linear forwards 0.4s"/>
                </g>
                <!-- Fire icon -->
                <g transform="translate(247.5, 19.5)" stroke-opacity="0" style="opacity: 0; animation: fadein 0.5s linear forwards 0.6s">
                    <path d="M -12 -0.5 L 15 -0.5 L 15 23.5 L -12 23.5 L -12 -0.5 Z" fill="none"/>
                    <path d="M 1.5 0.67 C 1.5 0.67 2.24 3.32 2.24 5.47 C 2.24 7.53 0.89 9.2 -1.17 9.2 C -3.23 9.2 -4.79 7.53 -4.79 5.47 L -4.76 5.11 C -6.78 7.51 -8 10.62 -8 13.99 C -8 18.41 -4.42 22 0 22 C 4.42 22 8 18.41 8 13.99 C 8 8.6 5.41 3.79 1.5 0.67 Z M -0.29 19 C -2.07 19 -3.51 17.6 -3.51 15.86 C -3.51 14.24 -2.46 13.1 -0.7 12.74 C 1.07 12.38 2.9 11.53 3.92 10.16 C 4.31 11.45 4.51 12.81 4.51 14.2 C 4.51 16.85 2.36 19 -0.29 19 Z" fill="#70A5FD" stroke-opacity="0"/>
                </g>

                <!-- Current Streak big number -->
                <g transform="translate(247.5, 48)">
                    <text x="0" y="32" stroke-width="0" text-anchor="middle" fill="#BF91F3" stroke="none" font-family="&quot;Segoe UI&quot;, Ubuntu, sans-serif" font-weight="700" font-size="28px" font-style="normal" style="animation: currstreak 0.6s linear forwards">
                        1
                    </text>
                </g>

            </g>
            <g style="isolation: isolate">
                <!-- Longest Streak big number -->
                <g transform="translate(412.5, 48)">
                    <text x="0" y="32" stroke-width="0" text-anchor="middle" fill="#70A5FD" stroke="none" font-family="&quot;Segoe UI&quot;, Ubuntu, sans-serif" font-weight="700" font-size="28px" font-style="normal" style="opacity: 0; animation: fadein 0.5s linear forwards 1.2s">
                        50
                    </text>
                </g>

                <!-- Longest Streak label -->
                <g transform="translate(412.5, 84)">
                    <text x="0" y="32" stroke-width="0" text-anchor="middle" fill="#70A5FD" stroke="none" font-family="&quot;Segoe UI&quot;, Ubuntu, sans-serif" font-weight="400" font-size="14px" font-style="normal" style="opacity: 0; animation: fadein 0.5s linear forwards 1.3s">
                        Longest Streak
                    </text>
                </g>

                <!-- Longest Streak range -->
                <g transform="translate(412.5, 114)">
                    <text x="0" y="32" stroke-width="0" text-anchor="middle" fill="#38BDAE" stroke="none" font-family="&quot;Segoe UI&quot;, Ubuntu, sans-serif" font-weight="400" font-size="12px" font-style="normal" style="opacity: 0; animation: fadein 0.5s linear forwards 1.4s">
                        Feb 21, 2023 - Apr 11, 2023
                    </text>
                </g>
            </g>
            
        </g>
    </g><g transform="translate(-112.45271176966187, 300) scale(0.5405405405405406, 0.539568345323741)">
<rect x="19" y="537" width="390" height="6" transform="rotate(-90 19 537)" fill="#BD0909"/>
<rect y="555" width="555" height="13" transform="rotate(-90 0 555)" fill="#BD0909"/>
<rect x="19" y="449" width="7" height="22" transform="rotate(-90 19 449)" fill="#BD0909"/>
<rect x="34" y="406" width="9" height="14" transform="rotate(-90 34 406)" fill="#BD0909"/>
<rect x="50" y="446" width="9" height="54" transform="rotate(-90 50 446)" fill="#BD0909"/>
<rect x="71" y="429" width="7" height="61" transform="rotate(-90 71 429)" fill="#BD0909"/>
<rect x="25" y="391" width="6" height="38" transform="rotate(-90 25 391)" fill="#BD0909"/>
<rect x="36" y="433" width="9" height="27" transform="rotate(-90 36 433)" fill="#BD0909"/>
<rect x="35" y="510" width="68" height="6" transform="rotate(-90 35 510)" fill="#BD0909"/>
<path d="M34.9803 508.823L103.983 437.019L114.984 437.019L34.9965 518.5L34.9803 508.823Z" fill="#BD0909"/>
<path d="M50.0019 477.002L66 459.5L73.0019 459.502L49.9232 483.501L50.0019 477.002Z" fill="#BD0909"/>
<rect x="57" y="432" width="47" height="6" transform="rotate(-90 57 432)" fill="#BD0909"/>
<rect x="34" y="433" width="33" height="8" transform="rotate(-90 34 433)" fill="#BD0909"/>
<path fill-rule="evenodd" clip-rule="evenodd" d="M52.0672 480L56 475.925L56 442H50L50 480H52.0672Z" fill="#BD0909"/>
<rect x="71" y="429" width="56" height="6" transform="rotate(-90 71 429)" fill="#BD0909"/>
<rect x="50" y="377" width="32" height="4" transform="rotate(-90 50 377)" fill="#BD0909"/>
<rect x="76" y="378" width="26" height="5" transform="rotate(-180 76 378)" fill="#BD0909"/>
<rect x="54" y="349" width="15" height="4" transform="rotate(-180 54 349)" fill="#BD0909"/>
<rect x="42" y="328" width="17" height="3" transform="rotate(-180 42 328)" fill="#BD0909"/>
<rect x="34" y="344" width="10" height="8" transform="rotate(-180 34 344)" fill="#BD0909"/>
<rect x="39" y="348" width="23" height="3" transform="rotate(-90 39 348)" fill="#BD0909"/>
<rect x="30" y="361" width="25" height="4" transform="rotate(-90 30 361)" fill="#BD0909"/>
<rect x="43" y="382" width="25" height="4" transform="rotate(-90 43 382)" fill="#BD0909"/>
<rect x="29" y="382" width="14" height="4" transform="rotate(-90 29 382)" fill="#BD0909"/>
<rect x="47" y="382" width="18" height="8" transform="rotate(-180 47 382)" fill="#BD0909"/>
<rect x="46" y="361" width="16" height="4" transform="rotate(-180 46 361)" fill="#BD0909"/>
<rect width="390" height="6" transform="matrix(1 0 0 -1 19 537)" fill="#BD0909"/>
<rect width="555" height="13" transform="matrix(1 0 0 -1 0 556)" fill="#BD0909"/>
<rect width="7" height="22" transform="matrix(1 0 0 -1 106 537)" fill="#BD0909"/>
<rect width="9" height="14" transform="matrix(1 0 0 -1 149 522)" fill="#BD0909"/>
<rect width="9" height="54" transform="matrix(1 0 0 -1 109 506)" fill="#BD0909"/>
<rect width="7" height="63" transform="matrix(1 0 0 -1 126 485)" fill="#BD0909"/>
<rect width="6" height="38" transform="matrix(1 0 0 -1 164 531)" fill="#BD0909"/>
<rect width="9" height="27" transform="matrix(1 0 0 -1 122 520)" fill="#BD0909"/>
<rect width="68" height="6" transform="matrix(1 0 0 -1 45 521)" fill="#BD0909"/>
<path d="M46.1773 521.02L117.981 452.017L117.981 441.016L36.5 521.004L46.1773 521.02Z" fill="#BD0909"/>
<path d="M77.9981 505.998L95.5 490L95.4981 482.998L71.4987 506.077L77.9981 505.998Z" fill="#BD0909"/>
<rect width="47" height="6" transform="matrix(1 0 0 -1 123 499)" fill="#BD0909"/>
<rect width="33" height="8" transform="matrix(1 0 0 -1 122 522)" fill="#BD0909"/>
<path fill-rule="evenodd" clip-rule="evenodd" d="M75 503.933L79.0749 500H113V506H75V503.933Z" fill="#BD0909"/>
<rect width="56" height="6" transform="matrix(1 0 0 -1 126 485)" fill="#BD0909"/>
<rect width="32" height="4" transform="matrix(1 0 0 -1 178 506)" fill="#BD0909"/>
<rect width="26" height="5" transform="matrix(0 1 1 0 177 480)" fill="#BD0909"/>
<rect width="15" height="4" transform="matrix(0 1 1 0 206 502)" fill="#BD0909"/>
<rect width="17" height="3" transform="matrix(0 1 1 0 227 514)" fill="#BD0909"/>
<rect width="10" height="8" transform="matrix(0 1 1 0 211 522)" fill="#BD0909"/>
<rect width="23" height="3" transform="matrix(1 0 0 -1 207 517)" fill="#BD0909"/>
<rect width="25" height="4" transform="matrix(1 0 0 -1 194 526)" fill="#BD0909"/>
<rect width="25" height="4" transform="matrix(1 0 0 -1 173 513)" fill="#BD0909"/>
<rect width="14" height="4" transform="matrix(1 0 0 -1 173 527)" fill="#BD0909"/>
<rect width="18" height="8" transform="matrix(0 1 1 0 173 509)" fill="#BD0909"/>
<rect width="16" height="4" transform="matrix(0 1 1 0 194 510)" fill="#BD0909"/>
</g><g transform="translate(600.2567397548477, 300) scale(0.5405405405405406, 0.539568345323741)">
<rect width="390" height="6" transform="matrix(0 -1 -1 0 536 537)" fill="#BD0909"/>
<rect width="555" height="13" transform="matrix(0 -1 -1 0 555 555)" fill="#BD0909"/>
<rect width="7" height="22" transform="matrix(0 -1 -1 0 536 449)" fill="#BD0909"/>
<rect width="9" height="14" transform="matrix(0 -1 -1 0 521 406)" fill="#BD0909"/>
<rect width="9" height="54" transform="matrix(0 -1 -1 0 505 446)" fill="#BD0909"/>
<rect width="7" height="61" transform="matrix(0 -1 -1 0 484 429)" fill="#BD0909"/>
<rect width="6" height="38" transform="matrix(0 -1 -1 0 530 391)" fill="#BD0909"/>
<rect width="9" height="27" transform="matrix(0 -1 -1 0 519 433)" fill="#BD0909"/>
<rect width="68" height="6" transform="matrix(0 -1 -1 0 520 510)" fill="#BD0909"/>
<path d="M520.02 508.823L451.017 437.019L440.016 437.019L520.004 518.5L520.02 508.823Z" fill="#BD0909"/>
<path d="M504.998 477.002L489 459.5L481.998 459.502L505.077 483.501L504.998 477.002Z" fill="#BD0909"/>
<rect width="47" height="6" transform="matrix(0 -1 -1 0 498 432)" fill="#BD0909"/>
<rect width="33" height="8" transform="matrix(0 -1 -1 0 521 433)" fill="#BD0909"/>
<path fill-rule="evenodd" clip-rule="evenodd" d="M502.933 480L499 475.925V442H505V480H502.933Z" fill="#BD0909"/>
<rect width="56" height="6" transform="matrix(0 -1 -1 0 484 429)" fill="#BD0909"/>
<rect width="32" height="4" transform="matrix(0 -1 -1 0 505 377)" fill="#BD0909"/>
<rect width="26" height="5" transform="matrix(1 0 0 -1 479 378)" fill="#BD0909"/>
<rect width="15" height="4" transform="matrix(1 0 0 -1 501 349)" fill="#BD0909"/>
<rect width="17" height="3" transform="matrix(1 0 0 -1 513 328)" fill="#BD0909"/>
<rect width="10" height="8" transform="matrix(1 0 0 -1 521 344)" fill="#BD0909"/>
<rect width="23" height="3" transform="matrix(0 -1 -1 0 516 348)" fill="#BD0909"/>
<rect width="25" height="4" transform="matrix(0 -1 -1 0 525 361)" fill="#BD0909"/>
<rect width="25" height="4" transform="matrix(0 -1 -1 0 512 382)" fill="#BD0909"/>
<rect width="14" height="4" transform="matrix(0 -1 -1 0 526 382)" fill="#BD0909"/>
<rect width="18" height="8" transform="matrix(1 0 0 -1 508 382)" fill="#BD0909"/>
<rect width="16" height="4" transform="matrix(1 0 0 -1 509 361)" fill="#BD0909"/>
<rect x="536" y="537" width="390" height="6" transform="rotate(180 536 537)" fill="#BD0909"/>
<rect x="555" y="556" width="555" height="13" transform="rotate(180 555 556)" fill="#BD0909"/>
<rect x="449" y="537" width="7" height="22" transform="rotate(180 449 537)" fill="#BD0909"/>
<rect x="406" y="522" width="9" height="14" transform="rotate(180 406 522)" fill="#BD0909"/>
<rect x="446" y="506" width="9" height="54" transform="rotate(180 446 506)" fill="#BD0909"/>
<rect x="429" y="485" width="7" height="63" transform="rotate(180 429 485)" fill="#BD0909"/>
<rect x="391" y="531" width="6" height="38" transform="rotate(180 391 531)" fill="#BD0909"/>
<rect x="433" y="520" width="9" height="27" transform="rotate(180 433 520)" fill="#BD0909"/>
<rect x="510" y="521" width="68" height="6" transform="rotate(180 510 521)" fill="#BD0909"/>
<path d="M508.823 521.02L437.019 452.017L437.019 441.016L518.5 521.004L508.823 521.02Z" fill="#BD0909"/>
<path d="M477.002 505.998L459.5 490L459.502 482.998L483.501 506.077L477.002 505.998Z" fill="#BD0909"/>
<rect x="432" y="499" width="47" height="6" transform="rotate(180 432 499)" fill="#BD0909"/>
<rect x="433" y="522" width="33" height="8" transform="rotate(180 433 522)" fill="#BD0909"/>
<path fill-rule="evenodd" clip-rule="evenodd" d="M480 503.933L475.925 500H442V506H480V503.933Z" fill="#BD0909"/>
<rect x="429" y="485" width="56" height="6" transform="rotate(180 429 485)" fill="#BD0909"/>
<rect x="377" y="506" width="32" height="4" transform="rotate(180 377 506)" fill="#BD0909"/>
<rect x="378" y="480" width="26" height="5" transform="rotate(90 378 480)" fill="#BD0909"/>
<rect x="349" y="502" width="15" height="4" transform="rotate(90 349 502)" fill="#BD0909"/>
<rect x="328" y="514" width="17" height="3" transform="rotate(90 328 514)" fill="#BD0909"/>
<rect x="344" y="522" width="10" height="8" transform="rotate(90 344 522)" fill="#BD0909"/>
<rect x="348" y="517" width="23" height="3" transform="rotate(180 348 517)" fill="#BD0909"/>
<rect x="361" y="526" width="25" height="4" transform="rotate(180 361 526)" fill="#BD0909"/>
<rect x="382" y="513" width="25" height="4" transform="rotate(180 382 513)" fill="#BD0909"/>
<rect x="382" y="527" width="14" height="4" transform="rotate(180 382 527)" fill="#BD0909"/>
<rect x="382" y="509" width="18" height="8" transform="rotate(90 382 509)" fill="#BD0909"/>
<rect x="361" y="510" width="16" height="4" transform="rotate(90 361 510)" fill="#BD0909"/>
</g></svg>