<svg width="555" height="556" viewBox="0 0 555 556" fill="none" xmlns="http://www.w3.org/2000/svg">
<rect x="19" y="537" width="390" height="6" transform="rotate(-90 19 537)" fill="#BD0909"/>
<rect y="555" width="555" height="13" transform="rotate(-90 0 555)" fill="#BD0909"/>
<rect x="19" y="449" width="7" height="22" transform="rotate(-90 19 449)" fill="#BD0909"/>
<rect x="34" y="406" width="9" height="14" transform="rotate(-90 34 406)" fill="#BD0909"/>
<rect x="50" y="446" width="9" height="54" transform="rotate(-90 50 446)" fill="#BD0909"/>
<rect x="71" y="429" width="7" height="61" transform="rotate(-90 71 429)" fill="#BD0909"/>
<rect x="25" y="391" width="6" height="38" transform="rotate(-90 25 391)" fill="#BD0909"/>
<rect x="36" y="433" width="9" height="27" transform="rotate(-90 36 433)" fill="#BD0909"/>
<rect x="35" y="510" width="68" height="6" transform="rotate(-90 35 510)" fill="#BD0909"/>
<path d="M34.9803 508.823L103.983 437.019L114.984 437.019L34.9965 518.5L34.9803 508.823Z" fill="#BD0909"/>
<path d="M50.0019 477.002L66 459.5L73.0019 459.502L49.9232 483.501L50.0019 477.002Z" fill="#BD0909"/>
<rect x="57" y="432" width="47" height="6" transform="rotate(-90 57 432)" fill="#BD0909"/>
<rect x="34" y="433" width="33" height="8" transform="rotate(-90 34 433)" fill="#BD0909"/>
<path fill-rule="evenodd" clip-rule="evenodd" d="M52.0672 480L56 475.925L56 442H50L50 480H52.0672Z" fill="#BD0909"/>
<rect x="71" y="429" width="56" height="6" transform="rotate(-90 71 429)" fill="#BD0909"/>
<rect x="50" y="377" width="32" height="4" transform="rotate(-90 50 377)" fill="#BD0909"/>
<rect x="76" y="378" width="26" height="5" transform="rotate(-180 76 378)" fill="#BD0909"/>
<rect x="54" y="349" width="15" height="4" transform="rotate(-180 54 349)" fill="#BD0909"/>
<rect x="42" y="328" width="17" height="3" transform="rotate(-180 42 328)" fill="#BD0909"/>
<rect x="34" y="344" width="10" height="8" transform="rotate(-180 34 344)" fill="#BD0909"/>
<rect x="39" y="348" width="23" height="3" transform="rotate(-90 39 348)" fill="#BD0909"/>
<rect x="30" y="361" width="25" height="4" transform="rotate(-90 30 361)" fill="#BD0909"/>
<rect x="43" y="382" width="25" height="4" transform="rotate(-90 43 382)" fill="#BD0909"/>
<rect x="29" y="382" width="14" height="4" transform="rotate(-90 29 382)" fill="#BD0909"/>
<rect x="47" y="382" width="18" height="8" transform="rotate(-180 47 382)" fill="#BD0909"/>
<rect x="46" y="361" width="16" height="4" transform="rotate(-180 46 361)" fill="#BD0909"/>
<rect width="390" height="6" transform="matrix(1 0 0 -1 19 537)" fill="#BD0909"/>
<rect width="555" height="13" transform="matrix(1 0 0 -1 0 556)" fill="#BD0909"/>
<rect width="7" height="22" transform="matrix(1 0 0 -1 106 537)" fill="#BD0909"/>
<rect width="9" height="14" transform="matrix(1 0 0 -1 149 522)" fill="#BD0909"/>
<rect width="9" height="54" transform="matrix(1 0 0 -1 109 506)" fill="#BD0909"/>
<rect width="7" height="63" transform="matrix(1 0 0 -1 126 485)" fill="#BD0909"/>
<rect width="6" height="38" transform="matrix(1 0 0 -1 164 531)" fill="#BD0909"/>
<rect width="9" height="27" transform="matrix(1 0 0 -1 122 520)" fill="#BD0909"/>
<rect width="68" height="6" transform="matrix(1 0 0 -1 45 521)" fill="#BD0909"/>
<path d="M46.1773 521.02L117.981 452.017L117.981 441.016L36.5 521.004L46.1773 521.02Z" fill="#BD0909"/>
<path d="M77.9981 505.998L95.5 490L95.4981 482.998L71.4987 506.077L77.9981 505.998Z" fill="#BD0909"/>
<rect width="47" height="6" transform="matrix(1 0 0 -1 123 499)" fill="#BD0909"/>
<rect width="33" height="8" transform="matrix(1 0 0 -1 122 522)" fill="#BD0909"/>
<path fill-rule="evenodd" clip-rule="evenodd" d="M75 503.933L79.0749 500H113V506H75V503.933Z" fill="#BD0909"/>
<rect width="56" height="6" transform="matrix(1 0 0 -1 126 485)" fill="#BD0909"/>
<rect width="32" height="4" transform="matrix(1 0 0 -1 178 506)" fill="#BD0909"/>
<rect width="26" height="5" transform="matrix(0 1 1 0 177 480)" fill="#BD0909"/>
<rect width="15" height="4" transform="matrix(0 1 1 0 206 502)" fill="#BD0909"/>
<rect width="17" height="3" transform="matrix(0 1 1 0 227 514)" fill="#BD0909"/>
<rect width="10" height="8" transform="matrix(0 1 1 0 211 522)" fill="#BD0909"/>
<rect width="23" height="3" transform="matrix(1 0 0 -1 207 517)" fill="#BD0909"/>
<rect width="25" height="4" transform="matrix(1 0 0 -1 194 526)" fill="#BD0909"/>
<rect width="25" height="4" transform="matrix(1 0 0 -1 173 513)" fill="#BD0909"/>
<rect width="14" height="4" transform="matrix(1 0 0 -1 173 527)" fill="#BD0909"/>
<rect width="18" height="8" transform="matrix(0 1 1 0 173 509)" fill="#BD0909"/>
<rect width="16" height="4" transform="matrix(0 1 1 0 194 510)" fill="#BD0909"/>
</svg>
